G04 #@! TF.GenerationSoftware,KiCad,Pcbnew,(5.1.5)-3*
G04 #@! TF.CreationDate,2020-03-25T22:32:38+08:00*
G04 #@! TF.ProjectId,PCB Design,50434220-4465-4736-9967-6e2e6b696361,rev?*
G04 #@! TF.SameCoordinates,Original*
G04 #@! TF.FileFunction,Legend,Bot*
G04 #@! TF.FilePolarity,Positive*
%FSLAX46Y46*%
G04 Gerber Fmt 4.6, Leading zero omitted, Abs format (unit mm)*
G04 Created by KiCad (PCBNEW (5.1.5)-3) date 2020-03-25 22:32:38*
%MOMM*%
%LPD*%
G04 APERTURE LIST*
%ADD10C,0.120000*%
%ADD11C,0.150000*%
%ADD12O,1.802000X1.802000*%
%ADD13R,1.802000X1.802000*%
%ADD14C,2.352000*%
%ADD15C,4.089800*%
%ADD16C,1.852000*%
%ADD17C,3.150000*%
%ADD18R,1.502000X1.302000*%
%ADD19O,1.802000X2.802000*%
%ADD20R,0.602000X2.352000*%
%ADD21R,1.602000X0.652000*%
%ADD22R,0.652000X1.602000*%
%ADD23R,1.202000X1.902000*%
%ADD24C,1.202000*%
%ADD25C,1.602000*%
%ADD26C,0.100000*%
%ADD27R,1.302000X1.002000*%
%ADD28R,1.002000X1.302000*%
G04 APERTURE END LIST*
D10*
X109220000Y-29651000D02*
X110550000Y-29651000D01*
X110550000Y-29651000D02*
X110550000Y-28321000D01*
X107950000Y-29651000D02*
X107950000Y-27051000D01*
X107950000Y-27051000D02*
X110550000Y-27051000D01*
X110550000Y-27051000D02*
X110550000Y-21911000D01*
X105350000Y-21911000D02*
X110550000Y-21911000D01*
X105350000Y-29651000D02*
X105350000Y-21911000D01*
X105350000Y-29651000D02*
X107950000Y-29651000D01*
X227393750Y-27718750D02*
X231393750Y-27718750D01*
X227393750Y-31018750D02*
X227393750Y-27718750D01*
D11*
X165060000Y-14224000D02*
X165060000Y-19674000D01*
X172760000Y-14224000D02*
X172760000Y-19674000D01*
X165060000Y-19674000D02*
X172760000Y-19674000D01*
X193837500Y-23400000D02*
X193837500Y-22125000D01*
X193262500Y-33750000D02*
X193262500Y-33075000D01*
X203612500Y-33750000D02*
X203612500Y-33075000D01*
X203612500Y-23400000D02*
X203612500Y-24075000D01*
X193262500Y-23400000D02*
X193262500Y-24075000D01*
X203612500Y-23400000D02*
X202937500Y-23400000D01*
X203612500Y-33750000D02*
X202937500Y-33750000D01*
X193262500Y-33750000D02*
X193937500Y-33750000D01*
X193262500Y-23400000D02*
X193837500Y-23400000D01*
X156587500Y-32762500D02*
X156587500Y-27562500D01*
X156587500Y-27562500D02*
X151387500Y-27562500D01*
X151387500Y-27562500D02*
X151387500Y-32762500D01*
X151387500Y-32762500D02*
X156587500Y-32762500D01*
X154987500Y-30162500D02*
G75*
G03X154987500Y-30162500I-1000000J0D01*
G01*
D10*
X183971000Y-33396422D02*
X183971000Y-33913578D01*
X182551000Y-33396422D02*
X182551000Y-33913578D01*
X176836000Y-30611578D02*
X176836000Y-30094422D01*
X178256000Y-30611578D02*
X178256000Y-30094422D01*
X187202578Y-17474000D02*
X186685422Y-17474000D01*
X187202578Y-16054000D02*
X186685422Y-16054000D01*
X204465422Y-16181000D02*
X204982578Y-16181000D01*
X204465422Y-17601000D02*
X204982578Y-17601000D01*
X178456000Y-21495936D02*
X178456000Y-22700064D01*
X176636000Y-21495936D02*
X176636000Y-22700064D01*
X319675000Y-66806250D02*
X319675000Y-70706250D01*
X321675000Y-66806250D02*
X321675000Y-70706250D01*
X319675000Y-66806250D02*
X321675000Y-66806250D01*
X321337500Y-43450000D02*
X317437500Y-43450000D01*
X321337500Y-45450000D02*
X317437500Y-45450000D01*
X321337500Y-43450000D02*
X321337500Y-45450000D01*
X318162500Y-66468750D02*
X314262500Y-66468750D01*
X318162500Y-68468750D02*
X314262500Y-68468750D01*
X318162500Y-66468750D02*
X318162500Y-68468750D01*
X307768750Y-50137500D02*
X307768750Y-54037500D01*
X309768750Y-50137500D02*
X309768750Y-54037500D01*
X307768750Y-50137500D02*
X309768750Y-50137500D01*
X329200000Y-56487500D02*
X329200000Y-60387500D01*
X331200000Y-56487500D02*
X331200000Y-60387500D01*
X329200000Y-56487500D02*
X331200000Y-56487500D01*
X312075000Y-119268750D02*
X315975000Y-119268750D01*
X312075000Y-117268750D02*
X315975000Y-117268750D01*
X312075000Y-119268750D02*
X312075000Y-117268750D01*
X293025000Y-119268750D02*
X296925000Y-119268750D01*
X293025000Y-117268750D02*
X296925000Y-117268750D01*
X293025000Y-119268750D02*
X293025000Y-117268750D01*
X273975000Y-119268750D02*
X277875000Y-119268750D01*
X273975000Y-117268750D02*
X277875000Y-117268750D01*
X273975000Y-119268750D02*
X273975000Y-117268750D01*
X247781250Y-114506250D02*
X251681250Y-114506250D01*
X247781250Y-112506250D02*
X251681250Y-112506250D01*
X247781250Y-114506250D02*
X247781250Y-112506250D01*
X223968750Y-114506250D02*
X227868750Y-114506250D01*
X223968750Y-112506250D02*
X227868750Y-112506250D01*
X223968750Y-114506250D02*
X223968750Y-112506250D01*
X152531250Y-114506250D02*
X156431250Y-114506250D01*
X152531250Y-112506250D02*
X156431250Y-112506250D01*
X152531250Y-114506250D02*
X152531250Y-112506250D01*
X81093750Y-114506250D02*
X84993750Y-114506250D01*
X81093750Y-112506250D02*
X84993750Y-112506250D01*
X81093750Y-114506250D02*
X81093750Y-112506250D01*
X64956250Y-111712500D02*
X61056250Y-111712500D01*
X64956250Y-113712500D02*
X61056250Y-113712500D01*
X64956250Y-111712500D02*
X64956250Y-113712500D01*
X41143750Y-112506250D02*
X37243750Y-112506250D01*
X41143750Y-114506250D02*
X37243750Y-114506250D01*
X41143750Y-112506250D02*
X41143750Y-114506250D01*
X293025000Y-100218750D02*
X296925000Y-100218750D01*
X293025000Y-98218750D02*
X296925000Y-98218750D01*
X293025000Y-100218750D02*
X293025000Y-98218750D01*
X266831250Y-95456250D02*
X270731250Y-95456250D01*
X266831250Y-93456250D02*
X270731250Y-93456250D01*
X266831250Y-95456250D02*
X266831250Y-93456250D01*
X245400000Y-95456250D02*
X249300000Y-95456250D01*
X245400000Y-93456250D02*
X249300000Y-93456250D01*
X245400000Y-95456250D02*
X245400000Y-93456250D01*
X226350000Y-95456250D02*
X230250000Y-95456250D01*
X226350000Y-93456250D02*
X230250000Y-93456250D01*
X226350000Y-95456250D02*
X226350000Y-93456250D01*
X207300000Y-95456250D02*
X211200000Y-95456250D01*
X207300000Y-93456250D02*
X211200000Y-93456250D01*
X207300000Y-95456250D02*
X207300000Y-93456250D01*
X188250000Y-95456250D02*
X192150000Y-95456250D01*
X188250000Y-93456250D02*
X192150000Y-93456250D01*
X188250000Y-95456250D02*
X188250000Y-93456250D01*
X169200000Y-95456250D02*
X173100000Y-95456250D01*
X169200000Y-93456250D02*
X173100000Y-93456250D01*
X169200000Y-95456250D02*
X169200000Y-93456250D01*
X150150000Y-95456250D02*
X154050000Y-95456250D01*
X150150000Y-93456250D02*
X154050000Y-93456250D01*
X150150000Y-95456250D02*
X150150000Y-93456250D01*
X131100000Y-95456250D02*
X135000000Y-95456250D01*
X131100000Y-93456250D02*
X135000000Y-93456250D01*
X131100000Y-95456250D02*
X131100000Y-93456250D01*
X112050000Y-95456250D02*
X115950000Y-95456250D01*
X112050000Y-93456250D02*
X115950000Y-93456250D01*
X112050000Y-95456250D02*
X112050000Y-93456250D01*
X93000000Y-95456250D02*
X96900000Y-95456250D01*
X93000000Y-93456250D02*
X96900000Y-93456250D01*
X93000000Y-95456250D02*
X93000000Y-93456250D01*
X73950000Y-95456250D02*
X77850000Y-95456250D01*
X73950000Y-93456250D02*
X77850000Y-93456250D01*
X73950000Y-95456250D02*
X73950000Y-93456250D01*
X42993750Y-95456250D02*
X46893750Y-95456250D01*
X42993750Y-93456250D02*
X46893750Y-93456250D01*
X42993750Y-95456250D02*
X42993750Y-93456250D01*
X285881250Y-76406250D02*
X289781250Y-76406250D01*
X285881250Y-74406250D02*
X289781250Y-74406250D01*
X285881250Y-76406250D02*
X285881250Y-74406250D01*
X254925000Y-76406250D02*
X258825000Y-76406250D01*
X254925000Y-74406250D02*
X258825000Y-74406250D01*
X254925000Y-76406250D02*
X254925000Y-74406250D01*
X235875000Y-76406250D02*
X239775000Y-76406250D01*
X235875000Y-74406250D02*
X239775000Y-74406250D01*
X235875000Y-76406250D02*
X235875000Y-74406250D01*
X216825000Y-76406250D02*
X220725000Y-76406250D01*
X216825000Y-74406250D02*
X220725000Y-74406250D01*
X216825000Y-76406250D02*
X216825000Y-74406250D01*
X197775000Y-76406250D02*
X201675000Y-76406250D01*
X197775000Y-74406250D02*
X201675000Y-74406250D01*
X197775000Y-76406250D02*
X197775000Y-74406250D01*
X178725000Y-76406250D02*
X182625000Y-76406250D01*
X178725000Y-74406250D02*
X182625000Y-74406250D01*
X178725000Y-76406250D02*
X178725000Y-74406250D01*
X159675000Y-76406250D02*
X163575000Y-76406250D01*
X159675000Y-74406250D02*
X163575000Y-74406250D01*
X159675000Y-76406250D02*
X159675000Y-74406250D01*
X140625000Y-76406250D02*
X144525000Y-76406250D01*
X140625000Y-74406250D02*
X144525000Y-74406250D01*
X140625000Y-76406250D02*
X140625000Y-74406250D01*
X121575000Y-76406250D02*
X125475000Y-76406250D01*
X121575000Y-74406250D02*
X125475000Y-74406250D01*
X121575000Y-76406250D02*
X121575000Y-74406250D01*
X102525000Y-76406250D02*
X106425000Y-76406250D01*
X102525000Y-74406250D02*
X106425000Y-74406250D01*
X102525000Y-76406250D02*
X102525000Y-74406250D01*
X83475000Y-76406250D02*
X87375000Y-76406250D01*
X83475000Y-74406250D02*
X87375000Y-74406250D01*
X83475000Y-76406250D02*
X83475000Y-74406250D01*
X64425000Y-76406250D02*
X68325000Y-76406250D01*
X64425000Y-74406250D02*
X68325000Y-74406250D01*
X64425000Y-76406250D02*
X64425000Y-74406250D01*
X38231250Y-76406250D02*
X42131250Y-76406250D01*
X38231250Y-74406250D02*
X42131250Y-74406250D01*
X38231250Y-76406250D02*
X38231250Y-74406250D01*
X293025000Y-57356250D02*
X296925000Y-57356250D01*
X293025000Y-55356250D02*
X296925000Y-55356250D01*
X293025000Y-57356250D02*
X293025000Y-55356250D01*
X269212500Y-57356250D02*
X273112500Y-57356250D01*
X269212500Y-55356250D02*
X273112500Y-55356250D01*
X269212500Y-57356250D02*
X269212500Y-55356250D01*
X250162500Y-57356250D02*
X254062500Y-57356250D01*
X250162500Y-55356250D02*
X254062500Y-55356250D01*
X250162500Y-57356250D02*
X250162500Y-55356250D01*
X231112500Y-57356250D02*
X235012500Y-57356250D01*
X231112500Y-55356250D02*
X235012500Y-55356250D01*
X231112500Y-57356250D02*
X231112500Y-55356250D01*
X212062500Y-57356250D02*
X215962500Y-57356250D01*
X212062500Y-55356250D02*
X215962500Y-55356250D01*
X212062500Y-57356250D02*
X212062500Y-55356250D01*
X193012500Y-57356250D02*
X196912500Y-57356250D01*
X193012500Y-55356250D02*
X196912500Y-55356250D01*
X193012500Y-57356250D02*
X193012500Y-55356250D01*
X173962500Y-57356250D02*
X177862500Y-57356250D01*
X173962500Y-55356250D02*
X177862500Y-55356250D01*
X173962500Y-57356250D02*
X173962500Y-55356250D01*
X154912500Y-57356250D02*
X158812500Y-57356250D01*
X154912500Y-55356250D02*
X158812500Y-55356250D01*
X154912500Y-57356250D02*
X154912500Y-55356250D01*
X135862500Y-57356250D02*
X139762500Y-57356250D01*
X135862500Y-55356250D02*
X139762500Y-55356250D01*
X135862500Y-57356250D02*
X135862500Y-55356250D01*
X116812500Y-57356250D02*
X120712500Y-57356250D01*
X116812500Y-55356250D02*
X120712500Y-55356250D01*
X116812500Y-57356250D02*
X116812500Y-55356250D01*
X97762500Y-57356250D02*
X101662500Y-57356250D01*
X97762500Y-55356250D02*
X101662500Y-55356250D01*
X97762500Y-57356250D02*
X97762500Y-55356250D01*
X78712500Y-57356250D02*
X82612500Y-57356250D01*
X78712500Y-55356250D02*
X82612500Y-55356250D01*
X78712500Y-57356250D02*
X78712500Y-55356250D01*
X59662500Y-57356250D02*
X63562500Y-57356250D01*
X59662500Y-55356250D02*
X63562500Y-55356250D01*
X59662500Y-57356250D02*
X59662500Y-55356250D01*
X35850000Y-57356250D02*
X39750000Y-57356250D01*
X35850000Y-55356250D02*
X39750000Y-55356250D01*
X35850000Y-57356250D02*
X35850000Y-55356250D01*
X288262500Y-38306250D02*
X292162500Y-38306250D01*
X288262500Y-36306250D02*
X292162500Y-36306250D01*
X288262500Y-38306250D02*
X288262500Y-36306250D01*
X259687500Y-38306250D02*
X263587500Y-38306250D01*
X259687500Y-36306250D02*
X263587500Y-36306250D01*
X259687500Y-38306250D02*
X259687500Y-36306250D01*
X240637500Y-38306250D02*
X244537500Y-38306250D01*
X240637500Y-36306250D02*
X244537500Y-36306250D01*
X240637500Y-38306250D02*
X240637500Y-36306250D01*
X221587500Y-38306250D02*
X225487500Y-38306250D01*
X221587500Y-36306250D02*
X225487500Y-36306250D01*
X221587500Y-38306250D02*
X221587500Y-36306250D01*
X202537500Y-38306250D02*
X206437500Y-38306250D01*
X202537500Y-36306250D02*
X206437500Y-36306250D01*
X202537500Y-38306250D02*
X202537500Y-36306250D01*
X183487500Y-38306250D02*
X187387500Y-38306250D01*
X183487500Y-36306250D02*
X187387500Y-36306250D01*
X183487500Y-38306250D02*
X183487500Y-36306250D01*
X164437500Y-38306250D02*
X168337500Y-38306250D01*
X164437500Y-36306250D02*
X168337500Y-36306250D01*
X164437500Y-38306250D02*
X164437500Y-36306250D01*
X145387500Y-38306250D02*
X149287500Y-38306250D01*
X145387500Y-36306250D02*
X149287500Y-36306250D01*
X145387500Y-38306250D02*
X145387500Y-36306250D01*
X126337500Y-38306250D02*
X130237500Y-38306250D01*
X126337500Y-36306250D02*
X130237500Y-36306250D01*
X126337500Y-38306250D02*
X126337500Y-36306250D01*
X107287500Y-38306250D02*
X111187500Y-38306250D01*
X107287500Y-36306250D02*
X111187500Y-36306250D01*
X107287500Y-38306250D02*
X107287500Y-36306250D01*
X88237500Y-38306250D02*
X92137500Y-38306250D01*
X88237500Y-36306250D02*
X92137500Y-36306250D01*
X88237500Y-38306250D02*
X88237500Y-36306250D01*
X69187500Y-38306250D02*
X73087500Y-38306250D01*
X69187500Y-36306250D02*
X73087500Y-36306250D01*
X69187500Y-38306250D02*
X69187500Y-36306250D01*
X50137500Y-38306250D02*
X54037500Y-38306250D01*
X50137500Y-36306250D02*
X54037500Y-36306250D01*
X50137500Y-38306250D02*
X50137500Y-36306250D01*
X31087500Y-38306250D02*
X34987500Y-38306250D01*
X31087500Y-36306250D02*
X34987500Y-36306250D01*
X31087500Y-38306250D02*
X31087500Y-36306250D01*
X215816250Y-24347672D02*
X215816250Y-24864828D01*
X214396250Y-24347672D02*
X214396250Y-24864828D01*
X211847500Y-24347672D02*
X211847500Y-24864828D01*
X210427500Y-24347672D02*
X210427500Y-24864828D01*
X182574000Y-21966422D02*
X182574000Y-22483578D01*
X181154000Y-21966422D02*
X181154000Y-22483578D01*
X209014828Y-20553750D02*
X208497672Y-20553750D01*
X209014828Y-19133750D02*
X208497672Y-19133750D01*
X199267578Y-17601000D02*
X198750422Y-17601000D01*
X199267578Y-16181000D02*
X198750422Y-16181000D01*
X232652500Y-29627328D02*
X232652500Y-29110172D01*
X234072500Y-29627328D02*
X234072500Y-29110172D01*
X226135000Y-29110172D02*
X226135000Y-29627328D01*
X224715000Y-29110172D02*
X224715000Y-29627328D01*
D11*
X108283333Y-30543380D02*
X108283333Y-31257666D01*
X108330952Y-31400523D01*
X108426190Y-31495761D01*
X108569047Y-31543380D01*
X108664285Y-31543380D01*
X107854761Y-30638619D02*
X107807142Y-30591000D01*
X107711904Y-30543380D01*
X107473809Y-30543380D01*
X107378571Y-30591000D01*
X107330952Y-30638619D01*
X107283333Y-30733857D01*
X107283333Y-30829095D01*
X107330952Y-30971952D01*
X107902380Y-31543380D01*
X107283333Y-31543380D01*
X229869940Y-31794940D02*
X229869940Y-32271130D01*
X230203273Y-31271130D02*
X229869940Y-31794940D01*
X229536607Y-31271130D01*
X228679464Y-32271130D02*
X229250892Y-32271130D01*
X228965178Y-32271130D02*
X228965178Y-31271130D01*
X229060416Y-31413988D01*
X229155654Y-31509226D01*
X229250892Y-31556845D01*
X170648095Y-15708380D02*
X170648095Y-16517904D01*
X170600476Y-16613142D01*
X170552857Y-16660761D01*
X170457619Y-16708380D01*
X170267142Y-16708380D01*
X170171904Y-16660761D01*
X170124285Y-16613142D01*
X170076666Y-16517904D01*
X170076666Y-15708380D01*
X169648095Y-16660761D02*
X169505238Y-16708380D01*
X169267142Y-16708380D01*
X169171904Y-16660761D01*
X169124285Y-16613142D01*
X169076666Y-16517904D01*
X169076666Y-16422666D01*
X169124285Y-16327428D01*
X169171904Y-16279809D01*
X169267142Y-16232190D01*
X169457619Y-16184571D01*
X169552857Y-16136952D01*
X169600476Y-16089333D01*
X169648095Y-15994095D01*
X169648095Y-15898857D01*
X169600476Y-15803619D01*
X169552857Y-15756000D01*
X169457619Y-15708380D01*
X169219523Y-15708380D01*
X169076666Y-15756000D01*
X168314761Y-16184571D02*
X168171904Y-16232190D01*
X168124285Y-16279809D01*
X168076666Y-16375047D01*
X168076666Y-16517904D01*
X168124285Y-16613142D01*
X168171904Y-16660761D01*
X168267142Y-16708380D01*
X168648095Y-16708380D01*
X168648095Y-15708380D01*
X168314761Y-15708380D01*
X168219523Y-15756000D01*
X168171904Y-15803619D01*
X168124285Y-15898857D01*
X168124285Y-15994095D01*
X168171904Y-16089333D01*
X168219523Y-16136952D01*
X168314761Y-16184571D01*
X168648095Y-16184571D01*
X167124285Y-16708380D02*
X167695714Y-16708380D01*
X167410000Y-16708380D02*
X167410000Y-15708380D01*
X167505238Y-15851238D01*
X167600476Y-15946476D01*
X167695714Y-15994095D01*
X190439880Y-27813095D02*
X191249404Y-27813095D01*
X191344642Y-27860714D01*
X191392261Y-27908333D01*
X191439880Y-28003571D01*
X191439880Y-28194047D01*
X191392261Y-28289285D01*
X191344642Y-28336904D01*
X191249404Y-28384523D01*
X190439880Y-28384523D01*
X191439880Y-29384523D02*
X191439880Y-28813095D01*
X191439880Y-29098809D02*
X190439880Y-29098809D01*
X190582738Y-29003571D01*
X190677976Y-28908333D01*
X190725595Y-28813095D01*
X150328261Y-28829166D02*
X150375880Y-28972023D01*
X150375880Y-29210119D01*
X150328261Y-29305357D01*
X150280642Y-29352976D01*
X150185404Y-29400595D01*
X150090166Y-29400595D01*
X149994928Y-29352976D01*
X149947309Y-29305357D01*
X149899690Y-29210119D01*
X149852071Y-29019642D01*
X149804452Y-28924404D01*
X149756833Y-28876785D01*
X149661595Y-28829166D01*
X149566357Y-28829166D01*
X149471119Y-28876785D01*
X149423500Y-28924404D01*
X149375880Y-29019642D01*
X149375880Y-29257738D01*
X149423500Y-29400595D01*
X149375880Y-29733928D02*
X150375880Y-29972023D01*
X149661595Y-30162500D01*
X150375880Y-30352976D01*
X149375880Y-30591071D01*
X150375880Y-31495833D02*
X150375880Y-30924404D01*
X150375880Y-31210119D02*
X149375880Y-31210119D01*
X149518738Y-31114880D01*
X149613976Y-31019642D01*
X149661595Y-30924404D01*
X182063380Y-33488333D02*
X181587190Y-33155000D01*
X182063380Y-32916904D02*
X181063380Y-32916904D01*
X181063380Y-33297857D01*
X181111000Y-33393095D01*
X181158619Y-33440714D01*
X181253857Y-33488333D01*
X181396714Y-33488333D01*
X181491952Y-33440714D01*
X181539571Y-33393095D01*
X181587190Y-33297857D01*
X181587190Y-32916904D01*
X181396714Y-34345476D02*
X182063380Y-34345476D01*
X181015761Y-34107380D02*
X181730047Y-33869285D01*
X181730047Y-34488333D01*
X179648380Y-30186333D02*
X179172190Y-29853000D01*
X179648380Y-29614904D02*
X178648380Y-29614904D01*
X178648380Y-29995857D01*
X178696000Y-30091095D01*
X178743619Y-30138714D01*
X178838857Y-30186333D01*
X178981714Y-30186333D01*
X179076952Y-30138714D01*
X179124571Y-30091095D01*
X179172190Y-29995857D01*
X179172190Y-29614904D01*
X178648380Y-30519666D02*
X178648380Y-31138714D01*
X179029333Y-30805380D01*
X179029333Y-30948238D01*
X179076952Y-31043476D01*
X179124571Y-31091095D01*
X179219809Y-31138714D01*
X179457904Y-31138714D01*
X179553142Y-31091095D01*
X179600761Y-31043476D01*
X179648380Y-30948238D01*
X179648380Y-30662523D01*
X179600761Y-30567285D01*
X179553142Y-30519666D01*
X187110666Y-15566380D02*
X187444000Y-15090190D01*
X187682095Y-15566380D02*
X187682095Y-14566380D01*
X187301142Y-14566380D01*
X187205904Y-14614000D01*
X187158285Y-14661619D01*
X187110666Y-14756857D01*
X187110666Y-14899714D01*
X187158285Y-14994952D01*
X187205904Y-15042571D01*
X187301142Y-15090190D01*
X187682095Y-15090190D01*
X186729714Y-14661619D02*
X186682095Y-14614000D01*
X186586857Y-14566380D01*
X186348761Y-14566380D01*
X186253523Y-14614000D01*
X186205904Y-14661619D01*
X186158285Y-14756857D01*
X186158285Y-14852095D01*
X186205904Y-14994952D01*
X186777333Y-15566380D01*
X186158285Y-15566380D01*
X204890666Y-18993380D02*
X205224000Y-18517190D01*
X205462095Y-18993380D02*
X205462095Y-17993380D01*
X205081142Y-17993380D01*
X204985904Y-18041000D01*
X204938285Y-18088619D01*
X204890666Y-18183857D01*
X204890666Y-18326714D01*
X204938285Y-18421952D01*
X204985904Y-18469571D01*
X205081142Y-18517190D01*
X205462095Y-18517190D01*
X203938285Y-18993380D02*
X204509714Y-18993380D01*
X204224000Y-18993380D02*
X204224000Y-17993380D01*
X204319238Y-18136238D01*
X204414476Y-18231476D01*
X204509714Y-18279095D01*
X175654571Y-21764666D02*
X175654571Y-21431333D01*
X176178380Y-21431333D02*
X175178380Y-21431333D01*
X175178380Y-21907523D01*
X176178380Y-22812285D02*
X176178380Y-22240857D01*
X176178380Y-22526571D02*
X175178380Y-22526571D01*
X175321238Y-22431333D01*
X175416476Y-22336095D01*
X175464095Y-22240857D01*
X319127380Y-67841964D02*
X318127380Y-67841964D01*
X318127380Y-68080059D01*
X318175000Y-68222916D01*
X318270238Y-68318154D01*
X318365476Y-68365773D01*
X318555952Y-68413392D01*
X318698809Y-68413392D01*
X318889285Y-68365773D01*
X318984523Y-68318154D01*
X319079761Y-68222916D01*
X319127380Y-68080059D01*
X319127380Y-67841964D01*
X318127380Y-69270535D02*
X318127380Y-69080059D01*
X318175000Y-68984821D01*
X318222619Y-68937202D01*
X318365476Y-68841964D01*
X318555952Y-68794345D01*
X318936904Y-68794345D01*
X319032142Y-68841964D01*
X319079761Y-68889583D01*
X319127380Y-68984821D01*
X319127380Y-69175297D01*
X319079761Y-69270535D01*
X319032142Y-69318154D01*
X318936904Y-69365773D01*
X318698809Y-69365773D01*
X318603571Y-69318154D01*
X318555952Y-69270535D01*
X318508333Y-69175297D01*
X318508333Y-68984821D01*
X318555952Y-68889583D01*
X318603571Y-68841964D01*
X318698809Y-68794345D01*
X319127380Y-69841964D02*
X319127380Y-70032440D01*
X319079761Y-70127678D01*
X319032142Y-70175297D01*
X318889285Y-70270535D01*
X318698809Y-70318154D01*
X318317857Y-70318154D01*
X318222619Y-70270535D01*
X318175000Y-70222916D01*
X318127380Y-70127678D01*
X318127380Y-69937202D01*
X318175000Y-69841964D01*
X318222619Y-69794345D01*
X318317857Y-69746726D01*
X318555952Y-69746726D01*
X318651190Y-69794345D01*
X318698809Y-69841964D01*
X318746428Y-69937202D01*
X318746428Y-70127678D01*
X318698809Y-70222916D01*
X318651190Y-70270535D01*
X318555952Y-70318154D01*
X320301785Y-42902380D02*
X320301785Y-41902380D01*
X320063690Y-41902380D01*
X319920833Y-41950000D01*
X319825595Y-42045238D01*
X319777976Y-42140476D01*
X319730357Y-42330952D01*
X319730357Y-42473809D01*
X319777976Y-42664285D01*
X319825595Y-42759523D01*
X319920833Y-42854761D01*
X320063690Y-42902380D01*
X320301785Y-42902380D01*
X318873214Y-41902380D02*
X319063690Y-41902380D01*
X319158928Y-41950000D01*
X319206547Y-41997619D01*
X319301785Y-42140476D01*
X319349404Y-42330952D01*
X319349404Y-42711904D01*
X319301785Y-42807142D01*
X319254166Y-42854761D01*
X319158928Y-42902380D01*
X318968452Y-42902380D01*
X318873214Y-42854761D01*
X318825595Y-42807142D01*
X318777976Y-42711904D01*
X318777976Y-42473809D01*
X318825595Y-42378571D01*
X318873214Y-42330952D01*
X318968452Y-42283333D01*
X319158928Y-42283333D01*
X319254166Y-42330952D01*
X319301785Y-42378571D01*
X319349404Y-42473809D01*
X318206547Y-42330952D02*
X318301785Y-42283333D01*
X318349404Y-42235714D01*
X318397023Y-42140476D01*
X318397023Y-42092857D01*
X318349404Y-41997619D01*
X318301785Y-41950000D01*
X318206547Y-41902380D01*
X318016071Y-41902380D01*
X317920833Y-41950000D01*
X317873214Y-41997619D01*
X317825595Y-42092857D01*
X317825595Y-42140476D01*
X317873214Y-42235714D01*
X317920833Y-42283333D01*
X318016071Y-42330952D01*
X318206547Y-42330952D01*
X318301785Y-42378571D01*
X318349404Y-42426190D01*
X318397023Y-42521428D01*
X318397023Y-42711904D01*
X318349404Y-42807142D01*
X318301785Y-42854761D01*
X318206547Y-42902380D01*
X318016071Y-42902380D01*
X317920833Y-42854761D01*
X317873214Y-42807142D01*
X317825595Y-42711904D01*
X317825595Y-42521428D01*
X317873214Y-42426190D01*
X317920833Y-42378571D01*
X318016071Y-42330952D01*
X317126785Y-65921130D02*
X317126785Y-64921130D01*
X316888690Y-64921130D01*
X316745833Y-64968750D01*
X316650595Y-65063988D01*
X316602976Y-65159226D01*
X316555357Y-65349702D01*
X316555357Y-65492559D01*
X316602976Y-65683035D01*
X316650595Y-65778273D01*
X316745833Y-65873511D01*
X316888690Y-65921130D01*
X317126785Y-65921130D01*
X315698214Y-64921130D02*
X315888690Y-64921130D01*
X315983928Y-64968750D01*
X316031547Y-65016369D01*
X316126785Y-65159226D01*
X316174404Y-65349702D01*
X316174404Y-65730654D01*
X316126785Y-65825892D01*
X316079166Y-65873511D01*
X315983928Y-65921130D01*
X315793452Y-65921130D01*
X315698214Y-65873511D01*
X315650595Y-65825892D01*
X315602976Y-65730654D01*
X315602976Y-65492559D01*
X315650595Y-65397321D01*
X315698214Y-65349702D01*
X315793452Y-65302083D01*
X315983928Y-65302083D01*
X316079166Y-65349702D01*
X316126785Y-65397321D01*
X316174404Y-65492559D01*
X315269642Y-64921130D02*
X314602976Y-64921130D01*
X315031547Y-65921130D01*
X307221130Y-51173214D02*
X306221130Y-51173214D01*
X306221130Y-51411309D01*
X306268750Y-51554166D01*
X306363988Y-51649404D01*
X306459226Y-51697023D01*
X306649702Y-51744642D01*
X306792559Y-51744642D01*
X306983035Y-51697023D01*
X307078273Y-51649404D01*
X307173511Y-51554166D01*
X307221130Y-51411309D01*
X307221130Y-51173214D01*
X306221130Y-52601785D02*
X306221130Y-52411309D01*
X306268750Y-52316071D01*
X306316369Y-52268452D01*
X306459226Y-52173214D01*
X306649702Y-52125595D01*
X307030654Y-52125595D01*
X307125892Y-52173214D01*
X307173511Y-52220833D01*
X307221130Y-52316071D01*
X307221130Y-52506547D01*
X307173511Y-52601785D01*
X307125892Y-52649404D01*
X307030654Y-52697023D01*
X306792559Y-52697023D01*
X306697321Y-52649404D01*
X306649702Y-52601785D01*
X306602083Y-52506547D01*
X306602083Y-52316071D01*
X306649702Y-52220833D01*
X306697321Y-52173214D01*
X306792559Y-52125595D01*
X306221130Y-53554166D02*
X306221130Y-53363690D01*
X306268750Y-53268452D01*
X306316369Y-53220833D01*
X306459226Y-53125595D01*
X306649702Y-53077976D01*
X307030654Y-53077976D01*
X307125892Y-53125595D01*
X307173511Y-53173214D01*
X307221130Y-53268452D01*
X307221130Y-53458928D01*
X307173511Y-53554166D01*
X307125892Y-53601785D01*
X307030654Y-53649404D01*
X306792559Y-53649404D01*
X306697321Y-53601785D01*
X306649702Y-53554166D01*
X306602083Y-53458928D01*
X306602083Y-53268452D01*
X306649702Y-53173214D01*
X306697321Y-53125595D01*
X306792559Y-53077976D01*
X328652380Y-57523214D02*
X327652380Y-57523214D01*
X327652380Y-57761309D01*
X327700000Y-57904166D01*
X327795238Y-57999404D01*
X327890476Y-58047023D01*
X328080952Y-58094642D01*
X328223809Y-58094642D01*
X328414285Y-58047023D01*
X328509523Y-57999404D01*
X328604761Y-57904166D01*
X328652380Y-57761309D01*
X328652380Y-57523214D01*
X327652380Y-58951785D02*
X327652380Y-58761309D01*
X327700000Y-58666071D01*
X327747619Y-58618452D01*
X327890476Y-58523214D01*
X328080952Y-58475595D01*
X328461904Y-58475595D01*
X328557142Y-58523214D01*
X328604761Y-58570833D01*
X328652380Y-58666071D01*
X328652380Y-58856547D01*
X328604761Y-58951785D01*
X328557142Y-58999404D01*
X328461904Y-59047023D01*
X328223809Y-59047023D01*
X328128571Y-58999404D01*
X328080952Y-58951785D01*
X328033333Y-58856547D01*
X328033333Y-58666071D01*
X328080952Y-58570833D01*
X328128571Y-58523214D01*
X328223809Y-58475595D01*
X327652380Y-59951785D02*
X327652380Y-59475595D01*
X328128571Y-59427976D01*
X328080952Y-59475595D01*
X328033333Y-59570833D01*
X328033333Y-59808928D01*
X328080952Y-59904166D01*
X328128571Y-59951785D01*
X328223809Y-59999404D01*
X328461904Y-59999404D01*
X328557142Y-59951785D01*
X328604761Y-59904166D01*
X328652380Y-59808928D01*
X328652380Y-59570833D01*
X328604761Y-59475595D01*
X328557142Y-59427976D01*
X315539285Y-120721130D02*
X315539285Y-119721130D01*
X315301190Y-119721130D01*
X315158333Y-119768750D01*
X315063095Y-119863988D01*
X315015476Y-119959226D01*
X314967857Y-120149702D01*
X314967857Y-120292559D01*
X315015476Y-120483035D01*
X315063095Y-120578273D01*
X315158333Y-120673511D01*
X315301190Y-120721130D01*
X315539285Y-120721130D01*
X314110714Y-119721130D02*
X314301190Y-119721130D01*
X314396428Y-119768750D01*
X314444047Y-119816369D01*
X314539285Y-119959226D01*
X314586904Y-120149702D01*
X314586904Y-120530654D01*
X314539285Y-120625892D01*
X314491666Y-120673511D01*
X314396428Y-120721130D01*
X314205952Y-120721130D01*
X314110714Y-120673511D01*
X314063095Y-120625892D01*
X314015476Y-120530654D01*
X314015476Y-120292559D01*
X314063095Y-120197321D01*
X314110714Y-120149702D01*
X314205952Y-120102083D01*
X314396428Y-120102083D01*
X314491666Y-120149702D01*
X314539285Y-120197321D01*
X314586904Y-120292559D01*
X313682142Y-119721130D02*
X313063095Y-119721130D01*
X313396428Y-120102083D01*
X313253571Y-120102083D01*
X313158333Y-120149702D01*
X313110714Y-120197321D01*
X313063095Y-120292559D01*
X313063095Y-120530654D01*
X313110714Y-120625892D01*
X313158333Y-120673511D01*
X313253571Y-120721130D01*
X313539285Y-120721130D01*
X313634523Y-120673511D01*
X313682142Y-120625892D01*
X296489285Y-120721130D02*
X296489285Y-119721130D01*
X296251190Y-119721130D01*
X296108333Y-119768750D01*
X296013095Y-119863988D01*
X295965476Y-119959226D01*
X295917857Y-120149702D01*
X295917857Y-120292559D01*
X295965476Y-120483035D01*
X296013095Y-120578273D01*
X296108333Y-120673511D01*
X296251190Y-120721130D01*
X296489285Y-120721130D01*
X295060714Y-119721130D02*
X295251190Y-119721130D01*
X295346428Y-119768750D01*
X295394047Y-119816369D01*
X295489285Y-119959226D01*
X295536904Y-120149702D01*
X295536904Y-120530654D01*
X295489285Y-120625892D01*
X295441666Y-120673511D01*
X295346428Y-120721130D01*
X295155952Y-120721130D01*
X295060714Y-120673511D01*
X295013095Y-120625892D01*
X294965476Y-120530654D01*
X294965476Y-120292559D01*
X295013095Y-120197321D01*
X295060714Y-120149702D01*
X295155952Y-120102083D01*
X295346428Y-120102083D01*
X295441666Y-120149702D01*
X295489285Y-120197321D01*
X295536904Y-120292559D01*
X294584523Y-119816369D02*
X294536904Y-119768750D01*
X294441666Y-119721130D01*
X294203571Y-119721130D01*
X294108333Y-119768750D01*
X294060714Y-119816369D01*
X294013095Y-119911607D01*
X294013095Y-120006845D01*
X294060714Y-120149702D01*
X294632142Y-120721130D01*
X294013095Y-120721130D01*
X277439285Y-120721130D02*
X277439285Y-119721130D01*
X277201190Y-119721130D01*
X277058333Y-119768750D01*
X276963095Y-119863988D01*
X276915476Y-119959226D01*
X276867857Y-120149702D01*
X276867857Y-120292559D01*
X276915476Y-120483035D01*
X276963095Y-120578273D01*
X277058333Y-120673511D01*
X277201190Y-120721130D01*
X277439285Y-120721130D01*
X276010714Y-119721130D02*
X276201190Y-119721130D01*
X276296428Y-119768750D01*
X276344047Y-119816369D01*
X276439285Y-119959226D01*
X276486904Y-120149702D01*
X276486904Y-120530654D01*
X276439285Y-120625892D01*
X276391666Y-120673511D01*
X276296428Y-120721130D01*
X276105952Y-120721130D01*
X276010714Y-120673511D01*
X275963095Y-120625892D01*
X275915476Y-120530654D01*
X275915476Y-120292559D01*
X275963095Y-120197321D01*
X276010714Y-120149702D01*
X276105952Y-120102083D01*
X276296428Y-120102083D01*
X276391666Y-120149702D01*
X276439285Y-120197321D01*
X276486904Y-120292559D01*
X274963095Y-120721130D02*
X275534523Y-120721130D01*
X275248809Y-120721130D02*
X275248809Y-119721130D01*
X275344047Y-119863988D01*
X275439285Y-119959226D01*
X275534523Y-120006845D01*
X251245535Y-115958630D02*
X251245535Y-114958630D01*
X251007440Y-114958630D01*
X250864583Y-115006250D01*
X250769345Y-115101488D01*
X250721726Y-115196726D01*
X250674107Y-115387202D01*
X250674107Y-115530059D01*
X250721726Y-115720535D01*
X250769345Y-115815773D01*
X250864583Y-115911011D01*
X251007440Y-115958630D01*
X251245535Y-115958630D01*
X249816964Y-114958630D02*
X250007440Y-114958630D01*
X250102678Y-115006250D01*
X250150297Y-115053869D01*
X250245535Y-115196726D01*
X250293154Y-115387202D01*
X250293154Y-115768154D01*
X250245535Y-115863392D01*
X250197916Y-115911011D01*
X250102678Y-115958630D01*
X249912202Y-115958630D01*
X249816964Y-115911011D01*
X249769345Y-115863392D01*
X249721726Y-115768154D01*
X249721726Y-115530059D01*
X249769345Y-115434821D01*
X249816964Y-115387202D01*
X249912202Y-115339583D01*
X250102678Y-115339583D01*
X250197916Y-115387202D01*
X250245535Y-115434821D01*
X250293154Y-115530059D01*
X249102678Y-114958630D02*
X249007440Y-114958630D01*
X248912202Y-115006250D01*
X248864583Y-115053869D01*
X248816964Y-115149107D01*
X248769345Y-115339583D01*
X248769345Y-115577678D01*
X248816964Y-115768154D01*
X248864583Y-115863392D01*
X248912202Y-115911011D01*
X249007440Y-115958630D01*
X249102678Y-115958630D01*
X249197916Y-115911011D01*
X249245535Y-115863392D01*
X249293154Y-115768154D01*
X249340773Y-115577678D01*
X249340773Y-115339583D01*
X249293154Y-115149107D01*
X249245535Y-115053869D01*
X249197916Y-115006250D01*
X249102678Y-114958630D01*
X227433035Y-115958630D02*
X227433035Y-114958630D01*
X227194940Y-114958630D01*
X227052083Y-115006250D01*
X226956845Y-115101488D01*
X226909226Y-115196726D01*
X226861607Y-115387202D01*
X226861607Y-115530059D01*
X226909226Y-115720535D01*
X226956845Y-115815773D01*
X227052083Y-115911011D01*
X227194940Y-115958630D01*
X227433035Y-115958630D01*
X225956845Y-114958630D02*
X226433035Y-114958630D01*
X226480654Y-115434821D01*
X226433035Y-115387202D01*
X226337797Y-115339583D01*
X226099702Y-115339583D01*
X226004464Y-115387202D01*
X225956845Y-115434821D01*
X225909226Y-115530059D01*
X225909226Y-115768154D01*
X225956845Y-115863392D01*
X226004464Y-115911011D01*
X226099702Y-115958630D01*
X226337797Y-115958630D01*
X226433035Y-115911011D01*
X226480654Y-115863392D01*
X225433035Y-115958630D02*
X225242559Y-115958630D01*
X225147321Y-115911011D01*
X225099702Y-115863392D01*
X225004464Y-115720535D01*
X224956845Y-115530059D01*
X224956845Y-115149107D01*
X225004464Y-115053869D01*
X225052083Y-115006250D01*
X225147321Y-114958630D01*
X225337797Y-114958630D01*
X225433035Y-115006250D01*
X225480654Y-115053869D01*
X225528273Y-115149107D01*
X225528273Y-115387202D01*
X225480654Y-115482440D01*
X225433035Y-115530059D01*
X225337797Y-115577678D01*
X225147321Y-115577678D01*
X225052083Y-115530059D01*
X225004464Y-115482440D01*
X224956845Y-115387202D01*
X155995535Y-115958630D02*
X155995535Y-114958630D01*
X155757440Y-114958630D01*
X155614583Y-115006250D01*
X155519345Y-115101488D01*
X155471726Y-115196726D01*
X155424107Y-115387202D01*
X155424107Y-115530059D01*
X155471726Y-115720535D01*
X155519345Y-115815773D01*
X155614583Y-115911011D01*
X155757440Y-115958630D01*
X155995535Y-115958630D01*
X154519345Y-114958630D02*
X154995535Y-114958630D01*
X155043154Y-115434821D01*
X154995535Y-115387202D01*
X154900297Y-115339583D01*
X154662202Y-115339583D01*
X154566964Y-115387202D01*
X154519345Y-115434821D01*
X154471726Y-115530059D01*
X154471726Y-115768154D01*
X154519345Y-115863392D01*
X154566964Y-115911011D01*
X154662202Y-115958630D01*
X154900297Y-115958630D01*
X154995535Y-115911011D01*
X155043154Y-115863392D01*
X153900297Y-115387202D02*
X153995535Y-115339583D01*
X154043154Y-115291964D01*
X154090773Y-115196726D01*
X154090773Y-115149107D01*
X154043154Y-115053869D01*
X153995535Y-115006250D01*
X153900297Y-114958630D01*
X153709821Y-114958630D01*
X153614583Y-115006250D01*
X153566964Y-115053869D01*
X153519345Y-115149107D01*
X153519345Y-115196726D01*
X153566964Y-115291964D01*
X153614583Y-115339583D01*
X153709821Y-115387202D01*
X153900297Y-115387202D01*
X153995535Y-115434821D01*
X154043154Y-115482440D01*
X154090773Y-115577678D01*
X154090773Y-115768154D01*
X154043154Y-115863392D01*
X153995535Y-115911011D01*
X153900297Y-115958630D01*
X153709821Y-115958630D01*
X153614583Y-115911011D01*
X153566964Y-115863392D01*
X153519345Y-115768154D01*
X153519345Y-115577678D01*
X153566964Y-115482440D01*
X153614583Y-115434821D01*
X153709821Y-115387202D01*
X84558035Y-115958630D02*
X84558035Y-114958630D01*
X84319940Y-114958630D01*
X84177083Y-115006250D01*
X84081845Y-115101488D01*
X84034226Y-115196726D01*
X83986607Y-115387202D01*
X83986607Y-115530059D01*
X84034226Y-115720535D01*
X84081845Y-115815773D01*
X84177083Y-115911011D01*
X84319940Y-115958630D01*
X84558035Y-115958630D01*
X83081845Y-114958630D02*
X83558035Y-114958630D01*
X83605654Y-115434821D01*
X83558035Y-115387202D01*
X83462797Y-115339583D01*
X83224702Y-115339583D01*
X83129464Y-115387202D01*
X83081845Y-115434821D01*
X83034226Y-115530059D01*
X83034226Y-115768154D01*
X83081845Y-115863392D01*
X83129464Y-115911011D01*
X83224702Y-115958630D01*
X83462797Y-115958630D01*
X83558035Y-115911011D01*
X83605654Y-115863392D01*
X82700892Y-114958630D02*
X82034226Y-114958630D01*
X82462797Y-115958630D01*
X63920535Y-111164880D02*
X63920535Y-110164880D01*
X63682440Y-110164880D01*
X63539583Y-110212500D01*
X63444345Y-110307738D01*
X63396726Y-110402976D01*
X63349107Y-110593452D01*
X63349107Y-110736309D01*
X63396726Y-110926785D01*
X63444345Y-111022023D01*
X63539583Y-111117261D01*
X63682440Y-111164880D01*
X63920535Y-111164880D01*
X62444345Y-110164880D02*
X62920535Y-110164880D01*
X62968154Y-110641071D01*
X62920535Y-110593452D01*
X62825297Y-110545833D01*
X62587202Y-110545833D01*
X62491964Y-110593452D01*
X62444345Y-110641071D01*
X62396726Y-110736309D01*
X62396726Y-110974404D01*
X62444345Y-111069642D01*
X62491964Y-111117261D01*
X62587202Y-111164880D01*
X62825297Y-111164880D01*
X62920535Y-111117261D01*
X62968154Y-111069642D01*
X61539583Y-110164880D02*
X61730059Y-110164880D01*
X61825297Y-110212500D01*
X61872916Y-110260119D01*
X61968154Y-110402976D01*
X62015773Y-110593452D01*
X62015773Y-110974404D01*
X61968154Y-111069642D01*
X61920535Y-111117261D01*
X61825297Y-111164880D01*
X61634821Y-111164880D01*
X61539583Y-111117261D01*
X61491964Y-111069642D01*
X61444345Y-110974404D01*
X61444345Y-110736309D01*
X61491964Y-110641071D01*
X61539583Y-110593452D01*
X61634821Y-110545833D01*
X61825297Y-110545833D01*
X61920535Y-110593452D01*
X61968154Y-110641071D01*
X62015773Y-110736309D01*
X40108035Y-111958630D02*
X40108035Y-110958630D01*
X39869940Y-110958630D01*
X39727083Y-111006250D01*
X39631845Y-111101488D01*
X39584226Y-111196726D01*
X39536607Y-111387202D01*
X39536607Y-111530059D01*
X39584226Y-111720535D01*
X39631845Y-111815773D01*
X39727083Y-111911011D01*
X39869940Y-111958630D01*
X40108035Y-111958630D01*
X38631845Y-110958630D02*
X39108035Y-110958630D01*
X39155654Y-111434821D01*
X39108035Y-111387202D01*
X39012797Y-111339583D01*
X38774702Y-111339583D01*
X38679464Y-111387202D01*
X38631845Y-111434821D01*
X38584226Y-111530059D01*
X38584226Y-111768154D01*
X38631845Y-111863392D01*
X38679464Y-111911011D01*
X38774702Y-111958630D01*
X39012797Y-111958630D01*
X39108035Y-111911011D01*
X39155654Y-111863392D01*
X37679464Y-110958630D02*
X38155654Y-110958630D01*
X38203273Y-111434821D01*
X38155654Y-111387202D01*
X38060416Y-111339583D01*
X37822321Y-111339583D01*
X37727083Y-111387202D01*
X37679464Y-111434821D01*
X37631845Y-111530059D01*
X37631845Y-111768154D01*
X37679464Y-111863392D01*
X37727083Y-111911011D01*
X37822321Y-111958630D01*
X38060416Y-111958630D01*
X38155654Y-111911011D01*
X38203273Y-111863392D01*
X296489285Y-101671130D02*
X296489285Y-100671130D01*
X296251190Y-100671130D01*
X296108333Y-100718750D01*
X296013095Y-100813988D01*
X295965476Y-100909226D01*
X295917857Y-101099702D01*
X295917857Y-101242559D01*
X295965476Y-101433035D01*
X296013095Y-101528273D01*
X296108333Y-101623511D01*
X296251190Y-101671130D01*
X296489285Y-101671130D01*
X295013095Y-100671130D02*
X295489285Y-100671130D01*
X295536904Y-101147321D01*
X295489285Y-101099702D01*
X295394047Y-101052083D01*
X295155952Y-101052083D01*
X295060714Y-101099702D01*
X295013095Y-101147321D01*
X294965476Y-101242559D01*
X294965476Y-101480654D01*
X295013095Y-101575892D01*
X295060714Y-101623511D01*
X295155952Y-101671130D01*
X295394047Y-101671130D01*
X295489285Y-101623511D01*
X295536904Y-101575892D01*
X294108333Y-101004464D02*
X294108333Y-101671130D01*
X294346428Y-100623511D02*
X294584523Y-101337797D01*
X293965476Y-101337797D01*
X270295535Y-96908630D02*
X270295535Y-95908630D01*
X270057440Y-95908630D01*
X269914583Y-95956250D01*
X269819345Y-96051488D01*
X269771726Y-96146726D01*
X269724107Y-96337202D01*
X269724107Y-96480059D01*
X269771726Y-96670535D01*
X269819345Y-96765773D01*
X269914583Y-96861011D01*
X270057440Y-96908630D01*
X270295535Y-96908630D01*
X268819345Y-95908630D02*
X269295535Y-95908630D01*
X269343154Y-96384821D01*
X269295535Y-96337202D01*
X269200297Y-96289583D01*
X268962202Y-96289583D01*
X268866964Y-96337202D01*
X268819345Y-96384821D01*
X268771726Y-96480059D01*
X268771726Y-96718154D01*
X268819345Y-96813392D01*
X268866964Y-96861011D01*
X268962202Y-96908630D01*
X269200297Y-96908630D01*
X269295535Y-96861011D01*
X269343154Y-96813392D01*
X268438392Y-95908630D02*
X267819345Y-95908630D01*
X268152678Y-96289583D01*
X268009821Y-96289583D01*
X267914583Y-96337202D01*
X267866964Y-96384821D01*
X267819345Y-96480059D01*
X267819345Y-96718154D01*
X267866964Y-96813392D01*
X267914583Y-96861011D01*
X268009821Y-96908630D01*
X268295535Y-96908630D01*
X268390773Y-96861011D01*
X268438392Y-96813392D01*
X248864285Y-96908630D02*
X248864285Y-95908630D01*
X248626190Y-95908630D01*
X248483333Y-95956250D01*
X248388095Y-96051488D01*
X248340476Y-96146726D01*
X248292857Y-96337202D01*
X248292857Y-96480059D01*
X248340476Y-96670535D01*
X248388095Y-96765773D01*
X248483333Y-96861011D01*
X248626190Y-96908630D01*
X248864285Y-96908630D01*
X247388095Y-95908630D02*
X247864285Y-95908630D01*
X247911904Y-96384821D01*
X247864285Y-96337202D01*
X247769047Y-96289583D01*
X247530952Y-96289583D01*
X247435714Y-96337202D01*
X247388095Y-96384821D01*
X247340476Y-96480059D01*
X247340476Y-96718154D01*
X247388095Y-96813392D01*
X247435714Y-96861011D01*
X247530952Y-96908630D01*
X247769047Y-96908630D01*
X247864285Y-96861011D01*
X247911904Y-96813392D01*
X246959523Y-96003869D02*
X246911904Y-95956250D01*
X246816666Y-95908630D01*
X246578571Y-95908630D01*
X246483333Y-95956250D01*
X246435714Y-96003869D01*
X246388095Y-96099107D01*
X246388095Y-96194345D01*
X246435714Y-96337202D01*
X247007142Y-96908630D01*
X246388095Y-96908630D01*
X229814285Y-96908630D02*
X229814285Y-95908630D01*
X229576190Y-95908630D01*
X229433333Y-95956250D01*
X229338095Y-96051488D01*
X229290476Y-96146726D01*
X229242857Y-96337202D01*
X229242857Y-96480059D01*
X229290476Y-96670535D01*
X229338095Y-96765773D01*
X229433333Y-96861011D01*
X229576190Y-96908630D01*
X229814285Y-96908630D01*
X228338095Y-95908630D02*
X228814285Y-95908630D01*
X228861904Y-96384821D01*
X228814285Y-96337202D01*
X228719047Y-96289583D01*
X228480952Y-96289583D01*
X228385714Y-96337202D01*
X228338095Y-96384821D01*
X228290476Y-96480059D01*
X228290476Y-96718154D01*
X228338095Y-96813392D01*
X228385714Y-96861011D01*
X228480952Y-96908630D01*
X228719047Y-96908630D01*
X228814285Y-96861011D01*
X228861904Y-96813392D01*
X227338095Y-96908630D02*
X227909523Y-96908630D01*
X227623809Y-96908630D02*
X227623809Y-95908630D01*
X227719047Y-96051488D01*
X227814285Y-96146726D01*
X227909523Y-96194345D01*
X210764285Y-96908630D02*
X210764285Y-95908630D01*
X210526190Y-95908630D01*
X210383333Y-95956250D01*
X210288095Y-96051488D01*
X210240476Y-96146726D01*
X210192857Y-96337202D01*
X210192857Y-96480059D01*
X210240476Y-96670535D01*
X210288095Y-96765773D01*
X210383333Y-96861011D01*
X210526190Y-96908630D01*
X210764285Y-96908630D01*
X209288095Y-95908630D02*
X209764285Y-95908630D01*
X209811904Y-96384821D01*
X209764285Y-96337202D01*
X209669047Y-96289583D01*
X209430952Y-96289583D01*
X209335714Y-96337202D01*
X209288095Y-96384821D01*
X209240476Y-96480059D01*
X209240476Y-96718154D01*
X209288095Y-96813392D01*
X209335714Y-96861011D01*
X209430952Y-96908630D01*
X209669047Y-96908630D01*
X209764285Y-96861011D01*
X209811904Y-96813392D01*
X208621428Y-95908630D02*
X208526190Y-95908630D01*
X208430952Y-95956250D01*
X208383333Y-96003869D01*
X208335714Y-96099107D01*
X208288095Y-96289583D01*
X208288095Y-96527678D01*
X208335714Y-96718154D01*
X208383333Y-96813392D01*
X208430952Y-96861011D01*
X208526190Y-96908630D01*
X208621428Y-96908630D01*
X208716666Y-96861011D01*
X208764285Y-96813392D01*
X208811904Y-96718154D01*
X208859523Y-96527678D01*
X208859523Y-96289583D01*
X208811904Y-96099107D01*
X208764285Y-96003869D01*
X208716666Y-95956250D01*
X208621428Y-95908630D01*
X191714285Y-96908630D02*
X191714285Y-95908630D01*
X191476190Y-95908630D01*
X191333333Y-95956250D01*
X191238095Y-96051488D01*
X191190476Y-96146726D01*
X191142857Y-96337202D01*
X191142857Y-96480059D01*
X191190476Y-96670535D01*
X191238095Y-96765773D01*
X191333333Y-96861011D01*
X191476190Y-96908630D01*
X191714285Y-96908630D01*
X190285714Y-96241964D02*
X190285714Y-96908630D01*
X190523809Y-95861011D02*
X190761904Y-96575297D01*
X190142857Y-96575297D01*
X189714285Y-96908630D02*
X189523809Y-96908630D01*
X189428571Y-96861011D01*
X189380952Y-96813392D01*
X189285714Y-96670535D01*
X189238095Y-96480059D01*
X189238095Y-96099107D01*
X189285714Y-96003869D01*
X189333333Y-95956250D01*
X189428571Y-95908630D01*
X189619047Y-95908630D01*
X189714285Y-95956250D01*
X189761904Y-96003869D01*
X189809523Y-96099107D01*
X189809523Y-96337202D01*
X189761904Y-96432440D01*
X189714285Y-96480059D01*
X189619047Y-96527678D01*
X189428571Y-96527678D01*
X189333333Y-96480059D01*
X189285714Y-96432440D01*
X189238095Y-96337202D01*
X172664285Y-96908630D02*
X172664285Y-95908630D01*
X172426190Y-95908630D01*
X172283333Y-95956250D01*
X172188095Y-96051488D01*
X172140476Y-96146726D01*
X172092857Y-96337202D01*
X172092857Y-96480059D01*
X172140476Y-96670535D01*
X172188095Y-96765773D01*
X172283333Y-96861011D01*
X172426190Y-96908630D01*
X172664285Y-96908630D01*
X171235714Y-96241964D02*
X171235714Y-96908630D01*
X171473809Y-95861011D02*
X171711904Y-96575297D01*
X171092857Y-96575297D01*
X170569047Y-96337202D02*
X170664285Y-96289583D01*
X170711904Y-96241964D01*
X170759523Y-96146726D01*
X170759523Y-96099107D01*
X170711904Y-96003869D01*
X170664285Y-95956250D01*
X170569047Y-95908630D01*
X170378571Y-95908630D01*
X170283333Y-95956250D01*
X170235714Y-96003869D01*
X170188095Y-96099107D01*
X170188095Y-96146726D01*
X170235714Y-96241964D01*
X170283333Y-96289583D01*
X170378571Y-96337202D01*
X170569047Y-96337202D01*
X170664285Y-96384821D01*
X170711904Y-96432440D01*
X170759523Y-96527678D01*
X170759523Y-96718154D01*
X170711904Y-96813392D01*
X170664285Y-96861011D01*
X170569047Y-96908630D01*
X170378571Y-96908630D01*
X170283333Y-96861011D01*
X170235714Y-96813392D01*
X170188095Y-96718154D01*
X170188095Y-96527678D01*
X170235714Y-96432440D01*
X170283333Y-96384821D01*
X170378571Y-96337202D01*
X153614285Y-96908630D02*
X153614285Y-95908630D01*
X153376190Y-95908630D01*
X153233333Y-95956250D01*
X153138095Y-96051488D01*
X153090476Y-96146726D01*
X153042857Y-96337202D01*
X153042857Y-96480059D01*
X153090476Y-96670535D01*
X153138095Y-96765773D01*
X153233333Y-96861011D01*
X153376190Y-96908630D01*
X153614285Y-96908630D01*
X152185714Y-96241964D02*
X152185714Y-96908630D01*
X152423809Y-95861011D02*
X152661904Y-96575297D01*
X152042857Y-96575297D01*
X151757142Y-95908630D02*
X151090476Y-95908630D01*
X151519047Y-96908630D01*
X134564285Y-96908630D02*
X134564285Y-95908630D01*
X134326190Y-95908630D01*
X134183333Y-95956250D01*
X134088095Y-96051488D01*
X134040476Y-96146726D01*
X133992857Y-96337202D01*
X133992857Y-96480059D01*
X134040476Y-96670535D01*
X134088095Y-96765773D01*
X134183333Y-96861011D01*
X134326190Y-96908630D01*
X134564285Y-96908630D01*
X133135714Y-96241964D02*
X133135714Y-96908630D01*
X133373809Y-95861011D02*
X133611904Y-96575297D01*
X132992857Y-96575297D01*
X132183333Y-95908630D02*
X132373809Y-95908630D01*
X132469047Y-95956250D01*
X132516666Y-96003869D01*
X132611904Y-96146726D01*
X132659523Y-96337202D01*
X132659523Y-96718154D01*
X132611904Y-96813392D01*
X132564285Y-96861011D01*
X132469047Y-96908630D01*
X132278571Y-96908630D01*
X132183333Y-96861011D01*
X132135714Y-96813392D01*
X132088095Y-96718154D01*
X132088095Y-96480059D01*
X132135714Y-96384821D01*
X132183333Y-96337202D01*
X132278571Y-96289583D01*
X132469047Y-96289583D01*
X132564285Y-96337202D01*
X132611904Y-96384821D01*
X132659523Y-96480059D01*
X115514285Y-96908630D02*
X115514285Y-95908630D01*
X115276190Y-95908630D01*
X115133333Y-95956250D01*
X115038095Y-96051488D01*
X114990476Y-96146726D01*
X114942857Y-96337202D01*
X114942857Y-96480059D01*
X114990476Y-96670535D01*
X115038095Y-96765773D01*
X115133333Y-96861011D01*
X115276190Y-96908630D01*
X115514285Y-96908630D01*
X114085714Y-96241964D02*
X114085714Y-96908630D01*
X114323809Y-95861011D02*
X114561904Y-96575297D01*
X113942857Y-96575297D01*
X113085714Y-95908630D02*
X113561904Y-95908630D01*
X113609523Y-96384821D01*
X113561904Y-96337202D01*
X113466666Y-96289583D01*
X113228571Y-96289583D01*
X113133333Y-96337202D01*
X113085714Y-96384821D01*
X113038095Y-96480059D01*
X113038095Y-96718154D01*
X113085714Y-96813392D01*
X113133333Y-96861011D01*
X113228571Y-96908630D01*
X113466666Y-96908630D01*
X113561904Y-96861011D01*
X113609523Y-96813392D01*
X96464285Y-96908630D02*
X96464285Y-95908630D01*
X96226190Y-95908630D01*
X96083333Y-95956250D01*
X95988095Y-96051488D01*
X95940476Y-96146726D01*
X95892857Y-96337202D01*
X95892857Y-96480059D01*
X95940476Y-96670535D01*
X95988095Y-96765773D01*
X96083333Y-96861011D01*
X96226190Y-96908630D01*
X96464285Y-96908630D01*
X95035714Y-96241964D02*
X95035714Y-96908630D01*
X95273809Y-95861011D02*
X95511904Y-96575297D01*
X94892857Y-96575297D01*
X94083333Y-96241964D02*
X94083333Y-96908630D01*
X94321428Y-95861011D02*
X94559523Y-96575297D01*
X93940476Y-96575297D01*
X77414285Y-96908630D02*
X77414285Y-95908630D01*
X77176190Y-95908630D01*
X77033333Y-95956250D01*
X76938095Y-96051488D01*
X76890476Y-96146726D01*
X76842857Y-96337202D01*
X76842857Y-96480059D01*
X76890476Y-96670535D01*
X76938095Y-96765773D01*
X77033333Y-96861011D01*
X77176190Y-96908630D01*
X77414285Y-96908630D01*
X75985714Y-96241964D02*
X75985714Y-96908630D01*
X76223809Y-95861011D02*
X76461904Y-96575297D01*
X75842857Y-96575297D01*
X75557142Y-95908630D02*
X74938095Y-95908630D01*
X75271428Y-96289583D01*
X75128571Y-96289583D01*
X75033333Y-96337202D01*
X74985714Y-96384821D01*
X74938095Y-96480059D01*
X74938095Y-96718154D01*
X74985714Y-96813392D01*
X75033333Y-96861011D01*
X75128571Y-96908630D01*
X75414285Y-96908630D01*
X75509523Y-96861011D01*
X75557142Y-96813392D01*
X46458035Y-96908630D02*
X46458035Y-95908630D01*
X46219940Y-95908630D01*
X46077083Y-95956250D01*
X45981845Y-96051488D01*
X45934226Y-96146726D01*
X45886607Y-96337202D01*
X45886607Y-96480059D01*
X45934226Y-96670535D01*
X45981845Y-96765773D01*
X46077083Y-96861011D01*
X46219940Y-96908630D01*
X46458035Y-96908630D01*
X45029464Y-96241964D02*
X45029464Y-96908630D01*
X45267559Y-95861011D02*
X45505654Y-96575297D01*
X44886607Y-96575297D01*
X44553273Y-96003869D02*
X44505654Y-95956250D01*
X44410416Y-95908630D01*
X44172321Y-95908630D01*
X44077083Y-95956250D01*
X44029464Y-96003869D01*
X43981845Y-96099107D01*
X43981845Y-96194345D01*
X44029464Y-96337202D01*
X44600892Y-96908630D01*
X43981845Y-96908630D01*
X289345535Y-77858630D02*
X289345535Y-76858630D01*
X289107440Y-76858630D01*
X288964583Y-76906250D01*
X288869345Y-77001488D01*
X288821726Y-77096726D01*
X288774107Y-77287202D01*
X288774107Y-77430059D01*
X288821726Y-77620535D01*
X288869345Y-77715773D01*
X288964583Y-77811011D01*
X289107440Y-77858630D01*
X289345535Y-77858630D01*
X287916964Y-77191964D02*
X287916964Y-77858630D01*
X288155059Y-76811011D02*
X288393154Y-77525297D01*
X287774107Y-77525297D01*
X286869345Y-77858630D02*
X287440773Y-77858630D01*
X287155059Y-77858630D02*
X287155059Y-76858630D01*
X287250297Y-77001488D01*
X287345535Y-77096726D01*
X287440773Y-77144345D01*
X258389285Y-77858630D02*
X258389285Y-76858630D01*
X258151190Y-76858630D01*
X258008333Y-76906250D01*
X257913095Y-77001488D01*
X257865476Y-77096726D01*
X257817857Y-77287202D01*
X257817857Y-77430059D01*
X257865476Y-77620535D01*
X257913095Y-77715773D01*
X258008333Y-77811011D01*
X258151190Y-77858630D01*
X258389285Y-77858630D01*
X256960714Y-77191964D02*
X256960714Y-77858630D01*
X257198809Y-76811011D02*
X257436904Y-77525297D01*
X256817857Y-77525297D01*
X256246428Y-76858630D02*
X256151190Y-76858630D01*
X256055952Y-76906250D01*
X256008333Y-76953869D01*
X255960714Y-77049107D01*
X255913095Y-77239583D01*
X255913095Y-77477678D01*
X255960714Y-77668154D01*
X256008333Y-77763392D01*
X256055952Y-77811011D01*
X256151190Y-77858630D01*
X256246428Y-77858630D01*
X256341666Y-77811011D01*
X256389285Y-77763392D01*
X256436904Y-77668154D01*
X256484523Y-77477678D01*
X256484523Y-77239583D01*
X256436904Y-77049107D01*
X256389285Y-76953869D01*
X256341666Y-76906250D01*
X256246428Y-76858630D01*
X239339285Y-77858630D02*
X239339285Y-76858630D01*
X239101190Y-76858630D01*
X238958333Y-76906250D01*
X238863095Y-77001488D01*
X238815476Y-77096726D01*
X238767857Y-77287202D01*
X238767857Y-77430059D01*
X238815476Y-77620535D01*
X238863095Y-77715773D01*
X238958333Y-77811011D01*
X239101190Y-77858630D01*
X239339285Y-77858630D01*
X238434523Y-76858630D02*
X237815476Y-76858630D01*
X238148809Y-77239583D01*
X238005952Y-77239583D01*
X237910714Y-77287202D01*
X237863095Y-77334821D01*
X237815476Y-77430059D01*
X237815476Y-77668154D01*
X237863095Y-77763392D01*
X237910714Y-77811011D01*
X238005952Y-77858630D01*
X238291666Y-77858630D01*
X238386904Y-77811011D01*
X238434523Y-77763392D01*
X237339285Y-77858630D02*
X237148809Y-77858630D01*
X237053571Y-77811011D01*
X237005952Y-77763392D01*
X236910714Y-77620535D01*
X236863095Y-77430059D01*
X236863095Y-77049107D01*
X236910714Y-76953869D01*
X236958333Y-76906250D01*
X237053571Y-76858630D01*
X237244047Y-76858630D01*
X237339285Y-76906250D01*
X237386904Y-76953869D01*
X237434523Y-77049107D01*
X237434523Y-77287202D01*
X237386904Y-77382440D01*
X237339285Y-77430059D01*
X237244047Y-77477678D01*
X237053571Y-77477678D01*
X236958333Y-77430059D01*
X236910714Y-77382440D01*
X236863095Y-77287202D01*
X220289285Y-77858630D02*
X220289285Y-76858630D01*
X220051190Y-76858630D01*
X219908333Y-76906250D01*
X219813095Y-77001488D01*
X219765476Y-77096726D01*
X219717857Y-77287202D01*
X219717857Y-77430059D01*
X219765476Y-77620535D01*
X219813095Y-77715773D01*
X219908333Y-77811011D01*
X220051190Y-77858630D01*
X220289285Y-77858630D01*
X219384523Y-76858630D02*
X218765476Y-76858630D01*
X219098809Y-77239583D01*
X218955952Y-77239583D01*
X218860714Y-77287202D01*
X218813095Y-77334821D01*
X218765476Y-77430059D01*
X218765476Y-77668154D01*
X218813095Y-77763392D01*
X218860714Y-77811011D01*
X218955952Y-77858630D01*
X219241666Y-77858630D01*
X219336904Y-77811011D01*
X219384523Y-77763392D01*
X218194047Y-77287202D02*
X218289285Y-77239583D01*
X218336904Y-77191964D01*
X218384523Y-77096726D01*
X218384523Y-77049107D01*
X218336904Y-76953869D01*
X218289285Y-76906250D01*
X218194047Y-76858630D01*
X218003571Y-76858630D01*
X217908333Y-76906250D01*
X217860714Y-76953869D01*
X217813095Y-77049107D01*
X217813095Y-77096726D01*
X217860714Y-77191964D01*
X217908333Y-77239583D01*
X218003571Y-77287202D01*
X218194047Y-77287202D01*
X218289285Y-77334821D01*
X218336904Y-77382440D01*
X218384523Y-77477678D01*
X218384523Y-77668154D01*
X218336904Y-77763392D01*
X218289285Y-77811011D01*
X218194047Y-77858630D01*
X218003571Y-77858630D01*
X217908333Y-77811011D01*
X217860714Y-77763392D01*
X217813095Y-77668154D01*
X217813095Y-77477678D01*
X217860714Y-77382440D01*
X217908333Y-77334821D01*
X218003571Y-77287202D01*
X201239285Y-77858630D02*
X201239285Y-76858630D01*
X201001190Y-76858630D01*
X200858333Y-76906250D01*
X200763095Y-77001488D01*
X200715476Y-77096726D01*
X200667857Y-77287202D01*
X200667857Y-77430059D01*
X200715476Y-77620535D01*
X200763095Y-77715773D01*
X200858333Y-77811011D01*
X201001190Y-77858630D01*
X201239285Y-77858630D01*
X200334523Y-76858630D02*
X199715476Y-76858630D01*
X200048809Y-77239583D01*
X199905952Y-77239583D01*
X199810714Y-77287202D01*
X199763095Y-77334821D01*
X199715476Y-77430059D01*
X199715476Y-77668154D01*
X199763095Y-77763392D01*
X199810714Y-77811011D01*
X199905952Y-77858630D01*
X200191666Y-77858630D01*
X200286904Y-77811011D01*
X200334523Y-77763392D01*
X199382142Y-76858630D02*
X198715476Y-76858630D01*
X199144047Y-77858630D01*
X182189285Y-77858630D02*
X182189285Y-76858630D01*
X181951190Y-76858630D01*
X181808333Y-76906250D01*
X181713095Y-77001488D01*
X181665476Y-77096726D01*
X181617857Y-77287202D01*
X181617857Y-77430059D01*
X181665476Y-77620535D01*
X181713095Y-77715773D01*
X181808333Y-77811011D01*
X181951190Y-77858630D01*
X182189285Y-77858630D01*
X181284523Y-76858630D02*
X180665476Y-76858630D01*
X180998809Y-77239583D01*
X180855952Y-77239583D01*
X180760714Y-77287202D01*
X180713095Y-77334821D01*
X180665476Y-77430059D01*
X180665476Y-77668154D01*
X180713095Y-77763392D01*
X180760714Y-77811011D01*
X180855952Y-77858630D01*
X181141666Y-77858630D01*
X181236904Y-77811011D01*
X181284523Y-77763392D01*
X179808333Y-76858630D02*
X179998809Y-76858630D01*
X180094047Y-76906250D01*
X180141666Y-76953869D01*
X180236904Y-77096726D01*
X180284523Y-77287202D01*
X180284523Y-77668154D01*
X180236904Y-77763392D01*
X180189285Y-77811011D01*
X180094047Y-77858630D01*
X179903571Y-77858630D01*
X179808333Y-77811011D01*
X179760714Y-77763392D01*
X179713095Y-77668154D01*
X179713095Y-77430059D01*
X179760714Y-77334821D01*
X179808333Y-77287202D01*
X179903571Y-77239583D01*
X180094047Y-77239583D01*
X180189285Y-77287202D01*
X180236904Y-77334821D01*
X180284523Y-77430059D01*
X163139285Y-77858630D02*
X163139285Y-76858630D01*
X162901190Y-76858630D01*
X162758333Y-76906250D01*
X162663095Y-77001488D01*
X162615476Y-77096726D01*
X162567857Y-77287202D01*
X162567857Y-77430059D01*
X162615476Y-77620535D01*
X162663095Y-77715773D01*
X162758333Y-77811011D01*
X162901190Y-77858630D01*
X163139285Y-77858630D01*
X162234523Y-76858630D02*
X161615476Y-76858630D01*
X161948809Y-77239583D01*
X161805952Y-77239583D01*
X161710714Y-77287202D01*
X161663095Y-77334821D01*
X161615476Y-77430059D01*
X161615476Y-77668154D01*
X161663095Y-77763392D01*
X161710714Y-77811011D01*
X161805952Y-77858630D01*
X162091666Y-77858630D01*
X162186904Y-77811011D01*
X162234523Y-77763392D01*
X160710714Y-76858630D02*
X161186904Y-76858630D01*
X161234523Y-77334821D01*
X161186904Y-77287202D01*
X161091666Y-77239583D01*
X160853571Y-77239583D01*
X160758333Y-77287202D01*
X160710714Y-77334821D01*
X160663095Y-77430059D01*
X160663095Y-77668154D01*
X160710714Y-77763392D01*
X160758333Y-77811011D01*
X160853571Y-77858630D01*
X161091666Y-77858630D01*
X161186904Y-77811011D01*
X161234523Y-77763392D01*
X144089285Y-77858630D02*
X144089285Y-76858630D01*
X143851190Y-76858630D01*
X143708333Y-76906250D01*
X143613095Y-77001488D01*
X143565476Y-77096726D01*
X143517857Y-77287202D01*
X143517857Y-77430059D01*
X143565476Y-77620535D01*
X143613095Y-77715773D01*
X143708333Y-77811011D01*
X143851190Y-77858630D01*
X144089285Y-77858630D01*
X143184523Y-76858630D02*
X142565476Y-76858630D01*
X142898809Y-77239583D01*
X142755952Y-77239583D01*
X142660714Y-77287202D01*
X142613095Y-77334821D01*
X142565476Y-77430059D01*
X142565476Y-77668154D01*
X142613095Y-77763392D01*
X142660714Y-77811011D01*
X142755952Y-77858630D01*
X143041666Y-77858630D01*
X143136904Y-77811011D01*
X143184523Y-77763392D01*
X141708333Y-77191964D02*
X141708333Y-77858630D01*
X141946428Y-76811011D02*
X142184523Y-77525297D01*
X141565476Y-77525297D01*
X125039285Y-77858630D02*
X125039285Y-76858630D01*
X124801190Y-76858630D01*
X124658333Y-76906250D01*
X124563095Y-77001488D01*
X124515476Y-77096726D01*
X124467857Y-77287202D01*
X124467857Y-77430059D01*
X124515476Y-77620535D01*
X124563095Y-77715773D01*
X124658333Y-77811011D01*
X124801190Y-77858630D01*
X125039285Y-77858630D01*
X124134523Y-76858630D02*
X123515476Y-76858630D01*
X123848809Y-77239583D01*
X123705952Y-77239583D01*
X123610714Y-77287202D01*
X123563095Y-77334821D01*
X123515476Y-77430059D01*
X123515476Y-77668154D01*
X123563095Y-77763392D01*
X123610714Y-77811011D01*
X123705952Y-77858630D01*
X123991666Y-77858630D01*
X124086904Y-77811011D01*
X124134523Y-77763392D01*
X123182142Y-76858630D02*
X122563095Y-76858630D01*
X122896428Y-77239583D01*
X122753571Y-77239583D01*
X122658333Y-77287202D01*
X122610714Y-77334821D01*
X122563095Y-77430059D01*
X122563095Y-77668154D01*
X122610714Y-77763392D01*
X122658333Y-77811011D01*
X122753571Y-77858630D01*
X123039285Y-77858630D01*
X123134523Y-77811011D01*
X123182142Y-77763392D01*
X105989285Y-77858630D02*
X105989285Y-76858630D01*
X105751190Y-76858630D01*
X105608333Y-76906250D01*
X105513095Y-77001488D01*
X105465476Y-77096726D01*
X105417857Y-77287202D01*
X105417857Y-77430059D01*
X105465476Y-77620535D01*
X105513095Y-77715773D01*
X105608333Y-77811011D01*
X105751190Y-77858630D01*
X105989285Y-77858630D01*
X105084523Y-76858630D02*
X104465476Y-76858630D01*
X104798809Y-77239583D01*
X104655952Y-77239583D01*
X104560714Y-77287202D01*
X104513095Y-77334821D01*
X104465476Y-77430059D01*
X104465476Y-77668154D01*
X104513095Y-77763392D01*
X104560714Y-77811011D01*
X104655952Y-77858630D01*
X104941666Y-77858630D01*
X105036904Y-77811011D01*
X105084523Y-77763392D01*
X104084523Y-76953869D02*
X104036904Y-76906250D01*
X103941666Y-76858630D01*
X103703571Y-76858630D01*
X103608333Y-76906250D01*
X103560714Y-76953869D01*
X103513095Y-77049107D01*
X103513095Y-77144345D01*
X103560714Y-77287202D01*
X104132142Y-77858630D01*
X103513095Y-77858630D01*
X86939285Y-77858630D02*
X86939285Y-76858630D01*
X86701190Y-76858630D01*
X86558333Y-76906250D01*
X86463095Y-77001488D01*
X86415476Y-77096726D01*
X86367857Y-77287202D01*
X86367857Y-77430059D01*
X86415476Y-77620535D01*
X86463095Y-77715773D01*
X86558333Y-77811011D01*
X86701190Y-77858630D01*
X86939285Y-77858630D01*
X86034523Y-76858630D02*
X85415476Y-76858630D01*
X85748809Y-77239583D01*
X85605952Y-77239583D01*
X85510714Y-77287202D01*
X85463095Y-77334821D01*
X85415476Y-77430059D01*
X85415476Y-77668154D01*
X85463095Y-77763392D01*
X85510714Y-77811011D01*
X85605952Y-77858630D01*
X85891666Y-77858630D01*
X85986904Y-77811011D01*
X86034523Y-77763392D01*
X84463095Y-77858630D02*
X85034523Y-77858630D01*
X84748809Y-77858630D02*
X84748809Y-76858630D01*
X84844047Y-77001488D01*
X84939285Y-77096726D01*
X85034523Y-77144345D01*
X67889285Y-77858630D02*
X67889285Y-76858630D01*
X67651190Y-76858630D01*
X67508333Y-76906250D01*
X67413095Y-77001488D01*
X67365476Y-77096726D01*
X67317857Y-77287202D01*
X67317857Y-77430059D01*
X67365476Y-77620535D01*
X67413095Y-77715773D01*
X67508333Y-77811011D01*
X67651190Y-77858630D01*
X67889285Y-77858630D01*
X66984523Y-76858630D02*
X66365476Y-76858630D01*
X66698809Y-77239583D01*
X66555952Y-77239583D01*
X66460714Y-77287202D01*
X66413095Y-77334821D01*
X66365476Y-77430059D01*
X66365476Y-77668154D01*
X66413095Y-77763392D01*
X66460714Y-77811011D01*
X66555952Y-77858630D01*
X66841666Y-77858630D01*
X66936904Y-77811011D01*
X66984523Y-77763392D01*
X65746428Y-76858630D02*
X65651190Y-76858630D01*
X65555952Y-76906250D01*
X65508333Y-76953869D01*
X65460714Y-77049107D01*
X65413095Y-77239583D01*
X65413095Y-77477678D01*
X65460714Y-77668154D01*
X65508333Y-77763392D01*
X65555952Y-77811011D01*
X65651190Y-77858630D01*
X65746428Y-77858630D01*
X65841666Y-77811011D01*
X65889285Y-77763392D01*
X65936904Y-77668154D01*
X65984523Y-77477678D01*
X65984523Y-77239583D01*
X65936904Y-77049107D01*
X65889285Y-76953869D01*
X65841666Y-76906250D01*
X65746428Y-76858630D01*
X41695535Y-77858630D02*
X41695535Y-76858630D01*
X41457440Y-76858630D01*
X41314583Y-76906250D01*
X41219345Y-77001488D01*
X41171726Y-77096726D01*
X41124107Y-77287202D01*
X41124107Y-77430059D01*
X41171726Y-77620535D01*
X41219345Y-77715773D01*
X41314583Y-77811011D01*
X41457440Y-77858630D01*
X41695535Y-77858630D01*
X40743154Y-76953869D02*
X40695535Y-76906250D01*
X40600297Y-76858630D01*
X40362202Y-76858630D01*
X40266964Y-76906250D01*
X40219345Y-76953869D01*
X40171726Y-77049107D01*
X40171726Y-77144345D01*
X40219345Y-77287202D01*
X40790773Y-77858630D01*
X40171726Y-77858630D01*
X39695535Y-77858630D02*
X39505059Y-77858630D01*
X39409821Y-77811011D01*
X39362202Y-77763392D01*
X39266964Y-77620535D01*
X39219345Y-77430059D01*
X39219345Y-77049107D01*
X39266964Y-76953869D01*
X39314583Y-76906250D01*
X39409821Y-76858630D01*
X39600297Y-76858630D01*
X39695535Y-76906250D01*
X39743154Y-76953869D01*
X39790773Y-77049107D01*
X39790773Y-77287202D01*
X39743154Y-77382440D01*
X39695535Y-77430059D01*
X39600297Y-77477678D01*
X39409821Y-77477678D01*
X39314583Y-77430059D01*
X39266964Y-77382440D01*
X39219345Y-77287202D01*
X296489285Y-58808630D02*
X296489285Y-57808630D01*
X296251190Y-57808630D01*
X296108333Y-57856250D01*
X296013095Y-57951488D01*
X295965476Y-58046726D01*
X295917857Y-58237202D01*
X295917857Y-58380059D01*
X295965476Y-58570535D01*
X296013095Y-58665773D01*
X296108333Y-58761011D01*
X296251190Y-58808630D01*
X296489285Y-58808630D01*
X295536904Y-57903869D02*
X295489285Y-57856250D01*
X295394047Y-57808630D01*
X295155952Y-57808630D01*
X295060714Y-57856250D01*
X295013095Y-57903869D01*
X294965476Y-57999107D01*
X294965476Y-58094345D01*
X295013095Y-58237202D01*
X295584523Y-58808630D01*
X294965476Y-58808630D01*
X294394047Y-58237202D02*
X294489285Y-58189583D01*
X294536904Y-58141964D01*
X294584523Y-58046726D01*
X294584523Y-57999107D01*
X294536904Y-57903869D01*
X294489285Y-57856250D01*
X294394047Y-57808630D01*
X294203571Y-57808630D01*
X294108333Y-57856250D01*
X294060714Y-57903869D01*
X294013095Y-57999107D01*
X294013095Y-58046726D01*
X294060714Y-58141964D01*
X294108333Y-58189583D01*
X294203571Y-58237202D01*
X294394047Y-58237202D01*
X294489285Y-58284821D01*
X294536904Y-58332440D01*
X294584523Y-58427678D01*
X294584523Y-58618154D01*
X294536904Y-58713392D01*
X294489285Y-58761011D01*
X294394047Y-58808630D01*
X294203571Y-58808630D01*
X294108333Y-58761011D01*
X294060714Y-58713392D01*
X294013095Y-58618154D01*
X294013095Y-58427678D01*
X294060714Y-58332440D01*
X294108333Y-58284821D01*
X294203571Y-58237202D01*
X272676785Y-58808630D02*
X272676785Y-57808630D01*
X272438690Y-57808630D01*
X272295833Y-57856250D01*
X272200595Y-57951488D01*
X272152976Y-58046726D01*
X272105357Y-58237202D01*
X272105357Y-58380059D01*
X272152976Y-58570535D01*
X272200595Y-58665773D01*
X272295833Y-58761011D01*
X272438690Y-58808630D01*
X272676785Y-58808630D01*
X271724404Y-57903869D02*
X271676785Y-57856250D01*
X271581547Y-57808630D01*
X271343452Y-57808630D01*
X271248214Y-57856250D01*
X271200595Y-57903869D01*
X271152976Y-57999107D01*
X271152976Y-58094345D01*
X271200595Y-58237202D01*
X271772023Y-58808630D01*
X271152976Y-58808630D01*
X270819642Y-57808630D02*
X270152976Y-57808630D01*
X270581547Y-58808630D01*
X253626785Y-58808630D02*
X253626785Y-57808630D01*
X253388690Y-57808630D01*
X253245833Y-57856250D01*
X253150595Y-57951488D01*
X253102976Y-58046726D01*
X253055357Y-58237202D01*
X253055357Y-58380059D01*
X253102976Y-58570535D01*
X253150595Y-58665773D01*
X253245833Y-58761011D01*
X253388690Y-58808630D01*
X253626785Y-58808630D01*
X252674404Y-57903869D02*
X252626785Y-57856250D01*
X252531547Y-57808630D01*
X252293452Y-57808630D01*
X252198214Y-57856250D01*
X252150595Y-57903869D01*
X252102976Y-57999107D01*
X252102976Y-58094345D01*
X252150595Y-58237202D01*
X252722023Y-58808630D01*
X252102976Y-58808630D01*
X251245833Y-57808630D02*
X251436309Y-57808630D01*
X251531547Y-57856250D01*
X251579166Y-57903869D01*
X251674404Y-58046726D01*
X251722023Y-58237202D01*
X251722023Y-58618154D01*
X251674404Y-58713392D01*
X251626785Y-58761011D01*
X251531547Y-58808630D01*
X251341071Y-58808630D01*
X251245833Y-58761011D01*
X251198214Y-58713392D01*
X251150595Y-58618154D01*
X251150595Y-58380059D01*
X251198214Y-58284821D01*
X251245833Y-58237202D01*
X251341071Y-58189583D01*
X251531547Y-58189583D01*
X251626785Y-58237202D01*
X251674404Y-58284821D01*
X251722023Y-58380059D01*
X234576785Y-58808630D02*
X234576785Y-57808630D01*
X234338690Y-57808630D01*
X234195833Y-57856250D01*
X234100595Y-57951488D01*
X234052976Y-58046726D01*
X234005357Y-58237202D01*
X234005357Y-58380059D01*
X234052976Y-58570535D01*
X234100595Y-58665773D01*
X234195833Y-58761011D01*
X234338690Y-58808630D01*
X234576785Y-58808630D01*
X233624404Y-57903869D02*
X233576785Y-57856250D01*
X233481547Y-57808630D01*
X233243452Y-57808630D01*
X233148214Y-57856250D01*
X233100595Y-57903869D01*
X233052976Y-57999107D01*
X233052976Y-58094345D01*
X233100595Y-58237202D01*
X233672023Y-58808630D01*
X233052976Y-58808630D01*
X232148214Y-57808630D02*
X232624404Y-57808630D01*
X232672023Y-58284821D01*
X232624404Y-58237202D01*
X232529166Y-58189583D01*
X232291071Y-58189583D01*
X232195833Y-58237202D01*
X232148214Y-58284821D01*
X232100595Y-58380059D01*
X232100595Y-58618154D01*
X232148214Y-58713392D01*
X232195833Y-58761011D01*
X232291071Y-58808630D01*
X232529166Y-58808630D01*
X232624404Y-58761011D01*
X232672023Y-58713392D01*
X215526785Y-58808630D02*
X215526785Y-57808630D01*
X215288690Y-57808630D01*
X215145833Y-57856250D01*
X215050595Y-57951488D01*
X215002976Y-58046726D01*
X214955357Y-58237202D01*
X214955357Y-58380059D01*
X215002976Y-58570535D01*
X215050595Y-58665773D01*
X215145833Y-58761011D01*
X215288690Y-58808630D01*
X215526785Y-58808630D01*
X214574404Y-57903869D02*
X214526785Y-57856250D01*
X214431547Y-57808630D01*
X214193452Y-57808630D01*
X214098214Y-57856250D01*
X214050595Y-57903869D01*
X214002976Y-57999107D01*
X214002976Y-58094345D01*
X214050595Y-58237202D01*
X214622023Y-58808630D01*
X214002976Y-58808630D01*
X213145833Y-58141964D02*
X213145833Y-58808630D01*
X213383928Y-57761011D02*
X213622023Y-58475297D01*
X213002976Y-58475297D01*
X196476785Y-58808630D02*
X196476785Y-57808630D01*
X196238690Y-57808630D01*
X196095833Y-57856250D01*
X196000595Y-57951488D01*
X195952976Y-58046726D01*
X195905357Y-58237202D01*
X195905357Y-58380059D01*
X195952976Y-58570535D01*
X196000595Y-58665773D01*
X196095833Y-58761011D01*
X196238690Y-58808630D01*
X196476785Y-58808630D01*
X195524404Y-57903869D02*
X195476785Y-57856250D01*
X195381547Y-57808630D01*
X195143452Y-57808630D01*
X195048214Y-57856250D01*
X195000595Y-57903869D01*
X194952976Y-57999107D01*
X194952976Y-58094345D01*
X195000595Y-58237202D01*
X195572023Y-58808630D01*
X194952976Y-58808630D01*
X194619642Y-57808630D02*
X194000595Y-57808630D01*
X194333928Y-58189583D01*
X194191071Y-58189583D01*
X194095833Y-58237202D01*
X194048214Y-58284821D01*
X194000595Y-58380059D01*
X194000595Y-58618154D01*
X194048214Y-58713392D01*
X194095833Y-58761011D01*
X194191071Y-58808630D01*
X194476785Y-58808630D01*
X194572023Y-58761011D01*
X194619642Y-58713392D01*
X177426785Y-58808630D02*
X177426785Y-57808630D01*
X177188690Y-57808630D01*
X177045833Y-57856250D01*
X176950595Y-57951488D01*
X176902976Y-58046726D01*
X176855357Y-58237202D01*
X176855357Y-58380059D01*
X176902976Y-58570535D01*
X176950595Y-58665773D01*
X177045833Y-58761011D01*
X177188690Y-58808630D01*
X177426785Y-58808630D01*
X176474404Y-57903869D02*
X176426785Y-57856250D01*
X176331547Y-57808630D01*
X176093452Y-57808630D01*
X175998214Y-57856250D01*
X175950595Y-57903869D01*
X175902976Y-57999107D01*
X175902976Y-58094345D01*
X175950595Y-58237202D01*
X176522023Y-58808630D01*
X175902976Y-58808630D01*
X175522023Y-57903869D02*
X175474404Y-57856250D01*
X175379166Y-57808630D01*
X175141071Y-57808630D01*
X175045833Y-57856250D01*
X174998214Y-57903869D01*
X174950595Y-57999107D01*
X174950595Y-58094345D01*
X174998214Y-58237202D01*
X175569642Y-58808630D01*
X174950595Y-58808630D01*
X158376785Y-58808630D02*
X158376785Y-57808630D01*
X158138690Y-57808630D01*
X157995833Y-57856250D01*
X157900595Y-57951488D01*
X157852976Y-58046726D01*
X157805357Y-58237202D01*
X157805357Y-58380059D01*
X157852976Y-58570535D01*
X157900595Y-58665773D01*
X157995833Y-58761011D01*
X158138690Y-58808630D01*
X158376785Y-58808630D01*
X157424404Y-57903869D02*
X157376785Y-57856250D01*
X157281547Y-57808630D01*
X157043452Y-57808630D01*
X156948214Y-57856250D01*
X156900595Y-57903869D01*
X156852976Y-57999107D01*
X156852976Y-58094345D01*
X156900595Y-58237202D01*
X157472023Y-58808630D01*
X156852976Y-58808630D01*
X155900595Y-58808630D02*
X156472023Y-58808630D01*
X156186309Y-58808630D02*
X156186309Y-57808630D01*
X156281547Y-57951488D01*
X156376785Y-58046726D01*
X156472023Y-58094345D01*
X139326785Y-58808630D02*
X139326785Y-57808630D01*
X139088690Y-57808630D01*
X138945833Y-57856250D01*
X138850595Y-57951488D01*
X138802976Y-58046726D01*
X138755357Y-58237202D01*
X138755357Y-58380059D01*
X138802976Y-58570535D01*
X138850595Y-58665773D01*
X138945833Y-58761011D01*
X139088690Y-58808630D01*
X139326785Y-58808630D01*
X138374404Y-57903869D02*
X138326785Y-57856250D01*
X138231547Y-57808630D01*
X137993452Y-57808630D01*
X137898214Y-57856250D01*
X137850595Y-57903869D01*
X137802976Y-57999107D01*
X137802976Y-58094345D01*
X137850595Y-58237202D01*
X138422023Y-58808630D01*
X137802976Y-58808630D01*
X137183928Y-57808630D02*
X137088690Y-57808630D01*
X136993452Y-57856250D01*
X136945833Y-57903869D01*
X136898214Y-57999107D01*
X136850595Y-58189583D01*
X136850595Y-58427678D01*
X136898214Y-58618154D01*
X136945833Y-58713392D01*
X136993452Y-58761011D01*
X137088690Y-58808630D01*
X137183928Y-58808630D01*
X137279166Y-58761011D01*
X137326785Y-58713392D01*
X137374404Y-58618154D01*
X137422023Y-58427678D01*
X137422023Y-58189583D01*
X137374404Y-57999107D01*
X137326785Y-57903869D01*
X137279166Y-57856250D01*
X137183928Y-57808630D01*
X120276785Y-58808630D02*
X120276785Y-57808630D01*
X120038690Y-57808630D01*
X119895833Y-57856250D01*
X119800595Y-57951488D01*
X119752976Y-58046726D01*
X119705357Y-58237202D01*
X119705357Y-58380059D01*
X119752976Y-58570535D01*
X119800595Y-58665773D01*
X119895833Y-58761011D01*
X120038690Y-58808630D01*
X120276785Y-58808630D01*
X118752976Y-58808630D02*
X119324404Y-58808630D01*
X119038690Y-58808630D02*
X119038690Y-57808630D01*
X119133928Y-57951488D01*
X119229166Y-58046726D01*
X119324404Y-58094345D01*
X118276785Y-58808630D02*
X118086309Y-58808630D01*
X117991071Y-58761011D01*
X117943452Y-58713392D01*
X117848214Y-58570535D01*
X117800595Y-58380059D01*
X117800595Y-57999107D01*
X117848214Y-57903869D01*
X117895833Y-57856250D01*
X117991071Y-57808630D01*
X118181547Y-57808630D01*
X118276785Y-57856250D01*
X118324404Y-57903869D01*
X118372023Y-57999107D01*
X118372023Y-58237202D01*
X118324404Y-58332440D01*
X118276785Y-58380059D01*
X118181547Y-58427678D01*
X117991071Y-58427678D01*
X117895833Y-58380059D01*
X117848214Y-58332440D01*
X117800595Y-58237202D01*
X101226785Y-58808630D02*
X101226785Y-57808630D01*
X100988690Y-57808630D01*
X100845833Y-57856250D01*
X100750595Y-57951488D01*
X100702976Y-58046726D01*
X100655357Y-58237202D01*
X100655357Y-58380059D01*
X100702976Y-58570535D01*
X100750595Y-58665773D01*
X100845833Y-58761011D01*
X100988690Y-58808630D01*
X101226785Y-58808630D01*
X99702976Y-58808630D02*
X100274404Y-58808630D01*
X99988690Y-58808630D02*
X99988690Y-57808630D01*
X100083928Y-57951488D01*
X100179166Y-58046726D01*
X100274404Y-58094345D01*
X99131547Y-58237202D02*
X99226785Y-58189583D01*
X99274404Y-58141964D01*
X99322023Y-58046726D01*
X99322023Y-57999107D01*
X99274404Y-57903869D01*
X99226785Y-57856250D01*
X99131547Y-57808630D01*
X98941071Y-57808630D01*
X98845833Y-57856250D01*
X98798214Y-57903869D01*
X98750595Y-57999107D01*
X98750595Y-58046726D01*
X98798214Y-58141964D01*
X98845833Y-58189583D01*
X98941071Y-58237202D01*
X99131547Y-58237202D01*
X99226785Y-58284821D01*
X99274404Y-58332440D01*
X99322023Y-58427678D01*
X99322023Y-58618154D01*
X99274404Y-58713392D01*
X99226785Y-58761011D01*
X99131547Y-58808630D01*
X98941071Y-58808630D01*
X98845833Y-58761011D01*
X98798214Y-58713392D01*
X98750595Y-58618154D01*
X98750595Y-58427678D01*
X98798214Y-58332440D01*
X98845833Y-58284821D01*
X98941071Y-58237202D01*
X82176785Y-58808630D02*
X82176785Y-57808630D01*
X81938690Y-57808630D01*
X81795833Y-57856250D01*
X81700595Y-57951488D01*
X81652976Y-58046726D01*
X81605357Y-58237202D01*
X81605357Y-58380059D01*
X81652976Y-58570535D01*
X81700595Y-58665773D01*
X81795833Y-58761011D01*
X81938690Y-58808630D01*
X82176785Y-58808630D01*
X80652976Y-58808630D02*
X81224404Y-58808630D01*
X80938690Y-58808630D02*
X80938690Y-57808630D01*
X81033928Y-57951488D01*
X81129166Y-58046726D01*
X81224404Y-58094345D01*
X80319642Y-57808630D02*
X79652976Y-57808630D01*
X80081547Y-58808630D01*
X63126785Y-58808630D02*
X63126785Y-57808630D01*
X62888690Y-57808630D01*
X62745833Y-57856250D01*
X62650595Y-57951488D01*
X62602976Y-58046726D01*
X62555357Y-58237202D01*
X62555357Y-58380059D01*
X62602976Y-58570535D01*
X62650595Y-58665773D01*
X62745833Y-58761011D01*
X62888690Y-58808630D01*
X63126785Y-58808630D01*
X61602976Y-58808630D02*
X62174404Y-58808630D01*
X61888690Y-58808630D02*
X61888690Y-57808630D01*
X61983928Y-57951488D01*
X62079166Y-58046726D01*
X62174404Y-58094345D01*
X60745833Y-57808630D02*
X60936309Y-57808630D01*
X61031547Y-57856250D01*
X61079166Y-57903869D01*
X61174404Y-58046726D01*
X61222023Y-58237202D01*
X61222023Y-58618154D01*
X61174404Y-58713392D01*
X61126785Y-58761011D01*
X61031547Y-58808630D01*
X60841071Y-58808630D01*
X60745833Y-58761011D01*
X60698214Y-58713392D01*
X60650595Y-58618154D01*
X60650595Y-58380059D01*
X60698214Y-58284821D01*
X60745833Y-58237202D01*
X60841071Y-58189583D01*
X61031547Y-58189583D01*
X61126785Y-58237202D01*
X61174404Y-58284821D01*
X61222023Y-58380059D01*
X39314285Y-58808630D02*
X39314285Y-57808630D01*
X39076190Y-57808630D01*
X38933333Y-57856250D01*
X38838095Y-57951488D01*
X38790476Y-58046726D01*
X38742857Y-58237202D01*
X38742857Y-58380059D01*
X38790476Y-58570535D01*
X38838095Y-58665773D01*
X38933333Y-58761011D01*
X39076190Y-58808630D01*
X39314285Y-58808630D01*
X37790476Y-58808630D02*
X38361904Y-58808630D01*
X38076190Y-58808630D02*
X38076190Y-57808630D01*
X38171428Y-57951488D01*
X38266666Y-58046726D01*
X38361904Y-58094345D01*
X36885714Y-57808630D02*
X37361904Y-57808630D01*
X37409523Y-58284821D01*
X37361904Y-58237202D01*
X37266666Y-58189583D01*
X37028571Y-58189583D01*
X36933333Y-58237202D01*
X36885714Y-58284821D01*
X36838095Y-58380059D01*
X36838095Y-58618154D01*
X36885714Y-58713392D01*
X36933333Y-58761011D01*
X37028571Y-58808630D01*
X37266666Y-58808630D01*
X37361904Y-58761011D01*
X37409523Y-58713392D01*
X291726785Y-39758630D02*
X291726785Y-38758630D01*
X291488690Y-38758630D01*
X291345833Y-38806250D01*
X291250595Y-38901488D01*
X291202976Y-38996726D01*
X291155357Y-39187202D01*
X291155357Y-39330059D01*
X291202976Y-39520535D01*
X291250595Y-39615773D01*
X291345833Y-39711011D01*
X291488690Y-39758630D01*
X291726785Y-39758630D01*
X290202976Y-39758630D02*
X290774404Y-39758630D01*
X290488690Y-39758630D02*
X290488690Y-38758630D01*
X290583928Y-38901488D01*
X290679166Y-38996726D01*
X290774404Y-39044345D01*
X289345833Y-39091964D02*
X289345833Y-39758630D01*
X289583928Y-38711011D02*
X289822023Y-39425297D01*
X289202976Y-39425297D01*
X263151785Y-39758630D02*
X263151785Y-38758630D01*
X262913690Y-38758630D01*
X262770833Y-38806250D01*
X262675595Y-38901488D01*
X262627976Y-38996726D01*
X262580357Y-39187202D01*
X262580357Y-39330059D01*
X262627976Y-39520535D01*
X262675595Y-39615773D01*
X262770833Y-39711011D01*
X262913690Y-39758630D01*
X263151785Y-39758630D01*
X261627976Y-39758630D02*
X262199404Y-39758630D01*
X261913690Y-39758630D02*
X261913690Y-38758630D01*
X262008928Y-38901488D01*
X262104166Y-38996726D01*
X262199404Y-39044345D01*
X261294642Y-38758630D02*
X260675595Y-38758630D01*
X261008928Y-39139583D01*
X260866071Y-39139583D01*
X260770833Y-39187202D01*
X260723214Y-39234821D01*
X260675595Y-39330059D01*
X260675595Y-39568154D01*
X260723214Y-39663392D01*
X260770833Y-39711011D01*
X260866071Y-39758630D01*
X261151785Y-39758630D01*
X261247023Y-39711011D01*
X261294642Y-39663392D01*
X244101785Y-39758630D02*
X244101785Y-38758630D01*
X243863690Y-38758630D01*
X243720833Y-38806250D01*
X243625595Y-38901488D01*
X243577976Y-38996726D01*
X243530357Y-39187202D01*
X243530357Y-39330059D01*
X243577976Y-39520535D01*
X243625595Y-39615773D01*
X243720833Y-39711011D01*
X243863690Y-39758630D01*
X244101785Y-39758630D01*
X242577976Y-39758630D02*
X243149404Y-39758630D01*
X242863690Y-39758630D02*
X242863690Y-38758630D01*
X242958928Y-38901488D01*
X243054166Y-38996726D01*
X243149404Y-39044345D01*
X242197023Y-38853869D02*
X242149404Y-38806250D01*
X242054166Y-38758630D01*
X241816071Y-38758630D01*
X241720833Y-38806250D01*
X241673214Y-38853869D01*
X241625595Y-38949107D01*
X241625595Y-39044345D01*
X241673214Y-39187202D01*
X242244642Y-39758630D01*
X241625595Y-39758630D01*
X225051785Y-39758630D02*
X225051785Y-38758630D01*
X224813690Y-38758630D01*
X224670833Y-38806250D01*
X224575595Y-38901488D01*
X224527976Y-38996726D01*
X224480357Y-39187202D01*
X224480357Y-39330059D01*
X224527976Y-39520535D01*
X224575595Y-39615773D01*
X224670833Y-39711011D01*
X224813690Y-39758630D01*
X225051785Y-39758630D01*
X223527976Y-39758630D02*
X224099404Y-39758630D01*
X223813690Y-39758630D02*
X223813690Y-38758630D01*
X223908928Y-38901488D01*
X224004166Y-38996726D01*
X224099404Y-39044345D01*
X222575595Y-39758630D02*
X223147023Y-39758630D01*
X222861309Y-39758630D02*
X222861309Y-38758630D01*
X222956547Y-38901488D01*
X223051785Y-38996726D01*
X223147023Y-39044345D01*
X206001785Y-39758630D02*
X206001785Y-38758630D01*
X205763690Y-38758630D01*
X205620833Y-38806250D01*
X205525595Y-38901488D01*
X205477976Y-38996726D01*
X205430357Y-39187202D01*
X205430357Y-39330059D01*
X205477976Y-39520535D01*
X205525595Y-39615773D01*
X205620833Y-39711011D01*
X205763690Y-39758630D01*
X206001785Y-39758630D01*
X204477976Y-39758630D02*
X205049404Y-39758630D01*
X204763690Y-39758630D02*
X204763690Y-38758630D01*
X204858928Y-38901488D01*
X204954166Y-38996726D01*
X205049404Y-39044345D01*
X203858928Y-38758630D02*
X203763690Y-38758630D01*
X203668452Y-38806250D01*
X203620833Y-38853869D01*
X203573214Y-38949107D01*
X203525595Y-39139583D01*
X203525595Y-39377678D01*
X203573214Y-39568154D01*
X203620833Y-39663392D01*
X203668452Y-39711011D01*
X203763690Y-39758630D01*
X203858928Y-39758630D01*
X203954166Y-39711011D01*
X204001785Y-39663392D01*
X204049404Y-39568154D01*
X204097023Y-39377678D01*
X204097023Y-39139583D01*
X204049404Y-38949107D01*
X204001785Y-38853869D01*
X203954166Y-38806250D01*
X203858928Y-38758630D01*
X186475595Y-39758630D02*
X186475595Y-38758630D01*
X186237500Y-38758630D01*
X186094642Y-38806250D01*
X185999404Y-38901488D01*
X185951785Y-38996726D01*
X185904166Y-39187202D01*
X185904166Y-39330059D01*
X185951785Y-39520535D01*
X185999404Y-39615773D01*
X186094642Y-39711011D01*
X186237500Y-39758630D01*
X186475595Y-39758630D01*
X185427976Y-39758630D02*
X185237500Y-39758630D01*
X185142261Y-39711011D01*
X185094642Y-39663392D01*
X184999404Y-39520535D01*
X184951785Y-39330059D01*
X184951785Y-38949107D01*
X184999404Y-38853869D01*
X185047023Y-38806250D01*
X185142261Y-38758630D01*
X185332738Y-38758630D01*
X185427976Y-38806250D01*
X185475595Y-38853869D01*
X185523214Y-38949107D01*
X185523214Y-39187202D01*
X185475595Y-39282440D01*
X185427976Y-39330059D01*
X185332738Y-39377678D01*
X185142261Y-39377678D01*
X185047023Y-39330059D01*
X184999404Y-39282440D01*
X184951785Y-39187202D01*
X167425595Y-39758630D02*
X167425595Y-38758630D01*
X167187500Y-38758630D01*
X167044642Y-38806250D01*
X166949404Y-38901488D01*
X166901785Y-38996726D01*
X166854166Y-39187202D01*
X166854166Y-39330059D01*
X166901785Y-39520535D01*
X166949404Y-39615773D01*
X167044642Y-39711011D01*
X167187500Y-39758630D01*
X167425595Y-39758630D01*
X166282738Y-39187202D02*
X166377976Y-39139583D01*
X166425595Y-39091964D01*
X166473214Y-38996726D01*
X166473214Y-38949107D01*
X166425595Y-38853869D01*
X166377976Y-38806250D01*
X166282738Y-38758630D01*
X166092261Y-38758630D01*
X165997023Y-38806250D01*
X165949404Y-38853869D01*
X165901785Y-38949107D01*
X165901785Y-38996726D01*
X165949404Y-39091964D01*
X165997023Y-39139583D01*
X166092261Y-39187202D01*
X166282738Y-39187202D01*
X166377976Y-39234821D01*
X166425595Y-39282440D01*
X166473214Y-39377678D01*
X166473214Y-39568154D01*
X166425595Y-39663392D01*
X166377976Y-39711011D01*
X166282738Y-39758630D01*
X166092261Y-39758630D01*
X165997023Y-39711011D01*
X165949404Y-39663392D01*
X165901785Y-39568154D01*
X165901785Y-39377678D01*
X165949404Y-39282440D01*
X165997023Y-39234821D01*
X166092261Y-39187202D01*
X148375595Y-39758630D02*
X148375595Y-38758630D01*
X148137500Y-38758630D01*
X147994642Y-38806250D01*
X147899404Y-38901488D01*
X147851785Y-38996726D01*
X147804166Y-39187202D01*
X147804166Y-39330059D01*
X147851785Y-39520535D01*
X147899404Y-39615773D01*
X147994642Y-39711011D01*
X148137500Y-39758630D01*
X148375595Y-39758630D01*
X147470833Y-38758630D02*
X146804166Y-38758630D01*
X147232738Y-39758630D01*
X129325595Y-39758630D02*
X129325595Y-38758630D01*
X129087500Y-38758630D01*
X128944642Y-38806250D01*
X128849404Y-38901488D01*
X128801785Y-38996726D01*
X128754166Y-39187202D01*
X128754166Y-39330059D01*
X128801785Y-39520535D01*
X128849404Y-39615773D01*
X128944642Y-39711011D01*
X129087500Y-39758630D01*
X129325595Y-39758630D01*
X127897023Y-38758630D02*
X128087500Y-38758630D01*
X128182738Y-38806250D01*
X128230357Y-38853869D01*
X128325595Y-38996726D01*
X128373214Y-39187202D01*
X128373214Y-39568154D01*
X128325595Y-39663392D01*
X128277976Y-39711011D01*
X128182738Y-39758630D01*
X127992261Y-39758630D01*
X127897023Y-39711011D01*
X127849404Y-39663392D01*
X127801785Y-39568154D01*
X127801785Y-39330059D01*
X127849404Y-39234821D01*
X127897023Y-39187202D01*
X127992261Y-39139583D01*
X128182738Y-39139583D01*
X128277976Y-39187202D01*
X128325595Y-39234821D01*
X128373214Y-39330059D01*
X110275595Y-39758630D02*
X110275595Y-38758630D01*
X110037500Y-38758630D01*
X109894642Y-38806250D01*
X109799404Y-38901488D01*
X109751785Y-38996726D01*
X109704166Y-39187202D01*
X109704166Y-39330059D01*
X109751785Y-39520535D01*
X109799404Y-39615773D01*
X109894642Y-39711011D01*
X110037500Y-39758630D01*
X110275595Y-39758630D01*
X108799404Y-38758630D02*
X109275595Y-38758630D01*
X109323214Y-39234821D01*
X109275595Y-39187202D01*
X109180357Y-39139583D01*
X108942261Y-39139583D01*
X108847023Y-39187202D01*
X108799404Y-39234821D01*
X108751785Y-39330059D01*
X108751785Y-39568154D01*
X108799404Y-39663392D01*
X108847023Y-39711011D01*
X108942261Y-39758630D01*
X109180357Y-39758630D01*
X109275595Y-39711011D01*
X109323214Y-39663392D01*
X91225595Y-39758630D02*
X91225595Y-38758630D01*
X90987500Y-38758630D01*
X90844642Y-38806250D01*
X90749404Y-38901488D01*
X90701785Y-38996726D01*
X90654166Y-39187202D01*
X90654166Y-39330059D01*
X90701785Y-39520535D01*
X90749404Y-39615773D01*
X90844642Y-39711011D01*
X90987500Y-39758630D01*
X91225595Y-39758630D01*
X89797023Y-39091964D02*
X89797023Y-39758630D01*
X90035119Y-38711011D02*
X90273214Y-39425297D01*
X89654166Y-39425297D01*
X72175595Y-39758630D02*
X72175595Y-38758630D01*
X71937500Y-38758630D01*
X71794642Y-38806250D01*
X71699404Y-38901488D01*
X71651785Y-38996726D01*
X71604166Y-39187202D01*
X71604166Y-39330059D01*
X71651785Y-39520535D01*
X71699404Y-39615773D01*
X71794642Y-39711011D01*
X71937500Y-39758630D01*
X72175595Y-39758630D01*
X71270833Y-38758630D02*
X70651785Y-38758630D01*
X70985119Y-39139583D01*
X70842261Y-39139583D01*
X70747023Y-39187202D01*
X70699404Y-39234821D01*
X70651785Y-39330059D01*
X70651785Y-39568154D01*
X70699404Y-39663392D01*
X70747023Y-39711011D01*
X70842261Y-39758630D01*
X71127976Y-39758630D01*
X71223214Y-39711011D01*
X71270833Y-39663392D01*
X53125595Y-39758630D02*
X53125595Y-38758630D01*
X52887500Y-38758630D01*
X52744642Y-38806250D01*
X52649404Y-38901488D01*
X52601785Y-38996726D01*
X52554166Y-39187202D01*
X52554166Y-39330059D01*
X52601785Y-39520535D01*
X52649404Y-39615773D01*
X52744642Y-39711011D01*
X52887500Y-39758630D01*
X53125595Y-39758630D01*
X52173214Y-38853869D02*
X52125595Y-38806250D01*
X52030357Y-38758630D01*
X51792261Y-38758630D01*
X51697023Y-38806250D01*
X51649404Y-38853869D01*
X51601785Y-38949107D01*
X51601785Y-39044345D01*
X51649404Y-39187202D01*
X52220833Y-39758630D01*
X51601785Y-39758630D01*
X34075595Y-39758630D02*
X34075595Y-38758630D01*
X33837500Y-38758630D01*
X33694642Y-38806250D01*
X33599404Y-38901488D01*
X33551785Y-38996726D01*
X33504166Y-39187202D01*
X33504166Y-39330059D01*
X33551785Y-39520535D01*
X33599404Y-39615773D01*
X33694642Y-39711011D01*
X33837500Y-39758630D01*
X34075595Y-39758630D01*
X32551785Y-39758630D02*
X33123214Y-39758630D01*
X32837500Y-39758630D02*
X32837500Y-38758630D01*
X32932738Y-38901488D01*
X33027976Y-38996726D01*
X33123214Y-39044345D01*
X213813392Y-24439583D02*
X213861011Y-24391964D01*
X213908630Y-24249107D01*
X213908630Y-24153869D01*
X213861011Y-24011011D01*
X213765773Y-23915773D01*
X213670535Y-23868154D01*
X213480059Y-23820535D01*
X213337202Y-23820535D01*
X213146726Y-23868154D01*
X213051488Y-23915773D01*
X212956250Y-24011011D01*
X212908630Y-24153869D01*
X212908630Y-24249107D01*
X212956250Y-24391964D01*
X213003869Y-24439583D01*
X212908630Y-24772916D02*
X212908630Y-25439583D01*
X213908630Y-25011011D01*
X209844642Y-24439583D02*
X209892261Y-24391964D01*
X209939880Y-24249107D01*
X209939880Y-24153869D01*
X209892261Y-24011011D01*
X209797023Y-23915773D01*
X209701785Y-23868154D01*
X209511309Y-23820535D01*
X209368452Y-23820535D01*
X209177976Y-23868154D01*
X209082738Y-23915773D01*
X208987500Y-24011011D01*
X208939880Y-24153869D01*
X208939880Y-24249107D01*
X208987500Y-24391964D01*
X209035119Y-24439583D01*
X208939880Y-25296726D02*
X208939880Y-25106250D01*
X208987500Y-25011011D01*
X209035119Y-24963392D01*
X209177976Y-24868154D01*
X209368452Y-24820535D01*
X209749404Y-24820535D01*
X209844642Y-24868154D01*
X209892261Y-24915773D01*
X209939880Y-25011011D01*
X209939880Y-25201488D01*
X209892261Y-25296726D01*
X209844642Y-25344345D01*
X209749404Y-25391964D01*
X209511309Y-25391964D01*
X209416071Y-25344345D01*
X209368452Y-25296726D01*
X209320833Y-25201488D01*
X209320833Y-25011011D01*
X209368452Y-24915773D01*
X209416071Y-24868154D01*
X209511309Y-24820535D01*
X180571142Y-22058333D02*
X180618761Y-22010714D01*
X180666380Y-21867857D01*
X180666380Y-21772619D01*
X180618761Y-21629761D01*
X180523523Y-21534523D01*
X180428285Y-21486904D01*
X180237809Y-21439285D01*
X180094952Y-21439285D01*
X179904476Y-21486904D01*
X179809238Y-21534523D01*
X179714000Y-21629761D01*
X179666380Y-21772619D01*
X179666380Y-21867857D01*
X179714000Y-22010714D01*
X179761619Y-22058333D01*
X179666380Y-22963095D02*
X179666380Y-22486904D01*
X180142571Y-22439285D01*
X180094952Y-22486904D01*
X180047333Y-22582142D01*
X180047333Y-22820238D01*
X180094952Y-22915476D01*
X180142571Y-22963095D01*
X180237809Y-23010714D01*
X180475904Y-23010714D01*
X180571142Y-22963095D01*
X180618761Y-22915476D01*
X180666380Y-22820238D01*
X180666380Y-22582142D01*
X180618761Y-22486904D01*
X180571142Y-22439285D01*
X208922916Y-18550892D02*
X208970535Y-18598511D01*
X209113392Y-18646130D01*
X209208630Y-18646130D01*
X209351488Y-18598511D01*
X209446726Y-18503273D01*
X209494345Y-18408035D01*
X209541964Y-18217559D01*
X209541964Y-18074702D01*
X209494345Y-17884226D01*
X209446726Y-17788988D01*
X209351488Y-17693750D01*
X209208630Y-17646130D01*
X209113392Y-17646130D01*
X208970535Y-17693750D01*
X208922916Y-17741369D01*
X208065773Y-17979464D02*
X208065773Y-18646130D01*
X208303869Y-17598511D02*
X208541964Y-18312797D01*
X207922916Y-18312797D01*
X199175666Y-15598142D02*
X199223285Y-15645761D01*
X199366142Y-15693380D01*
X199461380Y-15693380D01*
X199604238Y-15645761D01*
X199699476Y-15550523D01*
X199747095Y-15455285D01*
X199794714Y-15264809D01*
X199794714Y-15121952D01*
X199747095Y-14931476D01*
X199699476Y-14836238D01*
X199604238Y-14741000D01*
X199461380Y-14693380D01*
X199366142Y-14693380D01*
X199223285Y-14741000D01*
X199175666Y-14788619D01*
X198842333Y-14693380D02*
X198223285Y-14693380D01*
X198556619Y-15074333D01*
X198413761Y-15074333D01*
X198318523Y-15121952D01*
X198270904Y-15169571D01*
X198223285Y-15264809D01*
X198223285Y-15502904D01*
X198270904Y-15598142D01*
X198318523Y-15645761D01*
X198413761Y-15693380D01*
X198699476Y-15693380D01*
X198794714Y-15645761D01*
X198842333Y-15598142D01*
X235369642Y-29202083D02*
X235417261Y-29154464D01*
X235464880Y-29011607D01*
X235464880Y-28916369D01*
X235417261Y-28773511D01*
X235322023Y-28678273D01*
X235226785Y-28630654D01*
X235036309Y-28583035D01*
X234893452Y-28583035D01*
X234702976Y-28630654D01*
X234607738Y-28678273D01*
X234512500Y-28773511D01*
X234464880Y-28916369D01*
X234464880Y-29011607D01*
X234512500Y-29154464D01*
X234560119Y-29202083D01*
X234560119Y-29583035D02*
X234512500Y-29630654D01*
X234464880Y-29725892D01*
X234464880Y-29963988D01*
X234512500Y-30059226D01*
X234560119Y-30106845D01*
X234655357Y-30154464D01*
X234750595Y-30154464D01*
X234893452Y-30106845D01*
X235464880Y-29535416D01*
X235464880Y-30154464D01*
X224132142Y-29202083D02*
X224179761Y-29154464D01*
X224227380Y-29011607D01*
X224227380Y-28916369D01*
X224179761Y-28773511D01*
X224084523Y-28678273D01*
X223989285Y-28630654D01*
X223798809Y-28583035D01*
X223655952Y-28583035D01*
X223465476Y-28630654D01*
X223370238Y-28678273D01*
X223275000Y-28773511D01*
X223227380Y-28916369D01*
X223227380Y-29011607D01*
X223275000Y-29154464D01*
X223322619Y-29202083D01*
X224227380Y-30154464D02*
X224227380Y-29583035D01*
X224227380Y-29868750D02*
X223227380Y-29868750D01*
X223370238Y-29773511D01*
X223465476Y-29678273D01*
X223513095Y-29583035D01*
%LPC*%
D12*
X106680000Y-23241000D03*
X109220000Y-23241000D03*
X106680000Y-25781000D03*
X109220000Y-25781000D03*
X106680000Y-28321000D03*
D13*
X109220000Y-28321000D03*
D14*
X69215000Y-79057500D03*
D15*
X66675000Y-84137500D03*
D14*
X62865000Y-81597500D03*
D16*
X61595000Y-84137500D03*
X71755000Y-84137500D03*
D14*
X216852500Y-60007500D03*
D15*
X214312500Y-65087500D03*
D14*
X210502500Y-62547500D03*
D16*
X209232500Y-65087500D03*
X219392500Y-65087500D03*
D14*
X157321250Y-117157500D03*
D15*
X154781250Y-122237500D03*
D14*
X150971250Y-119697500D03*
D16*
X149701250Y-122237500D03*
X159861250Y-122237500D03*
D17*
X104781350Y-129222500D03*
X204781150Y-129222500D03*
D15*
X104781350Y-113982500D03*
X204781150Y-113982500D03*
D14*
X297815000Y-102870000D03*
D15*
X295275000Y-107950000D03*
D14*
X291465000Y-105410000D03*
D16*
X290195000Y-107950000D03*
X300355000Y-107950000D03*
D14*
X47783750Y-98107500D03*
D15*
X45243750Y-103187500D03*
D14*
X41433750Y-100647500D03*
D16*
X40163750Y-103187500D03*
X50323750Y-103187500D03*
D17*
X33337500Y-96202500D03*
X57150000Y-96202500D03*
D15*
X33337500Y-111442500D03*
X57150000Y-111442500D03*
D14*
X297815000Y-60007500D03*
D15*
X295275000Y-65087500D03*
D14*
X291465000Y-62547500D03*
D16*
X290195000Y-65087500D03*
X300355000Y-65087500D03*
D14*
X207327500Y-40957500D03*
D15*
X204787500Y-46037500D03*
D14*
X200977500Y-43497500D03*
D16*
X199707500Y-46037500D03*
X209867500Y-46037500D03*
D14*
X131127500Y-40957500D03*
D15*
X128587500Y-46037500D03*
D14*
X124777500Y-43497500D03*
D16*
X123507500Y-46037500D03*
X133667500Y-46037500D03*
D14*
X112077500Y-40957500D03*
D15*
X109537500Y-46037500D03*
D14*
X105727500Y-43497500D03*
D16*
X104457500Y-46037500D03*
X114617500Y-46037500D03*
D14*
X93027500Y-40957500D03*
D15*
X90487500Y-46037500D03*
D14*
X86677500Y-43497500D03*
D16*
X85407500Y-46037500D03*
X95567500Y-46037500D03*
D14*
X35877500Y-40957500D03*
D15*
X33337500Y-46037500D03*
D14*
X29527500Y-43497500D03*
D16*
X28257500Y-46037500D03*
X38417500Y-46037500D03*
D14*
X64452500Y-60007500D03*
D15*
X61912500Y-65087500D03*
D14*
X58102500Y-62547500D03*
D16*
X56832500Y-65087500D03*
X66992500Y-65087500D03*
D14*
X40640000Y-60007500D03*
D15*
X38100000Y-65087500D03*
D14*
X34290000Y-62547500D03*
D16*
X33020000Y-65087500D03*
X43180000Y-65087500D03*
D14*
X169227500Y-40957500D03*
D15*
X166687500Y-46037500D03*
D14*
X162877500Y-43497500D03*
D16*
X161607500Y-46037500D03*
X171767500Y-46037500D03*
D14*
X271621250Y-98107500D03*
D15*
X269081250Y-103187500D03*
D14*
X265271250Y-100647500D03*
D16*
X264001250Y-103187500D03*
X274161250Y-103187500D03*
D14*
X228758750Y-117157500D03*
D15*
X226218750Y-122237500D03*
D14*
X222408750Y-119697500D03*
D16*
X221138750Y-122237500D03*
X231298750Y-122237500D03*
D18*
X228293750Y-30218750D03*
X230493750Y-30218750D03*
X230493750Y-28518750D03*
X228293750Y-28518750D03*
D19*
X165260000Y-14224000D03*
X172560000Y-14224000D03*
X172560000Y-18724000D03*
X165260000Y-18724000D03*
D20*
X167310000Y-18724000D03*
X168110000Y-18724000D03*
X168910000Y-18724000D03*
X169710000Y-18724000D03*
X170510000Y-18724000D03*
D21*
X192737500Y-24575000D03*
X192737500Y-25375000D03*
X192737500Y-26175000D03*
X192737500Y-26975000D03*
X192737500Y-27775000D03*
X192737500Y-28575000D03*
X192737500Y-29375000D03*
X192737500Y-30175000D03*
X192737500Y-30975000D03*
X192737500Y-31775000D03*
X192737500Y-32575000D03*
D22*
X194437500Y-34275000D03*
X195237500Y-34275000D03*
X196037500Y-34275000D03*
X196837500Y-34275000D03*
X197637500Y-34275000D03*
X198437500Y-34275000D03*
X199237500Y-34275000D03*
X200037500Y-34275000D03*
X200837500Y-34275000D03*
X201637500Y-34275000D03*
X202437500Y-34275000D03*
D21*
X204137500Y-32575000D03*
X204137500Y-31775000D03*
X204137500Y-30975000D03*
X204137500Y-30175000D03*
X204137500Y-29375000D03*
X204137500Y-28575000D03*
X204137500Y-27775000D03*
X204137500Y-26975000D03*
X204137500Y-26175000D03*
X204137500Y-25375000D03*
X204137500Y-24575000D03*
D22*
X202437500Y-22875000D03*
X201637500Y-22875000D03*
X200837500Y-22875000D03*
X200037500Y-22875000D03*
X199237500Y-22875000D03*
X198437500Y-22875000D03*
X197637500Y-22875000D03*
X196837500Y-22875000D03*
X196037500Y-22875000D03*
X195237500Y-22875000D03*
X194437500Y-22875000D03*
D23*
X152137500Y-33262500D03*
X155837500Y-27062500D03*
X155837500Y-33262500D03*
X152137500Y-27062500D03*
D24*
X315287500Y-57062500D03*
D25*
X311287500Y-57062500D03*
X311287500Y-54062500D03*
X317587500Y-47762500D03*
X318087500Y-49782500D03*
X320587500Y-47762500D03*
X326887500Y-54062500D03*
X326887500Y-57062500D03*
X325947500Y-59312500D03*
X320087500Y-62542500D03*
X317587500Y-63362500D03*
D14*
X62071250Y-117157500D03*
D15*
X59531250Y-122237500D03*
D14*
X55721250Y-119697500D03*
D16*
X54451250Y-122237500D03*
X64611250Y-122237500D03*
D14*
X316865000Y-121920000D03*
D15*
X314325000Y-127000000D03*
D14*
X310515000Y-124460000D03*
D16*
X309245000Y-127000000D03*
X319405000Y-127000000D03*
D14*
X278765000Y-121920000D03*
D15*
X276225000Y-127000000D03*
D14*
X272415000Y-124460000D03*
D16*
X271145000Y-127000000D03*
X281305000Y-127000000D03*
D14*
X38258750Y-117157500D03*
D15*
X35718750Y-122237500D03*
D14*
X31908750Y-119697500D03*
D16*
X30638750Y-122237500D03*
X40798750Y-122237500D03*
D14*
X85883750Y-117157500D03*
D15*
X83343750Y-122237500D03*
D14*
X79533750Y-119697500D03*
D16*
X78263750Y-122237500D03*
X88423750Y-122237500D03*
D14*
X252571250Y-117157500D03*
D15*
X250031250Y-122237500D03*
D14*
X246221250Y-119697500D03*
D16*
X244951250Y-122237500D03*
X255111250Y-122237500D03*
D14*
X297815000Y-121920000D03*
D15*
X295275000Y-127000000D03*
D14*
X291465000Y-124460000D03*
D16*
X290195000Y-127000000D03*
X300355000Y-127000000D03*
D14*
X78740000Y-98107500D03*
D15*
X76200000Y-103187500D03*
D14*
X72390000Y-100647500D03*
D16*
X71120000Y-103187500D03*
X81280000Y-103187500D03*
D14*
X97790000Y-98107500D03*
D15*
X95250000Y-103187500D03*
D14*
X91440000Y-100647500D03*
D16*
X90170000Y-103187500D03*
X100330000Y-103187500D03*
D14*
X135890000Y-98107500D03*
D15*
X133350000Y-103187500D03*
D14*
X129540000Y-100647500D03*
D16*
X128270000Y-103187500D03*
X138430000Y-103187500D03*
D14*
X250190000Y-98107500D03*
D15*
X247650000Y-103187500D03*
D14*
X243840000Y-100647500D03*
D16*
X242570000Y-103187500D03*
X252730000Y-103187500D03*
D14*
X231140000Y-98107500D03*
D15*
X228600000Y-103187500D03*
D14*
X224790000Y-100647500D03*
D16*
X223520000Y-103187500D03*
X233680000Y-103187500D03*
D14*
X173990000Y-98107500D03*
D15*
X171450000Y-103187500D03*
D14*
X167640000Y-100647500D03*
D16*
X166370000Y-103187500D03*
X176530000Y-103187500D03*
D14*
X193040000Y-98107500D03*
D15*
X190500000Y-103187500D03*
D14*
X186690000Y-100647500D03*
D16*
X185420000Y-103187500D03*
X195580000Y-103187500D03*
D14*
X212090000Y-98107500D03*
D15*
X209550000Y-103187500D03*
D14*
X205740000Y-100647500D03*
D16*
X204470000Y-103187500D03*
X214630000Y-103187500D03*
D14*
X116840000Y-98107500D03*
D15*
X114300000Y-103187500D03*
D14*
X110490000Y-100647500D03*
D16*
X109220000Y-103187500D03*
X119380000Y-103187500D03*
D14*
X154940000Y-98107500D03*
D15*
X152400000Y-103187500D03*
D14*
X148590000Y-100647500D03*
D16*
X147320000Y-103187500D03*
X157480000Y-103187500D03*
D14*
X88265000Y-79057500D03*
D15*
X85725000Y-84137500D03*
D14*
X81915000Y-81597500D03*
D16*
X80645000Y-84137500D03*
X90805000Y-84137500D03*
D14*
X221615000Y-79057500D03*
D15*
X219075000Y-84137500D03*
D14*
X215265000Y-81597500D03*
D16*
X213995000Y-84137500D03*
X224155000Y-84137500D03*
D14*
X202565000Y-79057500D03*
D15*
X200025000Y-84137500D03*
D14*
X196215000Y-81597500D03*
D16*
X194945000Y-84137500D03*
X205105000Y-84137500D03*
D14*
X183515000Y-79057500D03*
D15*
X180975000Y-84137500D03*
D14*
X177165000Y-81597500D03*
D16*
X175895000Y-84137500D03*
X186055000Y-84137500D03*
D14*
X164465000Y-79057500D03*
D15*
X161925000Y-84137500D03*
D14*
X158115000Y-81597500D03*
D16*
X156845000Y-84137500D03*
X167005000Y-84137500D03*
D14*
X145415000Y-79057500D03*
D15*
X142875000Y-84137500D03*
D14*
X139065000Y-81597500D03*
D16*
X137795000Y-84137500D03*
X147955000Y-84137500D03*
D14*
X126365000Y-79057500D03*
D15*
X123825000Y-84137500D03*
D14*
X120015000Y-81597500D03*
D16*
X118745000Y-84137500D03*
X128905000Y-84137500D03*
D14*
X290671250Y-79057500D03*
D15*
X288131250Y-84137500D03*
D14*
X284321250Y-81597500D03*
D16*
X283051250Y-84137500D03*
X293211250Y-84137500D03*
D17*
X276225000Y-77152500D03*
X300037500Y-77152500D03*
D15*
X276225000Y-92392500D03*
X300037500Y-92392500D03*
D14*
X107315000Y-79057500D03*
D15*
X104775000Y-84137500D03*
D14*
X100965000Y-81597500D03*
D16*
X99695000Y-84137500D03*
X109855000Y-84137500D03*
D14*
X43021250Y-79057500D03*
D15*
X40481250Y-84137500D03*
D14*
X36671250Y-81597500D03*
D16*
X35401250Y-84137500D03*
X45561250Y-84137500D03*
D14*
X259715000Y-79057500D03*
D15*
X257175000Y-84137500D03*
D14*
X253365000Y-81597500D03*
D16*
X252095000Y-84137500D03*
X262255000Y-84137500D03*
D14*
X240665000Y-79057500D03*
D15*
X238125000Y-84137500D03*
D14*
X234315000Y-81597500D03*
D16*
X233045000Y-84137500D03*
X243205000Y-84137500D03*
D14*
X159702500Y-60007500D03*
D15*
X157162500Y-65087500D03*
D14*
X153352500Y-62547500D03*
D16*
X152082500Y-65087500D03*
X162242500Y-65087500D03*
D14*
X83502500Y-60007500D03*
D15*
X80962500Y-65087500D03*
D14*
X77152500Y-62547500D03*
D16*
X75882500Y-65087500D03*
X86042500Y-65087500D03*
D14*
X178752500Y-60007500D03*
D15*
X176212500Y-65087500D03*
D14*
X172402500Y-62547500D03*
D16*
X171132500Y-65087500D03*
X181292500Y-65087500D03*
D14*
X140652500Y-60007500D03*
D15*
X138112500Y-65087500D03*
D14*
X134302500Y-62547500D03*
D16*
X133032500Y-65087500D03*
X143192500Y-65087500D03*
D14*
X121602500Y-60007500D03*
D15*
X119062500Y-65087500D03*
D14*
X115252500Y-62547500D03*
D16*
X113982500Y-65087500D03*
X124142500Y-65087500D03*
D14*
X235902500Y-60007500D03*
D15*
X233362500Y-65087500D03*
D14*
X229552500Y-62547500D03*
D16*
X228282500Y-65087500D03*
X238442500Y-65087500D03*
D14*
X197802500Y-60007500D03*
D15*
X195262500Y-65087500D03*
D14*
X191452500Y-62547500D03*
D16*
X190182500Y-65087500D03*
X200342500Y-65087500D03*
D14*
X102552500Y-60007500D03*
D15*
X100012500Y-65087500D03*
D14*
X96202500Y-62547500D03*
D16*
X94932500Y-65087500D03*
X105092500Y-65087500D03*
D14*
X274002500Y-60007500D03*
D15*
X271462500Y-65087500D03*
D14*
X267652500Y-62547500D03*
D16*
X266382500Y-65087500D03*
X276542500Y-65087500D03*
D14*
X254952500Y-60007500D03*
D15*
X252412500Y-65087500D03*
D14*
X248602500Y-62547500D03*
D16*
X247332500Y-65087500D03*
X257492500Y-65087500D03*
D14*
X245427500Y-40957500D03*
D15*
X242887500Y-46037500D03*
D14*
X239077500Y-43497500D03*
D16*
X237807500Y-46037500D03*
X247967500Y-46037500D03*
D14*
X293052500Y-40957500D03*
D15*
X290512500Y-46037500D03*
D14*
X286702500Y-43497500D03*
D16*
X285432500Y-46037500D03*
X295592500Y-46037500D03*
D17*
X278606250Y-39052500D03*
X302418750Y-39052500D03*
D15*
X278606250Y-54292500D03*
X302418750Y-54292500D03*
D14*
X264477500Y-40957500D03*
D15*
X261937500Y-46037500D03*
D14*
X258127500Y-43497500D03*
D16*
X256857500Y-46037500D03*
X267017500Y-46037500D03*
D14*
X188277500Y-40957500D03*
D15*
X185737500Y-46037500D03*
D14*
X181927500Y-43497500D03*
D16*
X180657500Y-46037500D03*
X190817500Y-46037500D03*
D14*
X150177500Y-40957500D03*
D15*
X147637500Y-46037500D03*
D14*
X143827500Y-43497500D03*
D16*
X142557500Y-46037500D03*
X152717500Y-46037500D03*
D14*
X73977500Y-40957500D03*
D15*
X71437500Y-46037500D03*
D14*
X67627500Y-43497500D03*
D16*
X66357500Y-46037500D03*
X76517500Y-46037500D03*
D14*
X54927500Y-40957500D03*
D15*
X52387500Y-46037500D03*
D14*
X48577500Y-43497500D03*
D16*
X47307500Y-46037500D03*
X57467500Y-46037500D03*
D14*
X226377500Y-40957500D03*
D15*
X223837500Y-46037500D03*
D14*
X220027500Y-43497500D03*
D16*
X218757500Y-46037500D03*
X228917500Y-46037500D03*
D26*
G36*
X183769141Y-34055297D02*
G01*
X183795278Y-34059174D01*
X183820909Y-34065594D01*
X183845788Y-34074495D01*
X183869674Y-34085793D01*
X183892337Y-34099377D01*
X183913560Y-34115117D01*
X183933139Y-34132861D01*
X183950883Y-34152440D01*
X183966623Y-34173663D01*
X183980207Y-34196326D01*
X183991505Y-34220212D01*
X184000406Y-34245091D01*
X184006826Y-34270722D01*
X184010703Y-34296859D01*
X184012000Y-34323250D01*
X184012000Y-34861750D01*
X184010703Y-34888141D01*
X184006826Y-34914278D01*
X184000406Y-34939909D01*
X183991505Y-34964788D01*
X183980207Y-34988674D01*
X183966623Y-35011337D01*
X183950883Y-35032560D01*
X183933139Y-35052139D01*
X183913560Y-35069883D01*
X183892337Y-35085623D01*
X183869674Y-35099207D01*
X183845788Y-35110505D01*
X183820909Y-35119406D01*
X183795278Y-35125826D01*
X183769141Y-35129703D01*
X183742750Y-35131000D01*
X182779250Y-35131000D01*
X182752859Y-35129703D01*
X182726722Y-35125826D01*
X182701091Y-35119406D01*
X182676212Y-35110505D01*
X182652326Y-35099207D01*
X182629663Y-35085623D01*
X182608440Y-35069883D01*
X182588861Y-35052139D01*
X182571117Y-35032560D01*
X182555377Y-35011337D01*
X182541793Y-34988674D01*
X182530495Y-34964788D01*
X182521594Y-34939909D01*
X182515174Y-34914278D01*
X182511297Y-34888141D01*
X182510000Y-34861750D01*
X182510000Y-34323250D01*
X182511297Y-34296859D01*
X182515174Y-34270722D01*
X182521594Y-34245091D01*
X182530495Y-34220212D01*
X182541793Y-34196326D01*
X182555377Y-34173663D01*
X182571117Y-34152440D01*
X182588861Y-34132861D01*
X182608440Y-34115117D01*
X182629663Y-34099377D01*
X182652326Y-34085793D01*
X182676212Y-34074495D01*
X182701091Y-34065594D01*
X182726722Y-34059174D01*
X182752859Y-34055297D01*
X182779250Y-34054000D01*
X183742750Y-34054000D01*
X183769141Y-34055297D01*
G37*
G36*
X183769141Y-32180297D02*
G01*
X183795278Y-32184174D01*
X183820909Y-32190594D01*
X183845788Y-32199495D01*
X183869674Y-32210793D01*
X183892337Y-32224377D01*
X183913560Y-32240117D01*
X183933139Y-32257861D01*
X183950883Y-32277440D01*
X183966623Y-32298663D01*
X183980207Y-32321326D01*
X183991505Y-32345212D01*
X184000406Y-32370091D01*
X184006826Y-32395722D01*
X184010703Y-32421859D01*
X184012000Y-32448250D01*
X184012000Y-32986750D01*
X184010703Y-33013141D01*
X184006826Y-33039278D01*
X184000406Y-33064909D01*
X183991505Y-33089788D01*
X183980207Y-33113674D01*
X183966623Y-33136337D01*
X183950883Y-33157560D01*
X183933139Y-33177139D01*
X183913560Y-33194883D01*
X183892337Y-33210623D01*
X183869674Y-33224207D01*
X183845788Y-33235505D01*
X183820909Y-33244406D01*
X183795278Y-33250826D01*
X183769141Y-33254703D01*
X183742750Y-33256000D01*
X182779250Y-33256000D01*
X182752859Y-33254703D01*
X182726722Y-33250826D01*
X182701091Y-33244406D01*
X182676212Y-33235505D01*
X182652326Y-33224207D01*
X182629663Y-33210623D01*
X182608440Y-33194883D01*
X182588861Y-33177139D01*
X182571117Y-33157560D01*
X182555377Y-33136337D01*
X182541793Y-33113674D01*
X182530495Y-33089788D01*
X182521594Y-33064909D01*
X182515174Y-33039278D01*
X182511297Y-33013141D01*
X182510000Y-32986750D01*
X182510000Y-32448250D01*
X182511297Y-32421859D01*
X182515174Y-32395722D01*
X182521594Y-32370091D01*
X182530495Y-32345212D01*
X182541793Y-32321326D01*
X182555377Y-32298663D01*
X182571117Y-32277440D01*
X182588861Y-32257861D01*
X182608440Y-32240117D01*
X182629663Y-32224377D01*
X182652326Y-32210793D01*
X182676212Y-32199495D01*
X182701091Y-32190594D01*
X182726722Y-32184174D01*
X182752859Y-32180297D01*
X182779250Y-32179000D01*
X183742750Y-32179000D01*
X183769141Y-32180297D01*
G37*
G36*
X178054141Y-28878297D02*
G01*
X178080278Y-28882174D01*
X178105909Y-28888594D01*
X178130788Y-28897495D01*
X178154674Y-28908793D01*
X178177337Y-28922377D01*
X178198560Y-28938117D01*
X178218139Y-28955861D01*
X178235883Y-28975440D01*
X178251623Y-28996663D01*
X178265207Y-29019326D01*
X178276505Y-29043212D01*
X178285406Y-29068091D01*
X178291826Y-29093722D01*
X178295703Y-29119859D01*
X178297000Y-29146250D01*
X178297000Y-29684750D01*
X178295703Y-29711141D01*
X178291826Y-29737278D01*
X178285406Y-29762909D01*
X178276505Y-29787788D01*
X178265207Y-29811674D01*
X178251623Y-29834337D01*
X178235883Y-29855560D01*
X178218139Y-29875139D01*
X178198560Y-29892883D01*
X178177337Y-29908623D01*
X178154674Y-29922207D01*
X178130788Y-29933505D01*
X178105909Y-29942406D01*
X178080278Y-29948826D01*
X178054141Y-29952703D01*
X178027750Y-29954000D01*
X177064250Y-29954000D01*
X177037859Y-29952703D01*
X177011722Y-29948826D01*
X176986091Y-29942406D01*
X176961212Y-29933505D01*
X176937326Y-29922207D01*
X176914663Y-29908623D01*
X176893440Y-29892883D01*
X176873861Y-29875139D01*
X176856117Y-29855560D01*
X176840377Y-29834337D01*
X176826793Y-29811674D01*
X176815495Y-29787788D01*
X176806594Y-29762909D01*
X176800174Y-29737278D01*
X176796297Y-29711141D01*
X176795000Y-29684750D01*
X176795000Y-29146250D01*
X176796297Y-29119859D01*
X176800174Y-29093722D01*
X176806594Y-29068091D01*
X176815495Y-29043212D01*
X176826793Y-29019326D01*
X176840377Y-28996663D01*
X176856117Y-28975440D01*
X176873861Y-28955861D01*
X176893440Y-28938117D01*
X176914663Y-28922377D01*
X176937326Y-28908793D01*
X176961212Y-28897495D01*
X176986091Y-28888594D01*
X177011722Y-28882174D01*
X177037859Y-28878297D01*
X177064250Y-28877000D01*
X178027750Y-28877000D01*
X178054141Y-28878297D01*
G37*
G36*
X178054141Y-30753297D02*
G01*
X178080278Y-30757174D01*
X178105909Y-30763594D01*
X178130788Y-30772495D01*
X178154674Y-30783793D01*
X178177337Y-30797377D01*
X178198560Y-30813117D01*
X178218139Y-30830861D01*
X178235883Y-30850440D01*
X178251623Y-30871663D01*
X178265207Y-30894326D01*
X178276505Y-30918212D01*
X178285406Y-30943091D01*
X178291826Y-30968722D01*
X178295703Y-30994859D01*
X178297000Y-31021250D01*
X178297000Y-31559750D01*
X178295703Y-31586141D01*
X178291826Y-31612278D01*
X178285406Y-31637909D01*
X178276505Y-31662788D01*
X178265207Y-31686674D01*
X178251623Y-31709337D01*
X178235883Y-31730560D01*
X178218139Y-31750139D01*
X178198560Y-31767883D01*
X178177337Y-31783623D01*
X178154674Y-31797207D01*
X178130788Y-31808505D01*
X178105909Y-31817406D01*
X178080278Y-31823826D01*
X178054141Y-31827703D01*
X178027750Y-31829000D01*
X177064250Y-31829000D01*
X177037859Y-31827703D01*
X177011722Y-31823826D01*
X176986091Y-31817406D01*
X176961212Y-31808505D01*
X176937326Y-31797207D01*
X176914663Y-31783623D01*
X176893440Y-31767883D01*
X176873861Y-31750139D01*
X176856117Y-31730560D01*
X176840377Y-31709337D01*
X176826793Y-31686674D01*
X176815495Y-31662788D01*
X176806594Y-31637909D01*
X176800174Y-31612278D01*
X176796297Y-31586141D01*
X176795000Y-31559750D01*
X176795000Y-31021250D01*
X176796297Y-30994859D01*
X176800174Y-30968722D01*
X176806594Y-30943091D01*
X176815495Y-30918212D01*
X176826793Y-30894326D01*
X176840377Y-30871663D01*
X176856117Y-30850440D01*
X176873861Y-30830861D01*
X176893440Y-30813117D01*
X176914663Y-30797377D01*
X176937326Y-30783793D01*
X176961212Y-30772495D01*
X176986091Y-30763594D01*
X177011722Y-30757174D01*
X177037859Y-30753297D01*
X177064250Y-30752000D01*
X178027750Y-30752000D01*
X178054141Y-30753297D01*
G37*
G36*
X186302141Y-16014297D02*
G01*
X186328278Y-16018174D01*
X186353909Y-16024594D01*
X186378788Y-16033495D01*
X186402674Y-16044793D01*
X186425337Y-16058377D01*
X186446560Y-16074117D01*
X186466139Y-16091861D01*
X186483883Y-16111440D01*
X186499623Y-16132663D01*
X186513207Y-16155326D01*
X186524505Y-16179212D01*
X186533406Y-16204091D01*
X186539826Y-16229722D01*
X186543703Y-16255859D01*
X186545000Y-16282250D01*
X186545000Y-17245750D01*
X186543703Y-17272141D01*
X186539826Y-17298278D01*
X186533406Y-17323909D01*
X186524505Y-17348788D01*
X186513207Y-17372674D01*
X186499623Y-17395337D01*
X186483883Y-17416560D01*
X186466139Y-17436139D01*
X186446560Y-17453883D01*
X186425337Y-17469623D01*
X186402674Y-17483207D01*
X186378788Y-17494505D01*
X186353909Y-17503406D01*
X186328278Y-17509826D01*
X186302141Y-17513703D01*
X186275750Y-17515000D01*
X185737250Y-17515000D01*
X185710859Y-17513703D01*
X185684722Y-17509826D01*
X185659091Y-17503406D01*
X185634212Y-17494505D01*
X185610326Y-17483207D01*
X185587663Y-17469623D01*
X185566440Y-17453883D01*
X185546861Y-17436139D01*
X185529117Y-17416560D01*
X185513377Y-17395337D01*
X185499793Y-17372674D01*
X185488495Y-17348788D01*
X185479594Y-17323909D01*
X185473174Y-17298278D01*
X185469297Y-17272141D01*
X185468000Y-17245750D01*
X185468000Y-16282250D01*
X185469297Y-16255859D01*
X185473174Y-16229722D01*
X185479594Y-16204091D01*
X185488495Y-16179212D01*
X185499793Y-16155326D01*
X185513377Y-16132663D01*
X185529117Y-16111440D01*
X185546861Y-16091861D01*
X185566440Y-16074117D01*
X185587663Y-16058377D01*
X185610326Y-16044793D01*
X185634212Y-16033495D01*
X185659091Y-16024594D01*
X185684722Y-16018174D01*
X185710859Y-16014297D01*
X185737250Y-16013000D01*
X186275750Y-16013000D01*
X186302141Y-16014297D01*
G37*
G36*
X188177141Y-16014297D02*
G01*
X188203278Y-16018174D01*
X188228909Y-16024594D01*
X188253788Y-16033495D01*
X188277674Y-16044793D01*
X188300337Y-16058377D01*
X188321560Y-16074117D01*
X188341139Y-16091861D01*
X188358883Y-16111440D01*
X188374623Y-16132663D01*
X188388207Y-16155326D01*
X188399505Y-16179212D01*
X188408406Y-16204091D01*
X188414826Y-16229722D01*
X188418703Y-16255859D01*
X188420000Y-16282250D01*
X188420000Y-17245750D01*
X188418703Y-17272141D01*
X188414826Y-17298278D01*
X188408406Y-17323909D01*
X188399505Y-17348788D01*
X188388207Y-17372674D01*
X188374623Y-17395337D01*
X188358883Y-17416560D01*
X188341139Y-17436139D01*
X188321560Y-17453883D01*
X188300337Y-17469623D01*
X188277674Y-17483207D01*
X188253788Y-17494505D01*
X188228909Y-17503406D01*
X188203278Y-17509826D01*
X188177141Y-17513703D01*
X188150750Y-17515000D01*
X187612250Y-17515000D01*
X187585859Y-17513703D01*
X187559722Y-17509826D01*
X187534091Y-17503406D01*
X187509212Y-17494505D01*
X187485326Y-17483207D01*
X187462663Y-17469623D01*
X187441440Y-17453883D01*
X187421861Y-17436139D01*
X187404117Y-17416560D01*
X187388377Y-17395337D01*
X187374793Y-17372674D01*
X187363495Y-17348788D01*
X187354594Y-17323909D01*
X187348174Y-17298278D01*
X187344297Y-17272141D01*
X187343000Y-17245750D01*
X187343000Y-16282250D01*
X187344297Y-16255859D01*
X187348174Y-16229722D01*
X187354594Y-16204091D01*
X187363495Y-16179212D01*
X187374793Y-16155326D01*
X187388377Y-16132663D01*
X187404117Y-16111440D01*
X187421861Y-16091861D01*
X187441440Y-16074117D01*
X187462663Y-16058377D01*
X187485326Y-16044793D01*
X187509212Y-16033495D01*
X187534091Y-16024594D01*
X187559722Y-16018174D01*
X187585859Y-16014297D01*
X187612250Y-16013000D01*
X188150750Y-16013000D01*
X188177141Y-16014297D01*
G37*
G36*
X205957141Y-16141297D02*
G01*
X205983278Y-16145174D01*
X206008909Y-16151594D01*
X206033788Y-16160495D01*
X206057674Y-16171793D01*
X206080337Y-16185377D01*
X206101560Y-16201117D01*
X206121139Y-16218861D01*
X206138883Y-16238440D01*
X206154623Y-16259663D01*
X206168207Y-16282326D01*
X206179505Y-16306212D01*
X206188406Y-16331091D01*
X206194826Y-16356722D01*
X206198703Y-16382859D01*
X206200000Y-16409250D01*
X206200000Y-17372750D01*
X206198703Y-17399141D01*
X206194826Y-17425278D01*
X206188406Y-17450909D01*
X206179505Y-17475788D01*
X206168207Y-17499674D01*
X206154623Y-17522337D01*
X206138883Y-17543560D01*
X206121139Y-17563139D01*
X206101560Y-17580883D01*
X206080337Y-17596623D01*
X206057674Y-17610207D01*
X206033788Y-17621505D01*
X206008909Y-17630406D01*
X205983278Y-17636826D01*
X205957141Y-17640703D01*
X205930750Y-17642000D01*
X205392250Y-17642000D01*
X205365859Y-17640703D01*
X205339722Y-17636826D01*
X205314091Y-17630406D01*
X205289212Y-17621505D01*
X205265326Y-17610207D01*
X205242663Y-17596623D01*
X205221440Y-17580883D01*
X205201861Y-17563139D01*
X205184117Y-17543560D01*
X205168377Y-17522337D01*
X205154793Y-17499674D01*
X205143495Y-17475788D01*
X205134594Y-17450909D01*
X205128174Y-17425278D01*
X205124297Y-17399141D01*
X205123000Y-17372750D01*
X205123000Y-16409250D01*
X205124297Y-16382859D01*
X205128174Y-16356722D01*
X205134594Y-16331091D01*
X205143495Y-16306212D01*
X205154793Y-16282326D01*
X205168377Y-16259663D01*
X205184117Y-16238440D01*
X205201861Y-16218861D01*
X205221440Y-16201117D01*
X205242663Y-16185377D01*
X205265326Y-16171793D01*
X205289212Y-16160495D01*
X205314091Y-16151594D01*
X205339722Y-16145174D01*
X205365859Y-16141297D01*
X205392250Y-16140000D01*
X205930750Y-16140000D01*
X205957141Y-16141297D01*
G37*
G36*
X204082141Y-16141297D02*
G01*
X204108278Y-16145174D01*
X204133909Y-16151594D01*
X204158788Y-16160495D01*
X204182674Y-16171793D01*
X204205337Y-16185377D01*
X204226560Y-16201117D01*
X204246139Y-16218861D01*
X204263883Y-16238440D01*
X204279623Y-16259663D01*
X204293207Y-16282326D01*
X204304505Y-16306212D01*
X204313406Y-16331091D01*
X204319826Y-16356722D01*
X204323703Y-16382859D01*
X204325000Y-16409250D01*
X204325000Y-17372750D01*
X204323703Y-17399141D01*
X204319826Y-17425278D01*
X204313406Y-17450909D01*
X204304505Y-17475788D01*
X204293207Y-17499674D01*
X204279623Y-17522337D01*
X204263883Y-17543560D01*
X204246139Y-17563139D01*
X204226560Y-17580883D01*
X204205337Y-17596623D01*
X204182674Y-17610207D01*
X204158788Y-17621505D01*
X204133909Y-17630406D01*
X204108278Y-17636826D01*
X204082141Y-17640703D01*
X204055750Y-17642000D01*
X203517250Y-17642000D01*
X203490859Y-17640703D01*
X203464722Y-17636826D01*
X203439091Y-17630406D01*
X203414212Y-17621505D01*
X203390326Y-17610207D01*
X203367663Y-17596623D01*
X203346440Y-17580883D01*
X203326861Y-17563139D01*
X203309117Y-17543560D01*
X203293377Y-17522337D01*
X203279793Y-17499674D01*
X203268495Y-17475788D01*
X203259594Y-17450909D01*
X203253174Y-17425278D01*
X203249297Y-17399141D01*
X203248000Y-17372750D01*
X203248000Y-16409250D01*
X203249297Y-16382859D01*
X203253174Y-16356722D01*
X203259594Y-16331091D01*
X203268495Y-16306212D01*
X203279793Y-16282326D01*
X203293377Y-16259663D01*
X203309117Y-16238440D01*
X203326861Y-16218861D01*
X203346440Y-16201117D01*
X203367663Y-16185377D01*
X203390326Y-16171793D01*
X203414212Y-16160495D01*
X203439091Y-16151594D01*
X203464722Y-16145174D01*
X203490859Y-16141297D01*
X203517250Y-16140000D01*
X204055750Y-16140000D01*
X204082141Y-16141297D01*
G37*
D12*
X49530000Y-20320000D03*
X49530000Y-22860000D03*
X49530000Y-25400000D03*
D13*
X49530000Y-27940000D03*
D26*
G36*
X178228104Y-22823302D02*
G01*
X178254352Y-22827196D01*
X178280093Y-22833643D01*
X178305078Y-22842583D01*
X178329066Y-22853928D01*
X178351826Y-22867571D01*
X178373140Y-22883378D01*
X178392802Y-22901198D01*
X178410622Y-22920860D01*
X178426429Y-22942174D01*
X178440072Y-22964934D01*
X178451417Y-22988922D01*
X178460357Y-23013907D01*
X178466804Y-23039648D01*
X178470698Y-23065896D01*
X178472000Y-23092400D01*
X178472000Y-23903600D01*
X178470698Y-23930104D01*
X178466804Y-23956352D01*
X178460357Y-23982093D01*
X178451417Y-24007078D01*
X178440072Y-24031066D01*
X178426429Y-24053826D01*
X178410622Y-24075140D01*
X178392802Y-24094802D01*
X178373140Y-24112622D01*
X178351826Y-24128429D01*
X178329066Y-24142072D01*
X178305078Y-24153417D01*
X178280093Y-24162357D01*
X178254352Y-24168804D01*
X178228104Y-24172698D01*
X178201600Y-24174000D01*
X176890400Y-24174000D01*
X176863896Y-24172698D01*
X176837648Y-24168804D01*
X176811907Y-24162357D01*
X176786922Y-24153417D01*
X176762934Y-24142072D01*
X176740174Y-24128429D01*
X176718860Y-24112622D01*
X176699198Y-24094802D01*
X176681378Y-24075140D01*
X176665571Y-24053826D01*
X176651928Y-24031066D01*
X176640583Y-24007078D01*
X176631643Y-23982093D01*
X176625196Y-23956352D01*
X176621302Y-23930104D01*
X176620000Y-23903600D01*
X176620000Y-23092400D01*
X176621302Y-23065896D01*
X176625196Y-23039648D01*
X176631643Y-23013907D01*
X176640583Y-22988922D01*
X176651928Y-22964934D01*
X176665571Y-22942174D01*
X176681378Y-22920860D01*
X176699198Y-22901198D01*
X176718860Y-22883378D01*
X176740174Y-22867571D01*
X176762934Y-22853928D01*
X176786922Y-22842583D01*
X176811907Y-22833643D01*
X176837648Y-22827196D01*
X176863896Y-22823302D01*
X176890400Y-22822000D01*
X178201600Y-22822000D01*
X178228104Y-22823302D01*
G37*
G36*
X178228104Y-20023302D02*
G01*
X178254352Y-20027196D01*
X178280093Y-20033643D01*
X178305078Y-20042583D01*
X178329066Y-20053928D01*
X178351826Y-20067571D01*
X178373140Y-20083378D01*
X178392802Y-20101198D01*
X178410622Y-20120860D01*
X178426429Y-20142174D01*
X178440072Y-20164934D01*
X178451417Y-20188922D01*
X178460357Y-20213907D01*
X178466804Y-20239648D01*
X178470698Y-20265896D01*
X178472000Y-20292400D01*
X178472000Y-21103600D01*
X178470698Y-21130104D01*
X178466804Y-21156352D01*
X178460357Y-21182093D01*
X178451417Y-21207078D01*
X178440072Y-21231066D01*
X178426429Y-21253826D01*
X178410622Y-21275140D01*
X178392802Y-21294802D01*
X178373140Y-21312622D01*
X178351826Y-21328429D01*
X178329066Y-21342072D01*
X178305078Y-21353417D01*
X178280093Y-21362357D01*
X178254352Y-21368804D01*
X178228104Y-21372698D01*
X178201600Y-21374000D01*
X176890400Y-21374000D01*
X176863896Y-21372698D01*
X176837648Y-21368804D01*
X176811907Y-21362357D01*
X176786922Y-21353417D01*
X176762934Y-21342072D01*
X176740174Y-21328429D01*
X176718860Y-21312622D01*
X176699198Y-21294802D01*
X176681378Y-21275140D01*
X176665571Y-21253826D01*
X176651928Y-21231066D01*
X176640583Y-21207078D01*
X176631643Y-21182093D01*
X176625196Y-21156352D01*
X176621302Y-21130104D01*
X176620000Y-21103600D01*
X176620000Y-20292400D01*
X176621302Y-20265896D01*
X176625196Y-20239648D01*
X176631643Y-20213907D01*
X176640583Y-20188922D01*
X176651928Y-20164934D01*
X176665571Y-20142174D01*
X176681378Y-20120860D01*
X176699198Y-20101198D01*
X176718860Y-20083378D01*
X176740174Y-20067571D01*
X176762934Y-20053928D01*
X176786922Y-20042583D01*
X176811907Y-20033643D01*
X176837648Y-20027196D01*
X176863896Y-20023302D01*
X176890400Y-20022000D01*
X178201600Y-20022000D01*
X178228104Y-20023302D01*
G37*
D27*
X320675000Y-70706250D03*
X320675000Y-67406250D03*
D28*
X317437500Y-44450000D03*
X320737500Y-44450000D03*
X314262500Y-67468750D03*
X317562500Y-67468750D03*
D27*
X308768750Y-54037500D03*
X308768750Y-50737500D03*
X330200000Y-60387500D03*
X330200000Y-57087500D03*
D28*
X315975000Y-118268750D03*
X312675000Y-118268750D03*
X296925000Y-118268750D03*
X293625000Y-118268750D03*
X277875000Y-118268750D03*
X274575000Y-118268750D03*
X251681250Y-113506250D03*
X248381250Y-113506250D03*
X227868750Y-113506250D03*
X224568750Y-113506250D03*
X156431250Y-113506250D03*
X153131250Y-113506250D03*
X84993750Y-113506250D03*
X81693750Y-113506250D03*
X61056250Y-112712500D03*
X64356250Y-112712500D03*
X37243750Y-113506250D03*
X40543750Y-113506250D03*
X296925000Y-99218750D03*
X293625000Y-99218750D03*
X270731250Y-94456250D03*
X267431250Y-94456250D03*
X249300000Y-94456250D03*
X246000000Y-94456250D03*
X230250000Y-94456250D03*
X226950000Y-94456250D03*
X211200000Y-94456250D03*
X207900000Y-94456250D03*
X192150000Y-94456250D03*
X188850000Y-94456250D03*
X173100000Y-94456250D03*
X169800000Y-94456250D03*
X154050000Y-94456250D03*
X150750000Y-94456250D03*
X135000000Y-94456250D03*
X131700000Y-94456250D03*
X115950000Y-94456250D03*
X112650000Y-94456250D03*
X96900000Y-94456250D03*
X93600000Y-94456250D03*
X77850000Y-94456250D03*
X74550000Y-94456250D03*
X46893750Y-94456250D03*
X43593750Y-94456250D03*
X289781250Y-75406250D03*
X286481250Y-75406250D03*
X258825000Y-75406250D03*
X255525000Y-75406250D03*
X239775000Y-75406250D03*
X236475000Y-75406250D03*
X220725000Y-75406250D03*
X217425000Y-75406250D03*
X201675000Y-75406250D03*
X198375000Y-75406250D03*
X182625000Y-75406250D03*
X179325000Y-75406250D03*
X163575000Y-75406250D03*
X160275000Y-75406250D03*
X144525000Y-75406250D03*
X141225000Y-75406250D03*
X125475000Y-75406250D03*
X122175000Y-75406250D03*
X106425000Y-75406250D03*
X103125000Y-75406250D03*
X87375000Y-75406250D03*
X84075000Y-75406250D03*
X68325000Y-75406250D03*
X65025000Y-75406250D03*
X42131250Y-75406250D03*
X38831250Y-75406250D03*
X296925000Y-56356250D03*
X293625000Y-56356250D03*
X273112500Y-56356250D03*
X269812500Y-56356250D03*
X254062500Y-56356250D03*
X250762500Y-56356250D03*
X235012500Y-56356250D03*
X231712500Y-56356250D03*
X215962500Y-56356250D03*
X212662500Y-56356250D03*
X196912500Y-56356250D03*
X193612500Y-56356250D03*
X177862500Y-56356250D03*
X174562500Y-56356250D03*
X158812500Y-56356250D03*
X155512500Y-56356250D03*
X139762500Y-56356250D03*
X136462500Y-56356250D03*
X120712500Y-56356250D03*
X117412500Y-56356250D03*
X101662500Y-56356250D03*
X98362500Y-56356250D03*
X82612500Y-56356250D03*
X79312500Y-56356250D03*
X63562500Y-56356250D03*
X60262500Y-56356250D03*
X39750000Y-56356250D03*
X36450000Y-56356250D03*
X292162500Y-37306250D03*
X288862500Y-37306250D03*
X263587500Y-37306250D03*
X260287500Y-37306250D03*
X244537500Y-37306250D03*
X241237500Y-37306250D03*
X225487500Y-37306250D03*
X222187500Y-37306250D03*
X206437500Y-37306250D03*
X203137500Y-37306250D03*
X187387500Y-37306250D03*
X184087500Y-37306250D03*
X168337500Y-37306250D03*
X165037500Y-37306250D03*
X149287500Y-37306250D03*
X145987500Y-37306250D03*
X130237500Y-37306250D03*
X126937500Y-37306250D03*
X111187500Y-37306250D03*
X107887500Y-37306250D03*
X92137500Y-37306250D03*
X88837500Y-37306250D03*
X73087500Y-37306250D03*
X69787500Y-37306250D03*
X54037500Y-37306250D03*
X50737500Y-37306250D03*
X34987500Y-37306250D03*
X31687500Y-37306250D03*
D26*
G36*
X215614391Y-25006547D02*
G01*
X215640528Y-25010424D01*
X215666159Y-25016844D01*
X215691038Y-25025745D01*
X215714924Y-25037043D01*
X215737587Y-25050627D01*
X215758810Y-25066367D01*
X215778389Y-25084111D01*
X215796133Y-25103690D01*
X215811873Y-25124913D01*
X215825457Y-25147576D01*
X215836755Y-25171462D01*
X215845656Y-25196341D01*
X215852076Y-25221972D01*
X215855953Y-25248109D01*
X215857250Y-25274500D01*
X215857250Y-25813000D01*
X215855953Y-25839391D01*
X215852076Y-25865528D01*
X215845656Y-25891159D01*
X215836755Y-25916038D01*
X215825457Y-25939924D01*
X215811873Y-25962587D01*
X215796133Y-25983810D01*
X215778389Y-26003389D01*
X215758810Y-26021133D01*
X215737587Y-26036873D01*
X215714924Y-26050457D01*
X215691038Y-26061755D01*
X215666159Y-26070656D01*
X215640528Y-26077076D01*
X215614391Y-26080953D01*
X215588000Y-26082250D01*
X214624500Y-26082250D01*
X214598109Y-26080953D01*
X214571972Y-26077076D01*
X214546341Y-26070656D01*
X214521462Y-26061755D01*
X214497576Y-26050457D01*
X214474913Y-26036873D01*
X214453690Y-26021133D01*
X214434111Y-26003389D01*
X214416367Y-25983810D01*
X214400627Y-25962587D01*
X214387043Y-25939924D01*
X214375745Y-25916038D01*
X214366844Y-25891159D01*
X214360424Y-25865528D01*
X214356547Y-25839391D01*
X214355250Y-25813000D01*
X214355250Y-25274500D01*
X214356547Y-25248109D01*
X214360424Y-25221972D01*
X214366844Y-25196341D01*
X214375745Y-25171462D01*
X214387043Y-25147576D01*
X214400627Y-25124913D01*
X214416367Y-25103690D01*
X214434111Y-25084111D01*
X214453690Y-25066367D01*
X214474913Y-25050627D01*
X214497576Y-25037043D01*
X214521462Y-25025745D01*
X214546341Y-25016844D01*
X214571972Y-25010424D01*
X214598109Y-25006547D01*
X214624500Y-25005250D01*
X215588000Y-25005250D01*
X215614391Y-25006547D01*
G37*
G36*
X215614391Y-23131547D02*
G01*
X215640528Y-23135424D01*
X215666159Y-23141844D01*
X215691038Y-23150745D01*
X215714924Y-23162043D01*
X215737587Y-23175627D01*
X215758810Y-23191367D01*
X215778389Y-23209111D01*
X215796133Y-23228690D01*
X215811873Y-23249913D01*
X215825457Y-23272576D01*
X215836755Y-23296462D01*
X215845656Y-23321341D01*
X215852076Y-23346972D01*
X215855953Y-23373109D01*
X215857250Y-23399500D01*
X215857250Y-23938000D01*
X215855953Y-23964391D01*
X215852076Y-23990528D01*
X215845656Y-24016159D01*
X215836755Y-24041038D01*
X215825457Y-24064924D01*
X215811873Y-24087587D01*
X215796133Y-24108810D01*
X215778389Y-24128389D01*
X215758810Y-24146133D01*
X215737587Y-24161873D01*
X215714924Y-24175457D01*
X215691038Y-24186755D01*
X215666159Y-24195656D01*
X215640528Y-24202076D01*
X215614391Y-24205953D01*
X215588000Y-24207250D01*
X214624500Y-24207250D01*
X214598109Y-24205953D01*
X214571972Y-24202076D01*
X214546341Y-24195656D01*
X214521462Y-24186755D01*
X214497576Y-24175457D01*
X214474913Y-24161873D01*
X214453690Y-24146133D01*
X214434111Y-24128389D01*
X214416367Y-24108810D01*
X214400627Y-24087587D01*
X214387043Y-24064924D01*
X214375745Y-24041038D01*
X214366844Y-24016159D01*
X214360424Y-23990528D01*
X214356547Y-23964391D01*
X214355250Y-23938000D01*
X214355250Y-23399500D01*
X214356547Y-23373109D01*
X214360424Y-23346972D01*
X214366844Y-23321341D01*
X214375745Y-23296462D01*
X214387043Y-23272576D01*
X214400627Y-23249913D01*
X214416367Y-23228690D01*
X214434111Y-23209111D01*
X214453690Y-23191367D01*
X214474913Y-23175627D01*
X214497576Y-23162043D01*
X214521462Y-23150745D01*
X214546341Y-23141844D01*
X214571972Y-23135424D01*
X214598109Y-23131547D01*
X214624500Y-23130250D01*
X215588000Y-23130250D01*
X215614391Y-23131547D01*
G37*
G36*
X211645641Y-25006547D02*
G01*
X211671778Y-25010424D01*
X211697409Y-25016844D01*
X211722288Y-25025745D01*
X211746174Y-25037043D01*
X211768837Y-25050627D01*
X211790060Y-25066367D01*
X211809639Y-25084111D01*
X211827383Y-25103690D01*
X211843123Y-25124913D01*
X211856707Y-25147576D01*
X211868005Y-25171462D01*
X211876906Y-25196341D01*
X211883326Y-25221972D01*
X211887203Y-25248109D01*
X211888500Y-25274500D01*
X211888500Y-25813000D01*
X211887203Y-25839391D01*
X211883326Y-25865528D01*
X211876906Y-25891159D01*
X211868005Y-25916038D01*
X211856707Y-25939924D01*
X211843123Y-25962587D01*
X211827383Y-25983810D01*
X211809639Y-26003389D01*
X211790060Y-26021133D01*
X211768837Y-26036873D01*
X211746174Y-26050457D01*
X211722288Y-26061755D01*
X211697409Y-26070656D01*
X211671778Y-26077076D01*
X211645641Y-26080953D01*
X211619250Y-26082250D01*
X210655750Y-26082250D01*
X210629359Y-26080953D01*
X210603222Y-26077076D01*
X210577591Y-26070656D01*
X210552712Y-26061755D01*
X210528826Y-26050457D01*
X210506163Y-26036873D01*
X210484940Y-26021133D01*
X210465361Y-26003389D01*
X210447617Y-25983810D01*
X210431877Y-25962587D01*
X210418293Y-25939924D01*
X210406995Y-25916038D01*
X210398094Y-25891159D01*
X210391674Y-25865528D01*
X210387797Y-25839391D01*
X210386500Y-25813000D01*
X210386500Y-25274500D01*
X210387797Y-25248109D01*
X210391674Y-25221972D01*
X210398094Y-25196341D01*
X210406995Y-25171462D01*
X210418293Y-25147576D01*
X210431877Y-25124913D01*
X210447617Y-25103690D01*
X210465361Y-25084111D01*
X210484940Y-25066367D01*
X210506163Y-25050627D01*
X210528826Y-25037043D01*
X210552712Y-25025745D01*
X210577591Y-25016844D01*
X210603222Y-25010424D01*
X210629359Y-25006547D01*
X210655750Y-25005250D01*
X211619250Y-25005250D01*
X211645641Y-25006547D01*
G37*
G36*
X211645641Y-23131547D02*
G01*
X211671778Y-23135424D01*
X211697409Y-23141844D01*
X211722288Y-23150745D01*
X211746174Y-23162043D01*
X211768837Y-23175627D01*
X211790060Y-23191367D01*
X211809639Y-23209111D01*
X211827383Y-23228690D01*
X211843123Y-23249913D01*
X211856707Y-23272576D01*
X211868005Y-23296462D01*
X211876906Y-23321341D01*
X211883326Y-23346972D01*
X211887203Y-23373109D01*
X211888500Y-23399500D01*
X211888500Y-23938000D01*
X211887203Y-23964391D01*
X211883326Y-23990528D01*
X211876906Y-24016159D01*
X211868005Y-24041038D01*
X211856707Y-24064924D01*
X211843123Y-24087587D01*
X211827383Y-24108810D01*
X211809639Y-24128389D01*
X211790060Y-24146133D01*
X211768837Y-24161873D01*
X211746174Y-24175457D01*
X211722288Y-24186755D01*
X211697409Y-24195656D01*
X211671778Y-24202076D01*
X211645641Y-24205953D01*
X211619250Y-24207250D01*
X210655750Y-24207250D01*
X210629359Y-24205953D01*
X210603222Y-24202076D01*
X210577591Y-24195656D01*
X210552712Y-24186755D01*
X210528826Y-24175457D01*
X210506163Y-24161873D01*
X210484940Y-24146133D01*
X210465361Y-24128389D01*
X210447617Y-24108810D01*
X210431877Y-24087587D01*
X210418293Y-24064924D01*
X210406995Y-24041038D01*
X210398094Y-24016159D01*
X210391674Y-23990528D01*
X210387797Y-23964391D01*
X210386500Y-23938000D01*
X210386500Y-23399500D01*
X210387797Y-23373109D01*
X210391674Y-23346972D01*
X210398094Y-23321341D01*
X210406995Y-23296462D01*
X210418293Y-23272576D01*
X210431877Y-23249913D01*
X210447617Y-23228690D01*
X210465361Y-23209111D01*
X210484940Y-23191367D01*
X210506163Y-23175627D01*
X210528826Y-23162043D01*
X210552712Y-23150745D01*
X210577591Y-23141844D01*
X210603222Y-23135424D01*
X210629359Y-23131547D01*
X210655750Y-23130250D01*
X211619250Y-23130250D01*
X211645641Y-23131547D01*
G37*
G36*
X182372141Y-22625297D02*
G01*
X182398278Y-22629174D01*
X182423909Y-22635594D01*
X182448788Y-22644495D01*
X182472674Y-22655793D01*
X182495337Y-22669377D01*
X182516560Y-22685117D01*
X182536139Y-22702861D01*
X182553883Y-22722440D01*
X182569623Y-22743663D01*
X182583207Y-22766326D01*
X182594505Y-22790212D01*
X182603406Y-22815091D01*
X182609826Y-22840722D01*
X182613703Y-22866859D01*
X182615000Y-22893250D01*
X182615000Y-23431750D01*
X182613703Y-23458141D01*
X182609826Y-23484278D01*
X182603406Y-23509909D01*
X182594505Y-23534788D01*
X182583207Y-23558674D01*
X182569623Y-23581337D01*
X182553883Y-23602560D01*
X182536139Y-23622139D01*
X182516560Y-23639883D01*
X182495337Y-23655623D01*
X182472674Y-23669207D01*
X182448788Y-23680505D01*
X182423909Y-23689406D01*
X182398278Y-23695826D01*
X182372141Y-23699703D01*
X182345750Y-23701000D01*
X181382250Y-23701000D01*
X181355859Y-23699703D01*
X181329722Y-23695826D01*
X181304091Y-23689406D01*
X181279212Y-23680505D01*
X181255326Y-23669207D01*
X181232663Y-23655623D01*
X181211440Y-23639883D01*
X181191861Y-23622139D01*
X181174117Y-23602560D01*
X181158377Y-23581337D01*
X181144793Y-23558674D01*
X181133495Y-23534788D01*
X181124594Y-23509909D01*
X181118174Y-23484278D01*
X181114297Y-23458141D01*
X181113000Y-23431750D01*
X181113000Y-22893250D01*
X181114297Y-22866859D01*
X181118174Y-22840722D01*
X181124594Y-22815091D01*
X181133495Y-22790212D01*
X181144793Y-22766326D01*
X181158377Y-22743663D01*
X181174117Y-22722440D01*
X181191861Y-22702861D01*
X181211440Y-22685117D01*
X181232663Y-22669377D01*
X181255326Y-22655793D01*
X181279212Y-22644495D01*
X181304091Y-22635594D01*
X181329722Y-22629174D01*
X181355859Y-22625297D01*
X181382250Y-22624000D01*
X182345750Y-22624000D01*
X182372141Y-22625297D01*
G37*
G36*
X182372141Y-20750297D02*
G01*
X182398278Y-20754174D01*
X182423909Y-20760594D01*
X182448788Y-20769495D01*
X182472674Y-20780793D01*
X182495337Y-20794377D01*
X182516560Y-20810117D01*
X182536139Y-20827861D01*
X182553883Y-20847440D01*
X182569623Y-20868663D01*
X182583207Y-20891326D01*
X182594505Y-20915212D01*
X182603406Y-20940091D01*
X182609826Y-20965722D01*
X182613703Y-20991859D01*
X182615000Y-21018250D01*
X182615000Y-21556750D01*
X182613703Y-21583141D01*
X182609826Y-21609278D01*
X182603406Y-21634909D01*
X182594505Y-21659788D01*
X182583207Y-21683674D01*
X182569623Y-21706337D01*
X182553883Y-21727560D01*
X182536139Y-21747139D01*
X182516560Y-21764883D01*
X182495337Y-21780623D01*
X182472674Y-21794207D01*
X182448788Y-21805505D01*
X182423909Y-21814406D01*
X182398278Y-21820826D01*
X182372141Y-21824703D01*
X182345750Y-21826000D01*
X181382250Y-21826000D01*
X181355859Y-21824703D01*
X181329722Y-21820826D01*
X181304091Y-21814406D01*
X181279212Y-21805505D01*
X181255326Y-21794207D01*
X181232663Y-21780623D01*
X181211440Y-21764883D01*
X181191861Y-21747139D01*
X181174117Y-21727560D01*
X181158377Y-21706337D01*
X181144793Y-21683674D01*
X181133495Y-21659788D01*
X181124594Y-21634909D01*
X181118174Y-21609278D01*
X181114297Y-21583141D01*
X181113000Y-21556750D01*
X181113000Y-21018250D01*
X181114297Y-20991859D01*
X181118174Y-20965722D01*
X181124594Y-20940091D01*
X181133495Y-20915212D01*
X181144793Y-20891326D01*
X181158377Y-20868663D01*
X181174117Y-20847440D01*
X181191861Y-20827861D01*
X181211440Y-20810117D01*
X181232663Y-20794377D01*
X181255326Y-20780793D01*
X181279212Y-20769495D01*
X181304091Y-20760594D01*
X181329722Y-20754174D01*
X181355859Y-20750297D01*
X181382250Y-20749000D01*
X182345750Y-20749000D01*
X182372141Y-20750297D01*
G37*
G36*
X208114391Y-19094047D02*
G01*
X208140528Y-19097924D01*
X208166159Y-19104344D01*
X208191038Y-19113245D01*
X208214924Y-19124543D01*
X208237587Y-19138127D01*
X208258810Y-19153867D01*
X208278389Y-19171611D01*
X208296133Y-19191190D01*
X208311873Y-19212413D01*
X208325457Y-19235076D01*
X208336755Y-19258962D01*
X208345656Y-19283841D01*
X208352076Y-19309472D01*
X208355953Y-19335609D01*
X208357250Y-19362000D01*
X208357250Y-20325500D01*
X208355953Y-20351891D01*
X208352076Y-20378028D01*
X208345656Y-20403659D01*
X208336755Y-20428538D01*
X208325457Y-20452424D01*
X208311873Y-20475087D01*
X208296133Y-20496310D01*
X208278389Y-20515889D01*
X208258810Y-20533633D01*
X208237587Y-20549373D01*
X208214924Y-20562957D01*
X208191038Y-20574255D01*
X208166159Y-20583156D01*
X208140528Y-20589576D01*
X208114391Y-20593453D01*
X208088000Y-20594750D01*
X207549500Y-20594750D01*
X207523109Y-20593453D01*
X207496972Y-20589576D01*
X207471341Y-20583156D01*
X207446462Y-20574255D01*
X207422576Y-20562957D01*
X207399913Y-20549373D01*
X207378690Y-20533633D01*
X207359111Y-20515889D01*
X207341367Y-20496310D01*
X207325627Y-20475087D01*
X207312043Y-20452424D01*
X207300745Y-20428538D01*
X207291844Y-20403659D01*
X207285424Y-20378028D01*
X207281547Y-20351891D01*
X207280250Y-20325500D01*
X207280250Y-19362000D01*
X207281547Y-19335609D01*
X207285424Y-19309472D01*
X207291844Y-19283841D01*
X207300745Y-19258962D01*
X207312043Y-19235076D01*
X207325627Y-19212413D01*
X207341367Y-19191190D01*
X207359111Y-19171611D01*
X207378690Y-19153867D01*
X207399913Y-19138127D01*
X207422576Y-19124543D01*
X207446462Y-19113245D01*
X207471341Y-19104344D01*
X207496972Y-19097924D01*
X207523109Y-19094047D01*
X207549500Y-19092750D01*
X208088000Y-19092750D01*
X208114391Y-19094047D01*
G37*
G36*
X209989391Y-19094047D02*
G01*
X210015528Y-19097924D01*
X210041159Y-19104344D01*
X210066038Y-19113245D01*
X210089924Y-19124543D01*
X210112587Y-19138127D01*
X210133810Y-19153867D01*
X210153389Y-19171611D01*
X210171133Y-19191190D01*
X210186873Y-19212413D01*
X210200457Y-19235076D01*
X210211755Y-19258962D01*
X210220656Y-19283841D01*
X210227076Y-19309472D01*
X210230953Y-19335609D01*
X210232250Y-19362000D01*
X210232250Y-20325500D01*
X210230953Y-20351891D01*
X210227076Y-20378028D01*
X210220656Y-20403659D01*
X210211755Y-20428538D01*
X210200457Y-20452424D01*
X210186873Y-20475087D01*
X210171133Y-20496310D01*
X210153389Y-20515889D01*
X210133810Y-20533633D01*
X210112587Y-20549373D01*
X210089924Y-20562957D01*
X210066038Y-20574255D01*
X210041159Y-20583156D01*
X210015528Y-20589576D01*
X209989391Y-20593453D01*
X209963000Y-20594750D01*
X209424500Y-20594750D01*
X209398109Y-20593453D01*
X209371972Y-20589576D01*
X209346341Y-20583156D01*
X209321462Y-20574255D01*
X209297576Y-20562957D01*
X209274913Y-20549373D01*
X209253690Y-20533633D01*
X209234111Y-20515889D01*
X209216367Y-20496310D01*
X209200627Y-20475087D01*
X209187043Y-20452424D01*
X209175745Y-20428538D01*
X209166844Y-20403659D01*
X209160424Y-20378028D01*
X209156547Y-20351891D01*
X209155250Y-20325500D01*
X209155250Y-19362000D01*
X209156547Y-19335609D01*
X209160424Y-19309472D01*
X209166844Y-19283841D01*
X209175745Y-19258962D01*
X209187043Y-19235076D01*
X209200627Y-19212413D01*
X209216367Y-19191190D01*
X209234111Y-19171611D01*
X209253690Y-19153867D01*
X209274913Y-19138127D01*
X209297576Y-19124543D01*
X209321462Y-19113245D01*
X209346341Y-19104344D01*
X209371972Y-19097924D01*
X209398109Y-19094047D01*
X209424500Y-19092750D01*
X209963000Y-19092750D01*
X209989391Y-19094047D01*
G37*
G36*
X198367141Y-16141297D02*
G01*
X198393278Y-16145174D01*
X198418909Y-16151594D01*
X198443788Y-16160495D01*
X198467674Y-16171793D01*
X198490337Y-16185377D01*
X198511560Y-16201117D01*
X198531139Y-16218861D01*
X198548883Y-16238440D01*
X198564623Y-16259663D01*
X198578207Y-16282326D01*
X198589505Y-16306212D01*
X198598406Y-16331091D01*
X198604826Y-16356722D01*
X198608703Y-16382859D01*
X198610000Y-16409250D01*
X198610000Y-17372750D01*
X198608703Y-17399141D01*
X198604826Y-17425278D01*
X198598406Y-17450909D01*
X198589505Y-17475788D01*
X198578207Y-17499674D01*
X198564623Y-17522337D01*
X198548883Y-17543560D01*
X198531139Y-17563139D01*
X198511560Y-17580883D01*
X198490337Y-17596623D01*
X198467674Y-17610207D01*
X198443788Y-17621505D01*
X198418909Y-17630406D01*
X198393278Y-17636826D01*
X198367141Y-17640703D01*
X198340750Y-17642000D01*
X197802250Y-17642000D01*
X197775859Y-17640703D01*
X197749722Y-17636826D01*
X197724091Y-17630406D01*
X197699212Y-17621505D01*
X197675326Y-17610207D01*
X197652663Y-17596623D01*
X197631440Y-17580883D01*
X197611861Y-17563139D01*
X197594117Y-17543560D01*
X197578377Y-17522337D01*
X197564793Y-17499674D01*
X197553495Y-17475788D01*
X197544594Y-17450909D01*
X197538174Y-17425278D01*
X197534297Y-17399141D01*
X197533000Y-17372750D01*
X197533000Y-16409250D01*
X197534297Y-16382859D01*
X197538174Y-16356722D01*
X197544594Y-16331091D01*
X197553495Y-16306212D01*
X197564793Y-16282326D01*
X197578377Y-16259663D01*
X197594117Y-16238440D01*
X197611861Y-16218861D01*
X197631440Y-16201117D01*
X197652663Y-16185377D01*
X197675326Y-16171793D01*
X197699212Y-16160495D01*
X197724091Y-16151594D01*
X197749722Y-16145174D01*
X197775859Y-16141297D01*
X197802250Y-16140000D01*
X198340750Y-16140000D01*
X198367141Y-16141297D01*
G37*
G36*
X200242141Y-16141297D02*
G01*
X200268278Y-16145174D01*
X200293909Y-16151594D01*
X200318788Y-16160495D01*
X200342674Y-16171793D01*
X200365337Y-16185377D01*
X200386560Y-16201117D01*
X200406139Y-16218861D01*
X200423883Y-16238440D01*
X200439623Y-16259663D01*
X200453207Y-16282326D01*
X200464505Y-16306212D01*
X200473406Y-16331091D01*
X200479826Y-16356722D01*
X200483703Y-16382859D01*
X200485000Y-16409250D01*
X200485000Y-17372750D01*
X200483703Y-17399141D01*
X200479826Y-17425278D01*
X200473406Y-17450909D01*
X200464505Y-17475788D01*
X200453207Y-17499674D01*
X200439623Y-17522337D01*
X200423883Y-17543560D01*
X200406139Y-17563139D01*
X200386560Y-17580883D01*
X200365337Y-17596623D01*
X200342674Y-17610207D01*
X200318788Y-17621505D01*
X200293909Y-17630406D01*
X200268278Y-17636826D01*
X200242141Y-17640703D01*
X200215750Y-17642000D01*
X199677250Y-17642000D01*
X199650859Y-17640703D01*
X199624722Y-17636826D01*
X199599091Y-17630406D01*
X199574212Y-17621505D01*
X199550326Y-17610207D01*
X199527663Y-17596623D01*
X199506440Y-17580883D01*
X199486861Y-17563139D01*
X199469117Y-17543560D01*
X199453377Y-17522337D01*
X199439793Y-17499674D01*
X199428495Y-17475788D01*
X199419594Y-17450909D01*
X199413174Y-17425278D01*
X199409297Y-17399141D01*
X199408000Y-17372750D01*
X199408000Y-16409250D01*
X199409297Y-16382859D01*
X199413174Y-16356722D01*
X199419594Y-16331091D01*
X199428495Y-16306212D01*
X199439793Y-16282326D01*
X199453377Y-16259663D01*
X199469117Y-16238440D01*
X199486861Y-16218861D01*
X199506440Y-16201117D01*
X199527663Y-16185377D01*
X199550326Y-16171793D01*
X199574212Y-16160495D01*
X199599091Y-16151594D01*
X199624722Y-16145174D01*
X199650859Y-16141297D01*
X199677250Y-16140000D01*
X200215750Y-16140000D01*
X200242141Y-16141297D01*
G37*
G36*
X233870641Y-27894047D02*
G01*
X233896778Y-27897924D01*
X233922409Y-27904344D01*
X233947288Y-27913245D01*
X233971174Y-27924543D01*
X233993837Y-27938127D01*
X234015060Y-27953867D01*
X234034639Y-27971611D01*
X234052383Y-27991190D01*
X234068123Y-28012413D01*
X234081707Y-28035076D01*
X234093005Y-28058962D01*
X234101906Y-28083841D01*
X234108326Y-28109472D01*
X234112203Y-28135609D01*
X234113500Y-28162000D01*
X234113500Y-28700500D01*
X234112203Y-28726891D01*
X234108326Y-28753028D01*
X234101906Y-28778659D01*
X234093005Y-28803538D01*
X234081707Y-28827424D01*
X234068123Y-28850087D01*
X234052383Y-28871310D01*
X234034639Y-28890889D01*
X234015060Y-28908633D01*
X233993837Y-28924373D01*
X233971174Y-28937957D01*
X233947288Y-28949255D01*
X233922409Y-28958156D01*
X233896778Y-28964576D01*
X233870641Y-28968453D01*
X233844250Y-28969750D01*
X232880750Y-28969750D01*
X232854359Y-28968453D01*
X232828222Y-28964576D01*
X232802591Y-28958156D01*
X232777712Y-28949255D01*
X232753826Y-28937957D01*
X232731163Y-28924373D01*
X232709940Y-28908633D01*
X232690361Y-28890889D01*
X232672617Y-28871310D01*
X232656877Y-28850087D01*
X232643293Y-28827424D01*
X232631995Y-28803538D01*
X232623094Y-28778659D01*
X232616674Y-28753028D01*
X232612797Y-28726891D01*
X232611500Y-28700500D01*
X232611500Y-28162000D01*
X232612797Y-28135609D01*
X232616674Y-28109472D01*
X232623094Y-28083841D01*
X232631995Y-28058962D01*
X232643293Y-28035076D01*
X232656877Y-28012413D01*
X232672617Y-27991190D01*
X232690361Y-27971611D01*
X232709940Y-27953867D01*
X232731163Y-27938127D01*
X232753826Y-27924543D01*
X232777712Y-27913245D01*
X232802591Y-27904344D01*
X232828222Y-27897924D01*
X232854359Y-27894047D01*
X232880750Y-27892750D01*
X233844250Y-27892750D01*
X233870641Y-27894047D01*
G37*
G36*
X233870641Y-29769047D02*
G01*
X233896778Y-29772924D01*
X233922409Y-29779344D01*
X233947288Y-29788245D01*
X233971174Y-29799543D01*
X233993837Y-29813127D01*
X234015060Y-29828867D01*
X234034639Y-29846611D01*
X234052383Y-29866190D01*
X234068123Y-29887413D01*
X234081707Y-29910076D01*
X234093005Y-29933962D01*
X234101906Y-29958841D01*
X234108326Y-29984472D01*
X234112203Y-30010609D01*
X234113500Y-30037000D01*
X234113500Y-30575500D01*
X234112203Y-30601891D01*
X234108326Y-30628028D01*
X234101906Y-30653659D01*
X234093005Y-30678538D01*
X234081707Y-30702424D01*
X234068123Y-30725087D01*
X234052383Y-30746310D01*
X234034639Y-30765889D01*
X234015060Y-30783633D01*
X233993837Y-30799373D01*
X233971174Y-30812957D01*
X233947288Y-30824255D01*
X233922409Y-30833156D01*
X233896778Y-30839576D01*
X233870641Y-30843453D01*
X233844250Y-30844750D01*
X232880750Y-30844750D01*
X232854359Y-30843453D01*
X232828222Y-30839576D01*
X232802591Y-30833156D01*
X232777712Y-30824255D01*
X232753826Y-30812957D01*
X232731163Y-30799373D01*
X232709940Y-30783633D01*
X232690361Y-30765889D01*
X232672617Y-30746310D01*
X232656877Y-30725087D01*
X232643293Y-30702424D01*
X232631995Y-30678538D01*
X232623094Y-30653659D01*
X232616674Y-30628028D01*
X232612797Y-30601891D01*
X232611500Y-30575500D01*
X232611500Y-30037000D01*
X232612797Y-30010609D01*
X232616674Y-29984472D01*
X232623094Y-29958841D01*
X232631995Y-29933962D01*
X232643293Y-29910076D01*
X232656877Y-29887413D01*
X232672617Y-29866190D01*
X232690361Y-29846611D01*
X232709940Y-29828867D01*
X232731163Y-29813127D01*
X232753826Y-29799543D01*
X232777712Y-29788245D01*
X232802591Y-29779344D01*
X232828222Y-29772924D01*
X232854359Y-29769047D01*
X232880750Y-29767750D01*
X233844250Y-29767750D01*
X233870641Y-29769047D01*
G37*
G36*
X225933141Y-29769047D02*
G01*
X225959278Y-29772924D01*
X225984909Y-29779344D01*
X226009788Y-29788245D01*
X226033674Y-29799543D01*
X226056337Y-29813127D01*
X226077560Y-29828867D01*
X226097139Y-29846611D01*
X226114883Y-29866190D01*
X226130623Y-29887413D01*
X226144207Y-29910076D01*
X226155505Y-29933962D01*
X226164406Y-29958841D01*
X226170826Y-29984472D01*
X226174703Y-30010609D01*
X226176000Y-30037000D01*
X226176000Y-30575500D01*
X226174703Y-30601891D01*
X226170826Y-30628028D01*
X226164406Y-30653659D01*
X226155505Y-30678538D01*
X226144207Y-30702424D01*
X226130623Y-30725087D01*
X226114883Y-30746310D01*
X226097139Y-30765889D01*
X226077560Y-30783633D01*
X226056337Y-30799373D01*
X226033674Y-30812957D01*
X226009788Y-30824255D01*
X225984909Y-30833156D01*
X225959278Y-30839576D01*
X225933141Y-30843453D01*
X225906750Y-30844750D01*
X224943250Y-30844750D01*
X224916859Y-30843453D01*
X224890722Y-30839576D01*
X224865091Y-30833156D01*
X224840212Y-30824255D01*
X224816326Y-30812957D01*
X224793663Y-30799373D01*
X224772440Y-30783633D01*
X224752861Y-30765889D01*
X224735117Y-30746310D01*
X224719377Y-30725087D01*
X224705793Y-30702424D01*
X224694495Y-30678538D01*
X224685594Y-30653659D01*
X224679174Y-30628028D01*
X224675297Y-30601891D01*
X224674000Y-30575500D01*
X224674000Y-30037000D01*
X224675297Y-30010609D01*
X224679174Y-29984472D01*
X224685594Y-29958841D01*
X224694495Y-29933962D01*
X224705793Y-29910076D01*
X224719377Y-29887413D01*
X224735117Y-29866190D01*
X224752861Y-29846611D01*
X224772440Y-29828867D01*
X224793663Y-29813127D01*
X224816326Y-29799543D01*
X224840212Y-29788245D01*
X224865091Y-29779344D01*
X224890722Y-29772924D01*
X224916859Y-29769047D01*
X224943250Y-29767750D01*
X225906750Y-29767750D01*
X225933141Y-29769047D01*
G37*
G36*
X225933141Y-27894047D02*
G01*
X225959278Y-27897924D01*
X225984909Y-27904344D01*
X226009788Y-27913245D01*
X226033674Y-27924543D01*
X226056337Y-27938127D01*
X226077560Y-27953867D01*
X226097139Y-27971611D01*
X226114883Y-27991190D01*
X226130623Y-28012413D01*
X226144207Y-28035076D01*
X226155505Y-28058962D01*
X226164406Y-28083841D01*
X226170826Y-28109472D01*
X226174703Y-28135609D01*
X226176000Y-28162000D01*
X226176000Y-28700500D01*
X226174703Y-28726891D01*
X226170826Y-28753028D01*
X226164406Y-28778659D01*
X226155505Y-28803538D01*
X226144207Y-28827424D01*
X226130623Y-28850087D01*
X226114883Y-28871310D01*
X226097139Y-28890889D01*
X226077560Y-28908633D01*
X226056337Y-28924373D01*
X226033674Y-28937957D01*
X226009788Y-28949255D01*
X225984909Y-28958156D01*
X225959278Y-28964576D01*
X225933141Y-28968453D01*
X225906750Y-28969750D01*
X224943250Y-28969750D01*
X224916859Y-28968453D01*
X224890722Y-28964576D01*
X224865091Y-28958156D01*
X224840212Y-28949255D01*
X224816326Y-28937957D01*
X224793663Y-28924373D01*
X224772440Y-28908633D01*
X224752861Y-28890889D01*
X224735117Y-28871310D01*
X224719377Y-28850087D01*
X224705793Y-28827424D01*
X224694495Y-28803538D01*
X224685594Y-28778659D01*
X224679174Y-28753028D01*
X224675297Y-28726891D01*
X224674000Y-28700500D01*
X224674000Y-28162000D01*
X224675297Y-28135609D01*
X224679174Y-28109472D01*
X224685594Y-28083841D01*
X224694495Y-28058962D01*
X224705793Y-28035076D01*
X224719377Y-28012413D01*
X224735117Y-27991190D01*
X224752861Y-27971611D01*
X224772440Y-27953867D01*
X224793663Y-27938127D01*
X224816326Y-27924543D01*
X224840212Y-27913245D01*
X224865091Y-27904344D01*
X224890722Y-27897924D01*
X224916859Y-27894047D01*
X224943250Y-27892750D01*
X225906750Y-27892750D01*
X225933141Y-27894047D01*
G37*
M02*
