G04 #@! TF.GenerationSoftware,KiCad,Pcbnew,(5.1.5)-3*
G04 #@! TF.CreationDate,2020-03-25T22:32:38+08:00*
G04 #@! TF.ProjectId,PCB Design,50434220-4465-4736-9967-6e2e6b696361,rev?*
G04 #@! TF.SameCoordinates,Original*
G04 #@! TF.FileFunction,Legend,Top*
G04 #@! TF.FilePolarity,Positive*
%FSLAX46Y46*%
G04 Gerber Fmt 4.6, Leading zero omitted, Abs format (unit mm)*
G04 Created by KiCad (PCBNEW (5.1.5)-3) date 2020-03-25 22:32:38*
%MOMM*%
%LPD*%
G04 APERTURE LIST*
%ADD10C,0.150000*%
%ADD11C,0.100000*%
%ADD12C,0.120000*%
%ADD13C,0.254000*%
%ADD14O,1.802000X1.802000*%
%ADD15R,1.802000X1.802000*%
%ADD16C,4.089800*%
%ADD17C,1.852000*%
%ADD18C,3.150000*%
%ADD19O,1.802000X2.802000*%
%ADD20C,1.202000*%
%ADD21C,1.602000*%
G04 APERTURE END LIST*
D10*
X319794607Y-55562500D02*
G75*
G03X319794607Y-55562500I-707107J0D01*
G01*
X322087500Y-55562500D02*
G75*
G03X322087500Y-55562500I-3000000J0D01*
G01*
D11*
X327587500Y-55062500D02*
X327587500Y-56062500D01*
X310587500Y-55062500D02*
X310587500Y-56062500D01*
X327587500Y-61562500D02*
X327587500Y-58062500D01*
X325087500Y-64062500D02*
X327587500Y-61562500D01*
X318587500Y-64062500D02*
X325087500Y-64062500D01*
X313087500Y-64062500D02*
X316587500Y-64062500D01*
X310587500Y-61562500D02*
X313087500Y-64062500D01*
X310587500Y-58062500D02*
X310587500Y-61562500D01*
X327587500Y-49562500D02*
X327587500Y-53062500D01*
X325087500Y-47062500D02*
X327587500Y-49562500D01*
X321587500Y-47062500D02*
X325087500Y-47062500D01*
X313087500Y-47062500D02*
X316587500Y-47062500D01*
X310587500Y-49562500D02*
X313087500Y-47062500D01*
X310587500Y-53062500D02*
X310587500Y-49562500D01*
D12*
X50860000Y-29270000D02*
X49530000Y-29270000D01*
X50860000Y-27940000D02*
X50860000Y-29270000D01*
X50860000Y-26670000D02*
X48200000Y-26670000D01*
X48200000Y-26670000D02*
X48200000Y-18990000D01*
X50860000Y-26670000D02*
X50860000Y-18990000D01*
X50860000Y-18990000D02*
X48200000Y-18990000D01*
D13*
X315096071Y-52076547D02*
X315277500Y-52137023D01*
X315579880Y-52137023D01*
X315700833Y-52076547D01*
X315761309Y-52016071D01*
X315821785Y-51895119D01*
X315821785Y-51774166D01*
X315761309Y-51653214D01*
X315700833Y-51592738D01*
X315579880Y-51532261D01*
X315337976Y-51471785D01*
X315217023Y-51411309D01*
X315156547Y-51350833D01*
X315096071Y-51229880D01*
X315096071Y-51108928D01*
X315156547Y-50987976D01*
X315217023Y-50927500D01*
X315337976Y-50867023D01*
X315640357Y-50867023D01*
X315821785Y-50927500D01*
X317091785Y-52137023D02*
X316668452Y-51532261D01*
X316366071Y-52137023D02*
X316366071Y-50867023D01*
X316849880Y-50867023D01*
X316970833Y-50927500D01*
X317031309Y-50987976D01*
X317091785Y-51108928D01*
X317091785Y-51290357D01*
X317031309Y-51411309D01*
X316970833Y-51471785D01*
X316849880Y-51532261D01*
X316366071Y-51532261D01*
X317817500Y-52137023D02*
X317696547Y-52076547D01*
X317636071Y-52016071D01*
X317575595Y-51895119D01*
X317575595Y-51532261D01*
X317636071Y-51411309D01*
X317696547Y-51350833D01*
X317817500Y-51290357D01*
X317998928Y-51290357D01*
X318119880Y-51350833D01*
X318180357Y-51411309D01*
X318240833Y-51532261D01*
X318240833Y-51895119D01*
X318180357Y-52016071D01*
X318119880Y-52076547D01*
X317998928Y-52137023D01*
X317817500Y-52137023D01*
X318603690Y-51290357D02*
X319087500Y-51290357D01*
X318785119Y-50867023D02*
X318785119Y-51955595D01*
X318845595Y-52076547D01*
X318966547Y-52137023D01*
X319087500Y-52137023D01*
X320055119Y-52137023D02*
X320055119Y-51471785D01*
X319994642Y-51350833D01*
X319873690Y-51290357D01*
X319631785Y-51290357D01*
X319510833Y-51350833D01*
X320055119Y-52076547D02*
X319934166Y-52137023D01*
X319631785Y-52137023D01*
X319510833Y-52076547D01*
X319450357Y-51955595D01*
X319450357Y-51834642D01*
X319510833Y-51713690D01*
X319631785Y-51653214D01*
X319934166Y-51653214D01*
X320055119Y-51592738D01*
X320659880Y-52137023D02*
X320659880Y-51290357D01*
X320659880Y-51532261D02*
X320720357Y-51411309D01*
X320780833Y-51350833D01*
X320901785Y-51290357D01*
X321022738Y-51290357D01*
X321325119Y-51290357D02*
X321627500Y-52137023D01*
X321929880Y-51290357D02*
X321627500Y-52137023D01*
X321506547Y-52439404D01*
X321446071Y-52499880D01*
X321325119Y-52560357D01*
X322957976Y-51290357D02*
X322957976Y-52137023D01*
X322655595Y-50806547D02*
X322353214Y-51713690D01*
X323139404Y-51713690D01*
D10*
X49196666Y-29722380D02*
X49196666Y-30436666D01*
X49149047Y-30579523D01*
X49053809Y-30674761D01*
X48910952Y-30722380D01*
X48815714Y-30722380D01*
X50196666Y-30722380D02*
X49625238Y-30722380D01*
X49910952Y-30722380D02*
X49910952Y-29722380D01*
X49815714Y-29865238D01*
X49720476Y-29960476D01*
X49625238Y-30008095D01*
%LPC*%
D14*
X106680000Y-23241000D03*
X109220000Y-23241000D03*
X106680000Y-25781000D03*
X109220000Y-25781000D03*
X106680000Y-28321000D03*
D15*
X109220000Y-28321000D03*
D16*
X66675000Y-84137500D03*
D17*
X61595000Y-84137500D03*
X71755000Y-84137500D03*
D16*
X214312500Y-65087500D03*
D17*
X209232500Y-65087500D03*
X219392500Y-65087500D03*
D16*
X154781250Y-122237500D03*
D17*
X149701250Y-122237500D03*
X159861250Y-122237500D03*
D18*
X104781350Y-129222500D03*
X204781150Y-129222500D03*
D16*
X104781350Y-113982500D03*
X204781150Y-113982500D03*
X295275000Y-107950000D03*
D17*
X290195000Y-107950000D03*
X300355000Y-107950000D03*
D16*
X45243750Y-103187500D03*
D17*
X40163750Y-103187500D03*
X50323750Y-103187500D03*
D18*
X33337500Y-96202500D03*
X57150000Y-96202500D03*
D16*
X33337500Y-111442500D03*
X57150000Y-111442500D03*
X295275000Y-65087500D03*
D17*
X290195000Y-65087500D03*
X300355000Y-65087500D03*
D16*
X204787500Y-46037500D03*
D17*
X199707500Y-46037500D03*
X209867500Y-46037500D03*
D16*
X128587500Y-46037500D03*
D17*
X123507500Y-46037500D03*
X133667500Y-46037500D03*
D16*
X109537500Y-46037500D03*
D17*
X104457500Y-46037500D03*
X114617500Y-46037500D03*
D16*
X90487500Y-46037500D03*
D17*
X85407500Y-46037500D03*
X95567500Y-46037500D03*
D16*
X33337500Y-46037500D03*
D17*
X28257500Y-46037500D03*
X38417500Y-46037500D03*
D16*
X61912500Y-65087500D03*
D17*
X56832500Y-65087500D03*
X66992500Y-65087500D03*
D16*
X38100000Y-65087500D03*
D17*
X33020000Y-65087500D03*
X43180000Y-65087500D03*
D16*
X166687500Y-46037500D03*
D17*
X161607500Y-46037500D03*
X171767500Y-46037500D03*
D16*
X269081250Y-103187500D03*
D17*
X264001250Y-103187500D03*
X274161250Y-103187500D03*
D16*
X226218750Y-122237500D03*
D17*
X221138750Y-122237500D03*
X231298750Y-122237500D03*
D19*
X165260000Y-14224000D03*
X172560000Y-14224000D03*
X172560000Y-18724000D03*
X165260000Y-18724000D03*
D20*
X315287500Y-57062500D03*
D21*
X311287500Y-57062500D03*
X311287500Y-54062500D03*
X317587500Y-47762500D03*
X318087500Y-49782500D03*
X320587500Y-47762500D03*
X326887500Y-54062500D03*
X326887500Y-57062500D03*
X325947500Y-59312500D03*
X320087500Y-62542500D03*
X317587500Y-63362500D03*
D16*
X59531250Y-122237500D03*
D17*
X54451250Y-122237500D03*
X64611250Y-122237500D03*
D16*
X314325000Y-127000000D03*
D17*
X309245000Y-127000000D03*
X319405000Y-127000000D03*
D16*
X276225000Y-127000000D03*
D17*
X271145000Y-127000000D03*
X281305000Y-127000000D03*
D16*
X35718750Y-122237500D03*
D17*
X30638750Y-122237500D03*
X40798750Y-122237500D03*
D16*
X83343750Y-122237500D03*
D17*
X78263750Y-122237500D03*
X88423750Y-122237500D03*
D16*
X250031250Y-122237500D03*
D17*
X244951250Y-122237500D03*
X255111250Y-122237500D03*
D16*
X295275000Y-127000000D03*
D17*
X290195000Y-127000000D03*
X300355000Y-127000000D03*
D16*
X76200000Y-103187500D03*
D17*
X71120000Y-103187500D03*
X81280000Y-103187500D03*
D16*
X95250000Y-103187500D03*
D17*
X90170000Y-103187500D03*
X100330000Y-103187500D03*
D16*
X133350000Y-103187500D03*
D17*
X128270000Y-103187500D03*
X138430000Y-103187500D03*
D16*
X247650000Y-103187500D03*
D17*
X242570000Y-103187500D03*
X252730000Y-103187500D03*
D16*
X228600000Y-103187500D03*
D17*
X223520000Y-103187500D03*
X233680000Y-103187500D03*
D16*
X171450000Y-103187500D03*
D17*
X166370000Y-103187500D03*
X176530000Y-103187500D03*
D16*
X190500000Y-103187500D03*
D17*
X185420000Y-103187500D03*
X195580000Y-103187500D03*
D16*
X209550000Y-103187500D03*
D17*
X204470000Y-103187500D03*
X214630000Y-103187500D03*
D16*
X114300000Y-103187500D03*
D17*
X109220000Y-103187500D03*
X119380000Y-103187500D03*
D16*
X152400000Y-103187500D03*
D17*
X147320000Y-103187500D03*
X157480000Y-103187500D03*
D16*
X85725000Y-84137500D03*
D17*
X80645000Y-84137500D03*
X90805000Y-84137500D03*
D16*
X219075000Y-84137500D03*
D17*
X213995000Y-84137500D03*
X224155000Y-84137500D03*
D16*
X200025000Y-84137500D03*
D17*
X194945000Y-84137500D03*
X205105000Y-84137500D03*
D16*
X180975000Y-84137500D03*
D17*
X175895000Y-84137500D03*
X186055000Y-84137500D03*
D16*
X161925000Y-84137500D03*
D17*
X156845000Y-84137500D03*
X167005000Y-84137500D03*
D16*
X142875000Y-84137500D03*
D17*
X137795000Y-84137500D03*
X147955000Y-84137500D03*
D16*
X123825000Y-84137500D03*
D17*
X118745000Y-84137500D03*
X128905000Y-84137500D03*
D16*
X288131250Y-84137500D03*
D17*
X283051250Y-84137500D03*
X293211250Y-84137500D03*
D18*
X276225000Y-77152500D03*
X300037500Y-77152500D03*
D16*
X276225000Y-92392500D03*
X300037500Y-92392500D03*
X104775000Y-84137500D03*
D17*
X99695000Y-84137500D03*
X109855000Y-84137500D03*
D16*
X40481250Y-84137500D03*
D17*
X35401250Y-84137500D03*
X45561250Y-84137500D03*
D16*
X257175000Y-84137500D03*
D17*
X252095000Y-84137500D03*
X262255000Y-84137500D03*
D16*
X238125000Y-84137500D03*
D17*
X233045000Y-84137500D03*
X243205000Y-84137500D03*
D16*
X157162500Y-65087500D03*
D17*
X152082500Y-65087500D03*
X162242500Y-65087500D03*
D16*
X80962500Y-65087500D03*
D17*
X75882500Y-65087500D03*
X86042500Y-65087500D03*
D16*
X176212500Y-65087500D03*
D17*
X171132500Y-65087500D03*
X181292500Y-65087500D03*
D16*
X138112500Y-65087500D03*
D17*
X133032500Y-65087500D03*
X143192500Y-65087500D03*
D16*
X119062500Y-65087500D03*
D17*
X113982500Y-65087500D03*
X124142500Y-65087500D03*
D16*
X233362500Y-65087500D03*
D17*
X228282500Y-65087500D03*
X238442500Y-65087500D03*
D16*
X195262500Y-65087500D03*
D17*
X190182500Y-65087500D03*
X200342500Y-65087500D03*
D16*
X100012500Y-65087500D03*
D17*
X94932500Y-65087500D03*
X105092500Y-65087500D03*
D16*
X271462500Y-65087500D03*
D17*
X266382500Y-65087500D03*
X276542500Y-65087500D03*
D16*
X252412500Y-65087500D03*
D17*
X247332500Y-65087500D03*
X257492500Y-65087500D03*
D16*
X242887500Y-46037500D03*
D17*
X237807500Y-46037500D03*
X247967500Y-46037500D03*
D16*
X290512500Y-46037500D03*
D17*
X285432500Y-46037500D03*
X295592500Y-46037500D03*
D18*
X278606250Y-39052500D03*
X302418750Y-39052500D03*
D16*
X278606250Y-54292500D03*
X302418750Y-54292500D03*
X261937500Y-46037500D03*
D17*
X256857500Y-46037500D03*
X267017500Y-46037500D03*
D16*
X185737500Y-46037500D03*
D17*
X180657500Y-46037500D03*
X190817500Y-46037500D03*
D16*
X147637500Y-46037500D03*
D17*
X142557500Y-46037500D03*
X152717500Y-46037500D03*
D16*
X71437500Y-46037500D03*
D17*
X66357500Y-46037500D03*
X76517500Y-46037500D03*
D16*
X52387500Y-46037500D03*
D17*
X47307500Y-46037500D03*
X57467500Y-46037500D03*
D16*
X223837500Y-46037500D03*
D17*
X218757500Y-46037500D03*
X228917500Y-46037500D03*
D14*
X49530000Y-20320000D03*
X49530000Y-22860000D03*
X49530000Y-25400000D03*
D15*
X49530000Y-27940000D03*
M02*
