M48
; DRILL file {KiCad (5.1.5)-3} date 25/03/2020 10:34:25 PM
; FORMAT={-:-/ absolute / inch / decimal}
; #@! TF.CreationDate,2020-03-25T22:34:25+08:00
; #@! TF.GenerationSoftware,Kicad,Pcbnew,(5.1.5)-3
; #@! TF.FileFunction,NonPlated,1,2,NPTH
FMAT,2
INCH
T1C0.0689
T2C0.1200
T3C0.1570
%
G90
G05
T1
X4.8625Y-1.8125
X5.2625Y-1.8125
X3.175Y-3.3125
X3.575Y-3.3125
X6.175Y-3.3125
X6.575Y-3.3125
X3.55Y-4.0625
X3.95Y-4.0625
X7.1125Y-1.8125
X7.5125Y-1.8125
X2.9875Y-2.5625
X3.3875Y-2.5625
X9.6437Y-4.8125
X10.0437Y-4.8125
X11.425Y-5.0
X11.825Y-5.0
X11.425Y-2.5625
X11.825Y-2.5625
X7.3Y-4.0625
X7.7Y-4.0625
X9.55Y-4.0625
X9.95Y-4.0625
X8.05Y-4.0625
X8.45Y-4.0625
X8.2375Y-2.5625
X8.6375Y-2.5625
X2.425Y-3.3125
X2.825Y-3.3125
X10.1125Y-1.8125
X10.5125Y-1.8125
X4.4875Y-2.5625
X4.8875Y-2.5625
X2.2375Y-2.5625
X2.6375Y-2.5625
X1.1125Y-1.8125
X1.5125Y-1.8125
X11.425Y-4.25
X11.825Y-4.25
X6.55Y-4.0625
X6.95Y-4.0625
X8.425Y-3.3125
X8.825Y-3.3125
X5.05Y-4.0625
X5.45Y-4.0625
X6.7375Y-2.5625
X7.1375Y-2.5625
X9.3625Y-1.8125
X9.7625Y-1.8125
X6.3625Y-1.8125
X6.7625Y-1.8125
X8.9875Y-2.5625
X9.3875Y-2.5625
X3.0812Y-4.8125
X3.4812Y-4.8125
X1.3Y-2.5625
X1.7Y-2.5625
X1.8625Y-1.8125
X2.2625Y-1.8125
X5.8937Y-4.8125
X6.2938Y-4.8125
X4.1125Y-1.8125
X4.5125Y-1.8125
X4.3Y-4.0625
X4.7Y-4.0625
X7.675Y-3.3125
X8.075Y-3.3125
X6.925Y-3.3125
X7.325Y-3.3125
X9.925Y-3.3125
X10.325Y-3.3125
X11.2375Y-1.8125
X11.6375Y-1.8125
X5.9875Y-2.5625
X6.3875Y-2.5625
X8.7062Y-4.8125
X9.1062Y-4.8125
X10.675Y-5.0
X11.075Y-5.0
X8.6125Y-1.8125
X9.0125Y-1.8125
X7.8625Y-1.8125
X8.2625Y-1.8125
X5.8Y-4.0625
X6.2Y-4.0625
X11.1437Y-3.3125
X11.5437Y-3.3125
X10.4875Y-2.5625
X10.8875Y-2.5625
X9.7375Y-2.5625
X10.1375Y-2.5625
X1.3938Y-3.3125
X1.7937Y-3.3125
X2.1437Y-4.8125
X2.5437Y-4.8125
X12.175Y-5.0
X12.575Y-5.0
X2.6125Y-1.8125
X3.0125Y-1.8125
X1.5813Y-4.0625
X1.9812Y-4.0625
X8.8Y-4.0625
X9.2Y-4.0625
X4.675Y-3.3125
X5.075Y-3.3125
X5.2375Y-2.5625
X5.6375Y-2.5625
X3.7375Y-2.5625
X4.1375Y-2.5625
X1.2063Y-4.8125
X1.6062Y-4.8125
X9.175Y-3.3125
X9.575Y-3.3125
X3.3625Y-1.8125
X3.7625Y-1.8125
X3.925Y-3.3125
X4.325Y-3.3125
X5.425Y-3.3125
X5.825Y-3.3125
X5.6125Y-1.8125
X6.0125Y-1.8125
X7.4875Y-2.5625
X7.8875Y-2.5625
X10.3937Y-4.0625
X10.7937Y-4.0625
X2.8Y-4.0625
X3.2Y-4.0625
T2
X4.1253Y-5.0875
X8.0623Y-5.0875
X10.9688Y-1.5375
X11.9062Y-1.5375
X10.875Y-3.0375
X11.8125Y-3.0375
X1.3125Y-3.7875
X2.25Y-3.7875
T3
X7.5Y-4.0625
X9.75Y-4.0625
X8.25Y-4.0625
X8.4375Y-2.5625
X2.625Y-3.3125
X10.3125Y-1.8125
X4.6875Y-2.5625
X2.4375Y-2.5625
X1.3125Y-1.8125
X11.625Y-4.25
X6.75Y-4.0625
X8.625Y-3.3125
X5.25Y-4.0625
X6.9375Y-2.5625
X9.5625Y-1.8125
X6.5625Y-1.8125
X9.1875Y-2.5625
X3.2812Y-4.8125
X1.5Y-2.5625
X2.0625Y-1.8125
X4.1253Y-4.4875
X6.0938Y-4.8125
X8.0623Y-4.4875
X4.3125Y-1.8125
X4.5Y-4.0625
X7.875Y-3.3125
X7.125Y-3.3125
X10.125Y-3.3125
X10.9688Y-2.1375
X11.4375Y-1.8125
X11.9062Y-2.1375
X6.1875Y-2.5625
X8.9062Y-4.8125
X10.875Y-5.0
X8.8125Y-1.8125
X8.0625Y-1.8125
X6.0Y-4.0625
X10.875Y-3.6375
X11.3438Y-3.3125
X11.8125Y-3.6375
X10.6875Y-2.5625
X9.9375Y-2.5625
X1.5938Y-3.3125
X2.3438Y-4.8125
X12.375Y-5.0
X2.8125Y-1.8125
X1.3125Y-4.3875
X1.7812Y-4.0625
X2.25Y-4.3875
X9.0Y-4.0625
X4.875Y-3.3125
X5.4375Y-2.5625
X3.9375Y-2.5625
X1.4062Y-4.8125
X9.375Y-3.3125
X3.5625Y-1.8125
X4.125Y-3.3125
X5.625Y-3.3125
X5.8125Y-1.8125
X7.6875Y-2.5625
X10.5938Y-4.0625
X3.0Y-4.0625
X5.0625Y-1.8125
X3.375Y-3.3125
X6.375Y-3.3125
X3.75Y-4.0625
X7.3125Y-1.8125
X3.1875Y-2.5625
X9.8438Y-4.8125
X11.625Y-5.0
X11.625Y-2.5625
T0
M30
