M48
; DRILL file {KiCad (5.1.5)-3} date 25/03/2020 10:34:25 PM
; FORMAT={-:-/ absolute / inch / decimal}
; #@! TF.CreationDate,2020-03-25T22:34:25+08:00
; #@! TF.GenerationSoftware,Kicad,Pcbnew,(5.1.5)-3
; #@! TF.FileFunction,Plated,1,2,PTH
FMAT,2
INCH
T1C0.0157
T2C0.0276
T3C0.0394
T4C0.0433
T5C0.0579
%
G90
G05
T1
X2.5Y-1.18
X4.58Y-0.91
X5.7402Y-0.9902
X5.745Y-1.0941
X5.75Y-1.0312
X6.81Y-0.985
X7.05Y-1.06
X7.08Y-0.845
X7.09Y-1.195
X7.095Y-1.125
X7.105Y-1.015
X7.12Y-1.1571
X7.12Y-1.225
X7.155Y-0.96
X7.185Y-1.24
X7.22Y-1.2
X7.38Y-0.925
X7.38Y-1.27
X7.395Y-0.725
X7.475Y-1.455
X7.475Y-1.52
X7.505Y-1.485
X7.8419Y-1.485
X7.845Y-1.5775
X7.88Y-0.7381
X7.9036Y-0.7754
X7.905Y-1.57
X7.92Y-1.48
X7.94Y-0.815
X7.97Y-0.7
X8.12Y-0.9
X8.145Y-0.68
X8.15Y-1.41
X9.875Y-2.105
X11.185Y-2.8
X11.465Y-3.8
X11.8438Y-4.1562
X12.125Y-2.5625
X12.1562Y-2.1875
X12.1562Y-2.1875
X12.1562Y-2.1875
X12.375Y-3.2812
X12.375Y-3.2812
X12.4062Y-2.0625
X12.5Y-1.5938
X13.0Y-2.5
X13.0Y-2.5
X13.0Y-2.5
X13.0Y-2.5
T3
X4.2Y-0.915
X4.2Y-1.015
X4.2Y-1.115
X4.3Y-0.915
X4.3Y-1.015
X4.3Y-1.115
X12.2554Y-2.1284
X12.2554Y-2.2466
X12.5034Y-1.8804
X12.5034Y-2.4946
X12.5231Y-1.9599
X12.6019Y-2.4623
X12.6216Y-1.8804
X12.8326Y-2.3351
X12.8696Y-2.1284
X12.8696Y-2.2466
X1.95Y-0.8
X1.95Y-0.9
X1.95Y-1.0
X1.95Y-1.1
T4
X12.4129Y-2.2466
T5
X10.5375Y-2.4625
X10.7875Y-2.3625
X9.7875Y-2.4625
X10.0375Y-2.3625
X1.4437Y-3.2125
X1.6937Y-3.1125
X2.1938Y-4.7125
X2.4438Y-4.6125
X12.225Y-4.9
X12.475Y-4.8
X2.6625Y-1.7125
X2.9125Y-1.6125
X1.6312Y-3.9625
X1.8812Y-3.8625
X8.85Y-3.9625
X9.1Y-3.8625
X4.725Y-3.2125
X4.975Y-3.1125
X5.2875Y-2.4625
X5.5375Y-2.3625
X3.7875Y-2.4625
X4.0375Y-2.3625
X1.2562Y-4.7125
X1.5062Y-4.6125
X9.225Y-3.2125
X9.475Y-3.1125
X3.4125Y-1.7125
X3.6625Y-1.6125
X3.975Y-3.2125
X4.225Y-3.1125
X5.475Y-3.2125
X5.725Y-3.1125
X5.6625Y-1.7125
X5.9125Y-1.6125
X7.5375Y-2.4625
X7.7875Y-2.3625
X10.4437Y-3.9625
X10.6937Y-3.8625
X2.85Y-3.9625
X3.1Y-3.8625
X4.9125Y-1.7125
X5.1625Y-1.6125
X3.225Y-3.2125
X3.475Y-3.1125
X6.225Y-3.2125
X6.475Y-3.1125
X3.6Y-3.9625
X3.85Y-3.8625
X7.1625Y-1.7125
X7.4125Y-1.6125
X3.0375Y-2.4625
X3.2875Y-2.3625
X9.6937Y-4.7125
X9.9437Y-4.6125
X11.475Y-4.9
X11.725Y-4.8
X11.475Y-2.4625
X11.725Y-2.3625
X7.35Y-3.9625
X7.6Y-3.8625
X9.6Y-3.9625
X9.85Y-3.8625
X8.1Y-3.9625
X8.35Y-3.8625
X8.2875Y-2.4625
X8.5375Y-2.3625
X2.475Y-3.2125
X2.725Y-3.1125
X10.1625Y-1.7125
X10.4125Y-1.6125
X4.5375Y-2.4625
X4.7875Y-2.3625
X2.2875Y-2.4625
X2.5375Y-2.3625
X1.1625Y-1.7125
X1.4125Y-1.6125
X11.475Y-4.15
X11.725Y-4.05
X6.6Y-3.9625
X6.85Y-3.8625
X8.475Y-3.2125
X8.725Y-3.1125
X5.1Y-3.9625
X5.35Y-3.8625
X6.7875Y-2.4625
X7.0375Y-2.3625
X9.4125Y-1.7125
X9.6625Y-1.6125
X6.4125Y-1.7125
X6.6625Y-1.6125
X9.0375Y-2.4625
X9.2875Y-2.3625
X3.1313Y-4.7125
X3.3813Y-4.6125
X1.35Y-2.4625
X1.6Y-2.3625
X1.9125Y-1.7125
X2.1625Y-1.6125
X5.9437Y-4.7125
X6.1937Y-4.6125
X4.1625Y-1.7125
X4.4125Y-1.6125
X4.35Y-3.9625
X4.6Y-3.8625
X7.725Y-3.2125
X7.975Y-3.1125
X6.975Y-3.2125
X7.225Y-3.1125
X9.975Y-3.2125
X10.225Y-3.1125
X11.2875Y-1.7125
X11.5375Y-1.6125
X6.0375Y-2.4625
X6.2875Y-2.3625
X8.7562Y-4.7125
X9.0062Y-4.6125
X10.725Y-4.9
X10.975Y-4.8
X8.6625Y-1.7125
X8.9125Y-1.6125
X7.9125Y-1.7125
X8.1625Y-1.6125
X5.85Y-3.9625
X6.1Y-3.8625
X11.1937Y-3.2125
X11.4437Y-3.1125
T2
G00X6.5063Y-0.5364
M15
G01X6.5063Y-0.5836
M16
G05
G00X6.5063Y-0.7135
M15
G01X6.5063Y-0.7608
M16
G05
G00X6.7937Y-0.5364
M15
G01X6.7937Y-0.5836
M16
G05
G00X6.7937Y-0.7135
M15
G01X6.7937Y-0.7608
M16
G05
T0
M30
